<svg width="1921" height="647" viewBox="0 0 1921 647" fill="none" xmlns="http://www.w3.org/2000/svg">
<g opacity="0.2">
<path d="M646.728 646.038C637.197 646.038 627.921 645.51 619.006 644.457C600.309 642.248 583.036 637.711 567.665 630.973C551.144 623.733 536.655 613.867 524.595 601.651C500.357 577.098 488.231 547.693 476.503 519.255C474.198 513.671 471.816 507.897 469.398 502.295C452.895 464.111 431.976 430.664 405.448 400.042C352.53 338.958 278.109 286.827 190.228 249.285C88.594 205.871 -20.679 184.244 -117.464 188.391C-174.35 190.829 -249.512 214.016 -283.103 253.614C-303.038 277.115 -304.646 303.194 -287.749 329.03L-288.084 329.139C-296.944 315.59 -300.804 302.006 -299.554 288.766C-298.408 276.621 -292.98 264.748 -283.42 253.478C-268.215 235.554 -243.141 219.667 -210.906 207.535C-181.119 196.325 -147.944 189.433 -117.487 188.128C-66.8356 185.96 -12.966 190.772 42.6254 202.434C93.0183 213.007 142.744 228.693 190.419 249.059C278.353 286.622 352.817 338.781 405.765 399.902C432.307 430.544 453.238 464.01 469.752 502.214C472.174 507.817 474.556 513.593 476.857 519.177C488.574 547.594 500.692 576.978 524.897 601.495C548.305 625.21 579.991 639.575 619.068 644.192C673.185 650.587 738.901 637.212 794.854 608.411C875.487 566.907 931.447 506.496 985.567 448.076C995.053 437.836 1004.86 427.248 1014.57 417.023C1039.78 390.473 1073.93 356.069 1114.51 325.419C1155.98 294.09 1198.13 271.073 1243.36 255.049C1271.05 245.24 1300.39 238.632 1330.57 235.408C1358.45 232.429 1387.95 232.244 1418.27 234.854C1470.28 239.334 1526.3 251.986 1589.56 273.532C1714.1 315.961 1838.51 367.461 1959.33 426.603C2074.17 482.816 2186.8 546.424 2294.09 615.656L2293.83 615.848C2071.43 472.334 1834.43 357.241 1589.39 273.766C1450.96 226.606 1341.06 220.73 1243.53 255.28C1144.31 290.427 1075 353.857 1014.88 417.166C1005.17 427.388 995.363 437.977 985.877 448.217C931.742 506.657 875.763 567.086 795.075 608.618C769.001 622.041 739.668 632.509 710.25 638.892C694.709 642.263 679.261 644.468 664.329 645.445C658.378 645.843 652.505 646.038 646.728 646.038Z" fill="white"/>
<path d="M656.046 631.477C631.742 631.477 609.229 628.215 589.11 621.775C566.675 614.595 547.315 603.469 531.564 588.708C530.171 587.4 528.788 586.048 527.453 584.686C503.474 560.239 490.809 531.216 478.565 503.148C476.087 497.475 473.529 491.608 470.933 485.914C455.474 452.015 436.858 422.137 414.018 394.578C411.205 391.185 408.292 387.785 405.354 384.473C351.657 323.914 276.632 272.443 188.389 235.624C86.0219 192.951 -23.5608 172.218 -120.173 177.249C-176.646 180.22 -251.461 203.786 -285.196 243.08C-305.397 266.609 -307.682 292.741 -291.814 318.652L-292.153 318.756C-300.471 305.175 -303.889 291.566 -302.307 278.31C-300.854 266.136 -295.206 254.238 -285.513 242.945C-270.153 225.051 -245.152 209.146 -213.22 196.951C-183.706 185.679 -150.675 178.59 -120.206 176.989C-69.6178 174.355 -15.6892 178.707 40.0792 189.922C90.5937 200.081 140.555 215.383 188.574 235.4C276.868 272.24 351.934 323.742 405.663 384.335C408.602 387.65 411.518 391.053 414.331 394.448C437.187 422.025 455.813 451.919 471.28 485.836C473.879 491.53 476.438 497.397 478.915 503.072C491.156 531.122 503.809 560.124 527.756 584.538C529.087 585.895 530.469 587.247 531.859 588.552C564.408 619.064 609.13 631.477 656.16 631.477C656.418 631.477 656.673 631.477 656.931 631.477C656.636 631.475 656.341 631.477 656.046 631.477ZM666.078 631.295C709.801 629.712 754.918 617.865 793.624 600.242C877.114 562.072 937.119 503.116 995.151 446.103C997.54 443.753 999.929 441.408 1002.32 439.063C1007.56 433.916 1013.78 427.822 1020.13 421.679C1048.61 394.131 1083.08 362.077 1122.78 333.226C1165.02 302.526 1207.22 279.745 1251.78 263.578C1279.16 253.655 1308.1 246.665 1337.79 242.802C1365.3 239.222 1394.37 238.211 1424.19 239.794C1475.7 242.531 1531.08 252.909 1593.51 271.523C1654.37 289.642 1704.4 306.699 1750.96 325.201C1816.91 351.436 1879.73 381.665 1932.49 407.774C2055.14 468.647 2175.48 537.77 2290.17 613.222L2289.92 613.412C2175.24 537.97 2054.91 468.853 1932.28 407.987C1879.53 381.881 1816.72 351.657 1750.78 325.429C1704.24 306.933 1654.22 289.882 1593.37 271.767C1457.38 231.218 1348.89 228.688 1251.95 263.812C1151.34 300.306 1079.69 364.515 1020.43 421.835C1014.08 427.978 1007.86 434.069 1002.62 439.219C1000.23 441.562 997.839 443.909 995.449 446.259C937.399 503.29 877.372 562.266 793.823 600.466C773.106 609.897 751.062 617.39 728.299 622.732C707.11 627.7 686.223 630.573 666.078 631.295Z" fill="white"/>
<path d="M666.321 617.25C663.397 617.25 660.492 617.206 657.609 617.115C633.326 616.358 610.855 612.43 590.82 605.434C568.909 597.783 549.925 586.452 534.399 571.75C533.02 570.44 531.645 569.086 530.318 567.724C506.607 543.396 493.415 514.761 480.662 487.072C478.004 481.3 475.253 475.332 472.466 469.539C456.244 435.754 437.138 406.115 414.05 378.928C411.193 375.567 408.236 372.195 405.253 368.909C350.779 308.878 275.149 258.067 186.545 221.971C83.4478 180.038 -26.4446 160.198 -122.887 166.112C-177.188 169.494 -251.786 191.716 -287.254 232.51C-307.746 256.079 -310.728 282.281 -295.881 308.282L-296.224 308.379C-304.003 294.756 -306.971 281.116 -305.054 267.837C-303.292 255.624 -297.408 243.694 -287.567 232.375C-272.045 214.523 -247.125 198.613 -215.499 186.361C-186.262 175.034 -153.382 167.752 -122.92 165.855C-72.391 162.758 -18.4034 166.648 37.5382 177.415C88.1781 187.164 138.372 202.078 186.73 221.747C275.385 257.867 351.056 308.706 405.563 368.771C408.546 372.06 411.507 375.432 414.364 378.798C437.462 406.001 456.579 435.658 472.809 469.461C475.596 475.256 478.347 481.225 481.005 486.996C493.754 514.67 506.935 543.284 530.616 567.583C531.943 568.945 533.311 570.297 534.69 571.602C597.777 631.337 709.579 624.924 792.391 592.072C879.366 557.265 944.001 499.415 1006.51 443.47L1007.15 442.896C1013.2 437.473 1019.47 431.868 1025.7 426.333C1091.45 367.945 1163.71 307.939 1260.2 272.103C1287.29 262.063 1315.83 254.69 1345.02 250.19C1372.17 246.005 1400.8 244.167 1430.11 244.728C1481.21 245.706 1535.95 253.812 1597.47 269.508C1662.13 285.946 1710.78 301.055 1755.23 318.502C1818.56 343.409 1879.9 374.883 1934.03 402.653C2054.54 464.813 2173.04 534.838 2286.26 610.777L2286.01 610.964C2172.8 535.033 2054.3 465.016 1933.81 402.861C1879.69 375.096 1818.36 343.627 1755.05 318.728C1710.62 301.287 1661.98 286.183 1597.35 269.75C1463.99 235.726 1356.92 236.545 1260.37 272.329C1163.94 308.142 1091.71 368.121 1025.98 426.489C1019.75 432.024 1013.49 437.631 1007.44 443.052L1006.8 443.626C975.646 471.505 943.437 500.332 908.655 526.082C869.566 555.019 831.594 576.677 792.568 592.293C751.739 608.489 707.264 617.25 666.321 617.25Z" fill="white"/>
<path d="M2282.1 608.512C2170.36 532.093 2053.7 461.176 1935.35 397.734C1930.34 395.067 1925.32 392.387 1920.28 389.699C1869.01 362.345 1816.01 334.061 1759.32 312.026C1704.33 290.709 1648.6 277.674 1601.34 267.735C1470.87 240.132 1365.2 244.299 1268.8 280.845C1169.84 318.473 1093.16 380.945 1031.55 431.145C1027.85 434.158 1024.16 437.176 1020.46 440.197C1017.73 442.428 1015 444.658 1012.27 446.886C977.187 475.498 945.277 501.079 910.019 524.421C869.739 551.086 830.916 570.614 791.322 584.125C754.217 596.788 714.579 603.487 677.71 603.49C670.992 603.49 664.374 603.269 657.87 602.819C634.127 601.179 612.145 596.569 592.538 589.119C571.143 580.99 552.535 569.442 537.223 554.795C535.855 553.483 534.491 552.125 533.171 550.761C509.741 526.56 496.037 498.328 482.786 471.026C479.932 465.146 476.979 459.063 473.992 453.159C456.996 419.48 437.396 390.078 414.08 363.27C411.178 359.935 408.174 356.594 405.15 353.337C349.894 293.833 273.664 243.683 184.702 208.307C80.8744 167.115 -29.324 148.172 -125.597 154.962C-191.412 159.696 -258.713 187.216 -289.263 221.882C-310.076 245.5 -313.766 271.786 -299.944 297.897L-300.291 297.988C-307.528 284.316 -310.05 270.634 -307.786 257.321C-305.703 245.064 -299.575 233.095 -289.577 221.745C-273.892 203.945 -249.054 188.035 -217.744 175.738C-188.787 164.365 -156.077 156.894 -125.634 154.705C-75.1636 151.143 -21.1207 154.572 34.9943 164.893C85.7559 174.231 136.189 188.76 184.886 208.078C273.903 243.475 350.175 293.654 405.464 353.194C408.491 356.454 411.495 359.797 414.397 363.133C437.728 389.956 457.335 419.374 474.343 453.068C477.329 458.974 480.282 465.055 483.136 470.938C496.379 498.224 510.076 526.438 533.477 550.61C534.797 551.972 536.158 553.327 537.522 554.637C603.381 617.637 715.32 609.768 791.164 583.888C881.652 553.009 950.896 496.539 1011.99 446.714C1014.72 444.484 1017.45 442.253 1020.18 440.025C1023.88 437.005 1027.57 433.986 1031.27 430.973C1066.44 402.32 1101.17 374.475 1139.35 348.816C1183.26 319.307 1225.55 297 1268.63 280.617C1295.44 270.455 1323.57 262.7 1352.26 257.571C1379.07 252.774 1407.26 250.112 1436.05 249.655C1486.82 248.849 1540.92 254.682 1601.45 267.486C1648.73 277.429 1704.48 290.469 1759.5 311.8C1816.21 333.842 1869.23 362.134 1920.5 389.493C1925.54 392.181 1930.57 394.861 1935.58 397.529C2053.94 460.976 2170.61 531.9 2282.37 608.328L2282.1 608.512Z" fill="white"/>
<path d="M2278.2 606.063C2165.82 527.694 2050.99 455.875 1936.89 392.607C1930.06 388.822 1923.08 384.92 1916.32 381.148C1867.95 354.132 1817.93 326.196 1763.6 305.324C1709.34 284.555 1653.14 273.647 1605.32 265.718C1478.03 244.408 1373.77 251.921 1277.23 289.362C1185.14 325.203 1113 379.099 1043.24 431.22L1035.57 436.942C1029.52 441.463 1023.27 446.134 1017.1 450.718C947.261 502.539 877.349 551.109 790.076 575.951C768.899 581.98 747.153 586.157 725.437 588.375C702.117 590.754 679.465 590.787 658.107 588.474C634.908 585.96 613.425 580.68 594.253 572.78C573.388 564.182 555.153 552.424 540.059 537.835C538.698 536.514 537.345 535.155 536.036 533.792C512.893 509.735 498.695 481.919 484.965 455.017C481.901 449.015 478.73 442.807 475.53 436.778C457.744 403.204 437.658 374.038 414.121 347.615C411.179 344.313 408.13 340.999 405.058 337.767C349.024 278.791 272.193 229.302 182.866 194.645C78.3047 154.2 -32.2034 136.148 -128.31 143.819C-193.525 149.136 -260.52 176.848 -291.224 211.213C-312.384 234.891 -316.804 261.277 -304.011 287.521L-304.361 287.607C-311.056 273.875 -313.125 260.141 -310.511 246.79C-308.099 234.48 -301.717 222.465 -291.542 211.078C-275.688 193.338 -250.937 177.444 -219.96 165.111C-191.29 153.696 -158.757 146.045 -128.355 143.565C-77.9434 139.54 -23.8451 142.507 32.4468 152.38C83.3337 161.307 133.999 175.45 183.039 194.419C272.418 229.094 349.294 278.615 405.361 337.624C408.432 340.858 411.485 344.176 414.427 347.477C437.979 373.913 458.076 403.094 475.869 436.687C479.07 442.716 482.24 448.926 485.304 454.929C499.027 481.815 513.218 509.618 536.335 533.647C537.64 535.004 538.993 536.361 540.35 537.681C604.624 599.806 711.419 598.061 789.932 575.712C877.136 550.89 947.017 502.339 1016.83 450.541C1022.99 445.958 1029.25 441.286 1035.3 436.765L1042.96 431.043C1077.21 405.46 1112.62 379.003 1151.08 354.392C1194.64 326.519 1235.84 305.173 1277.05 289.133C1303.58 278.843 1331.31 270.706 1359.48 264.951C1385.96 259.538 1413.72 256.05 1441.96 254.581C1492.51 251.952 1545.97 255.514 1605.4 265.463C1653.25 273.397 1709.48 284.308 1763.77 305.095C1818.13 325.975 1868.16 353.919 1916.55 380.943C1923.3 384.715 1930.29 388.614 1937.11 392.402C2051.23 455.675 2166.07 527.499 2278.45 605.876L2278.2 606.063Z" fill="white"/>
<path d="M2274.29 603.614C2162.88 524.374 2049.88 451.656 1938.43 387.483C1930.05 382.661 1921.46 377.646 1913.16 372.798C1867.4 346.073 1820.07 318.439 1767.87 298.627C1713.87 278.214 1657.41 269.518 1609.31 263.706C1485.54 248.521 1382.7 259.382 1285.65 297.883C1200.97 331.624 1131.43 379.443 1064.19 425.685C1057.11 430.552 1049.79 435.582 1042.66 440.457C1034.29 446.181 1027.89 450.53 1021.92 454.555C989.955 476.096 951.891 500.899 911.947 521.53C869.618 543.39 829.345 558.52 788.826 567.786C767.519 572.657 745.866 575.73 724.464 576.916C701.483 578.189 679.232 577.254 658.335 574.131C635.693 570.749 614.711 564.799 595.963 556.446C575.633 547.389 557.778 535.42 542.89 520.877C541.548 519.559 540.202 518.197 538.897 516.83C516.06 492.934 501.386 465.546 487.192 439.061C483.899 432.918 480.496 426.567 477.064 420.398C458.478 386.917 437.901 357.99 414.154 331.96C411.167 328.687 408.074 325.403 404.958 322.198C348.147 263.75 270.71 214.92 181.022 180.984C75.7346 141.282 -35.0833 124.127 -131.021 132.675C-185.609 137.645 -256.907 160.543 -293.135 200.49C-314.674 224.24 -319.843 250.746 -308.078 277.141L-308.428 277.219C-314.582 263.417 -316.189 249.623 -313.21 236.219C-310.46 223.848 -303.812 211.78 -293.444 200.349C-277.421 182.682 -252.763 166.814 -222.128 154.455C-193.746 143.006 -161.408 135.181 -131.065 132.417C-80.7126 127.93 -26.5554 130.434 29.9061 139.86C80.9147 148.377 131.816 162.134 181.195 180.756C270.935 214.71 348.416 263.568 405.261 322.05C408.376 325.255 411.473 328.544 414.46 331.819C438.218 357.863 458.806 386.805 477.403 420.302C480.839 426.473 484.242 432.824 487.534 438.967C501.718 465.439 516.388 492.811 539.199 516.681C540.504 518.046 541.846 519.406 543.189 520.721C596.66 572.959 688.446 590.46 788.712 567.533C879.513 546.773 953.584 500.241 1021.67 454.362C1027.64 450.338 1034.03 445.989 1042.41 440.264C1049.54 435.39 1056.85 430.36 1063.93 425.493C1097.03 402.728 1131.26 379.188 1167.78 357.145C1209.06 332.217 1247.56 312.756 1285.48 297.652C1311.75 287.227 1339.08 278.708 1366.72 272.334C1392.89 266.295 1420.2 261.982 1447.9 259.51C1498.32 255.012 1551.14 256.299 1609.37 263.443C1657.5 269.261 1714 277.96 1768.04 298.39C1820.28 318.215 1867.61 345.858 1913.39 372.59C1921.7 377.438 1930.28 382.453 1938.66 387.275C2050.12 451.456 2163.13 524.179 2274.55 603.424L2274.29 603.614Z" fill="white"/>
<path d="M2270.37 601.166C2159.94 521.049 2048.77 447.429 1939.96 382.357C1930.7 376.823 1921.2 371.012 1912 365.394C1868.2 338.634 1822.91 310.963 1772.14 291.925C1718.1 271.757 1661.52 265.323 1613.29 261.689C1495.14 252.546 1390.72 267.171 1294.08 306.4C1217.13 337.778 1151.16 379.755 1087.37 420.351C1074.49 428.551 1061.17 437.031 1048.21 445.113C1040.29 450.06 1033.27 454.404 1026.75 458.392C996.399 476.917 956.031 500.671 912.894 520.082C869.55 539.585 828.555 552.518 787.568 559.618C742.864 567.362 698.249 567.419 658.548 559.787C636.474 555.542 615.99 548.923 597.662 540.113C577.874 530.6 560.398 518.424 545.713 503.925C544.382 502.605 543.048 501.24 541.75 499.872C519.237 476.158 504.106 449.221 489.477 423.172C485.937 416.87 482.28 410.356 478.589 404.025C459.189 370.633 438.121 341.94 414.182 316.313C411.152 313.068 408.014 309.814 404.854 306.637C347.265 248.716 269.227 200.545 179.178 167.334C73.164 128.378 -37.9635 112.117 -133.735 121.541C-198.64 128.066 -263.445 155.466 -294.99 189.72C-316.942 213.556 -322.874 240.2 -312.145 266.771L-312.499 266.841C-318.107 252.956 -319.25 239.09 -315.899 225.629C-312.802 213.187 -305.87 201.057 -295.3 189.577C-279.107 171.993 -254.544 156.161 -224.267 143.791C-196.184 132.319 -164.049 124.323 -133.787 121.281C-83.4933 116.331 -29.2771 118.374 27.3577 127.351C78.4916 135.457 129.629 148.83 179.347 167.1C269.448 200.331 347.53 248.529 405.157 306.486C408.316 309.663 411.454 312.92 414.488 316.167C438.438 341.81 459.517 370.516 478.928 403.924C482.619 410.254 486.276 416.772 489.816 423.073C504.438 449.109 519.562 476.034 542.052 499.724C543.35 501.092 544.681 502.451 546.012 503.772C598.565 555.672 688.832 576.453 787.479 559.366C877.411 543.786 955.507 501.534 1026.5 458.197C1033.02 454.209 1040.05 449.868 1047.97 444.921C1060.92 436.838 1074.24 428.361 1087.12 420.162C1150.93 379.557 1216.9 337.57 1293.89 306.179C1319.93 295.606 1346.87 286.708 1373.94 279.725C1399.83 273.049 1426.71 267.91 1453.81 264.45C1504.22 258.015 1556.4 257.03 1613.32 261.434C1661.58 265.071 1718.21 271.508 1772.3 291.699C1823.12 310.75 1868.43 338.431 1912.24 365.202C1921.44 370.82 1930.94 376.628 1940.2 382.162C2049.02 447.24 2160.19 520.865 2270.64 600.986L2270.37 601.166Z" fill="white"/>
<path d="M2266.47 598.717C2157.01 517.717 2047.67 443.2 1941.5 377.233C1931.74 371.171 1921.7 364.752 1912 358.544C1869.8 331.557 1826.16 303.65 1776.41 285.226C1722.14 265.229 1665.51 261.088 1617.27 259.674C1503.58 256.097 1400.62 274.167 1302.5 314.919C1233.69 343.635 1172.35 379.979 1113.03 415.123C1092.64 427.209 1073.37 438.624 1053.77 449.769C1045.8 454.306 1038.54 458.382 1031.57 462.227C986.611 487.014 949.204 504.937 913.846 518.626C869.489 535.802 827.775 546.539 786.319 551.447C770.237 553.35 754.213 554.299 738.481 554.299C710.593 554.299 683.609 551.325 658.766 545.434C613.808 534.773 576.725 515.101 548.546 486.965C547.218 485.632 545.895 484.267 544.612 482.904C522.442 459.396 506.887 432.936 491.844 407.345C488.032 400.862 484.094 394.16 480.124 387.642C459.893 354.328 438.332 325.874 414.22 300.655C411.145 297.439 407.963 294.213 404.759 291.065C346.392 233.672 267.749 186.161 177.339 153.67C70.5986 115.463 -40.835 100.094 -136.441 110.393C-201.614 117.561 -264.55 144.441 -296.77 178.876C-319.168 202.812 -325.886 229.614 -316.204 256.388L-316.562 256.453C-321.616 242.472 -322.287 228.522 -318.553 214.991C-315.094 202.466 -307.871 190.268 -297.076 178.733C-280.714 161.246 -256.258 145.466 -226.35 133.096C-198.569 121.606 -166.659 113.453 -136.496 110.136C-86.2616 104.724 -31.9864 106.304 24.8181 114.834C76.0773 122.531 127.447 135.519 177.508 153.436C267.971 185.948 346.657 233.485 405.062 290.911C408.265 294.062 411.447 297.288 414.526 300.507C438.653 325.739 460.225 354.208 480.463 387.536C484.434 394.053 488.375 400.758 492.184 407.241C507.219 432.819 522.767 459.268 544.918 482.756C546.201 484.116 547.521 485.481 548.848 486.812C601.468 539.356 688 562.821 786.256 551.187C879.79 540.113 962.635 499.898 1031.34 462.019C1038.31 458.174 1045.57 454.1 1053.54 449.564C1073.13 438.419 1092.4 427.007 1112.8 414.921C1172.13 379.768 1233.48 343.419 1302.31 314.693C1328.16 303.957 1354.69 294.676 1381.17 287.106C1406.82 279.775 1433.26 273.808 1459.74 269.376C1510.26 260.924 1561.79 257.664 1617.29 259.411C1665.57 260.826 1722.25 264.972 1776.57 284.992C1826.37 303.429 1870.03 331.349 1912.24 358.347C1921.95 364.555 1931.99 370.973 1941.74 377.033C2047.92 443.005 2157.26 517.529 2266.73 598.535L2266.47 598.717Z" fill="white"/>
<path d="M2262.56 596.268C2152.56 513.224 2048.04 439.901 1943.04 372.107C1933.01 365.639 1923.15 359.033 1912.71 352.04C1871.88 324.702 1829.67 296.436 1780.67 278.527C1725.73 258.538 1666.62 256.874 1621.26 257.659C1512.75 259.292 1411.23 280.809 1310.93 323.441C1250.75 349.144 1195.18 380.01 1141.44 409.862C1113.2 425.551 1086.53 440.366 1059.32 454.428C1051.25 458.605 1043.75 462.411 1036.4 466.064C990.822 488.671 952.182 504.908 914.79 517.168C869.404 532.049 826.971 540.588 785.065 543.276C763.534 544.657 742.15 544.397 721.506 542.504C699.65 540.5 678.613 536.655 658.98 531.079C615.463 518.717 579.261 498.172 551.377 470.01C550.061 468.674 548.748 467.307 547.473 465.944C525.676 442.677 509.73 416.722 494.307 391.623C490.193 384.926 485.938 378 481.657 371.267C460.579 338.025 438.532 309.809 414.253 285.005C411.13 281.818 407.904 278.62 404.663 275.501C345.518 218.636 266.275 171.785 175.503 140.014C91.7212 110.812 5.32181 95.5755 -73.9065 95.5755C-96.3045 95.5755 -118.113 96.7922 -139.147 99.2541C-203.535 106.939 -266.076 133.915 -298.484 167.981C-321.358 192.028 -328.89 219.013 -320.267 246.015L-320.628 246.073C-325.13 231.982 -325.318 217.936 -321.188 204.327C-317.361 191.711 -309.825 179.433 -298.794 167.836C-282.262 150.457 -257.921 134.742 -228.396 122.386C-200.526 110.721 -169.685 102.634 -139.213 98.9993C-89.0376 93.124 -34.7034 94.2445 22.2743 102.324C73.6553 109.609 125.265 122.209 175.665 139.778C266.489 171.566 345.78 218.443 404.962 275.342C408.207 278.462 411.436 281.662 414.559 284.852C438.849 309.668 460.908 337.898 481.997 371.155C486.277 377.889 490.536 384.814 494.65 391.513C510.065 416.603 526.004 442.547 547.782 465.796C549.058 467.156 550.371 468.523 551.683 469.857C603.827 522.518 688.877 549.18 785.036 543.014C882.338 536.772 970.366 498.495 1036.19 465.846C1043.54 462.193 1051.04 458.387 1059.11 454.212C1086.31 440.156 1112.98 425.338 1141.22 409.651C1194.97 379.797 1250.54 348.923 1310.74 323.212C1362.39 301.263 1413.06 285.268 1465.68 274.308C1516.41 263.737 1567.31 258.205 1621.26 257.394C1652.04 256.861 1677.15 257.787 1700.29 260.303C1730.16 263.553 1756.51 269.436 1780.85 278.29C1829.89 296.215 1872.12 324.497 1912.97 351.848C1923.41 358.841 1933.28 365.444 1943.29 371.912C2048.3 439.708 2152.83 513.037 2262.83 596.086L2262.56 596.268Z" fill="white"/>
<path d="M2258.65 593.819C2149.66 509.865 2046.92 435.668 1944.57 366.98C1934.45 360.185 1924.46 353.184 1913.89 345.772C1874.29 318.003 1833.34 289.284 1784.94 271.825C1729.55 251.929 1670.5 252.725 1625.25 255.639C1522.84 262.006 1422.78 286.97 1319.35 331.955C1268.39 354.226 1219.87 379.713 1172.95 404.363C1135.85 423.848 1100.82 442.253 1064.88 459.076C1056.76 462.882 1048.8 466.521 1041.22 469.89C995.556 490.178 954.509 505.16 915.734 515.694C869.305 528.307 826.153 534.656 783.812 535.098C762.27 535.321 740.97 533.949 720.519 531.014C699.079 527.936 678.448 523.124 659.194 516.708C617.171 502.703 581.846 481.285 554.206 453.045C552.908 451.711 551.603 450.341 550.331 448.971C528.943 425.987 512.65 400.581 496.892 376.011C492.435 369.06 487.822 361.869 483.188 354.879C461.247 321.699 438.709 293.722 414.287 269.342C411.12 266.183 407.849 263.014 404.564 259.923C344.641 203.586 264.793 157.395 173.66 126.345C65.4707 89.6377 -46.5859 76.057 -141.86 88.1039C-205.415 96.2798 -267.54 123.327 -300.128 157.005C-323.518 181.18 -331.887 208.367 -324.337 235.632L-324.698 235.682C-328.636 221.469 -328.333 207.314 -323.795 193.611C-319.58 180.891 -311.724 168.524 -300.434 156.857C-283.74 139.603 -259.52 123.966 -230.394 111.636C-202.845 99.9739 -172.255 91.7486 -141.926 87.8465C-91.806 81.5111 -37.4166 82.1663 19.7307 89.7989C71.2371 96.6776 123.079 108.893 173.818 126.108C265.007 157.174 344.899 203.394 404.856 259.765C408.144 262.856 411.418 266.027 414.585 269.189C439.022 293.581 461.568 321.572 483.52 354.764C488.158 361.755 492.767 368.946 497.228 375.9C512.978 400.459 529.263 425.855 550.637 448.823C551.909 450.19 553.214 451.56 554.508 452.891C607.201 506.725 688.634 535.831 783.805 534.833C861.028 534.027 942.759 513.318 1041.02 469.664C1048.59 466.295 1056.55 462.658 1064.67 458.852C1100.6 442.032 1135.64 423.632 1172.72 404.148C1219.65 379.495 1268.18 354.003 1319.16 331.726C1371.31 309.044 1421.17 291.876 1471.59 279.234C1522.68 266.428 1572.93 258.621 1625.21 255.371C1670.51 252.452 1729.63 251.659 1785.11 271.586C1833.56 289.066 1874.53 317.797 1914.15 345.58C1924.72 352.991 1934.7 359.99 1944.82 366.783C2047.18 435.473 2149.92 509.676 2258.92 593.634L2258.65 593.819Z" fill="white"/>
<path d="M2254.74 591.37C2146.76 506.504 2045.81 431.428 1946.11 361.856C1935.99 354.793 1925.99 347.454 1915.42 339.683C1876.93 311.417 1837.14 282.189 1789.22 265.125C1733.3 245.303 1674.35 248.565 1629.23 253.622C1532.88 264.215 1437.1 291.813 1327.78 340.474C1286.78 358.807 1246.72 378.918 1207.97 398.366C1160.91 421.986 1116.46 444.299 1070.44 463.732C1062.14 467.236 1053.94 470.6 1046.04 473.725C999.562 492.115 957.247 505.363 916.68 514.222C893.958 519.185 871.526 522.78 850.01 524.909C827.058 527.179 804.365 527.857 782.561 526.927C738.322 525.037 696.888 516.765 659.414 502.342C618.943 486.765 584.499 464.475 557.043 436.087C555.752 434.743 554.458 433.37 553.194 432.008C532.263 409.362 515.679 384.559 499.645 360.574C494.789 353.314 489.771 345.806 484.724 338.501C461.898 305.376 438.87 277.635 414.322 253.689C411.111 250.557 407.793 247.416 404.467 244.356C343.766 188.544 263.317 143.014 171.822 112.689C62.9104 76.7327 -49.4522 64.0464 -144.567 76.9641C-246.411 91.0101 -345.652 151.699 -328.397 225.257L-328.762 225.298C-333.08 206.898 -330.551 188.77 -321.249 171.415C-312.754 155.565 -298.814 140.648 -279.815 127.083C-262.151 114.469 -240.958 103.579 -216.831 94.7146C-193.884 86.2839 -168.92 80.0551 -144.641 76.7067C-94.5802 69.9086 -40.1317 70.1036 17.1889 77.2891C68.8206 83.7596 120.898 95.5907 171.977 112.455C263.523 142.801 344.02 188.357 404.758 244.2C408.088 247.263 411.406 250.403 414.621 253.538C439.179 277.494 462.219 305.251 485.056 338.389C490.103 345.694 495.121 353.202 499.977 360.465C516.008 384.442 532.584 409.235 553.503 431.868C554.764 433.23 556.055 434.602 557.345 435.944C610.116 490.5 690.108 522.718 782.583 526.669C860.871 530.01 946.99 512.621 1045.86 473.501C1053.75 470.376 1061.96 467.015 1070.25 463.511C1116.26 444.083 1160.7 421.773 1207.76 398.155C1246.5 378.704 1286.57 358.591 1327.58 340.255C1436.94 291.574 1532.77 263.966 1629.17 253.364C1659.49 249.966 1684.58 248.88 1708.16 249.948C1738.3 251.313 1764.87 256.201 1789.38 264.891C1837.35 281.974 1877.17 311.22 1915.68 339.501C1926.26 347.269 1936.25 354.608 1946.36 361.669C2046.07 431.246 2147.03 506.324 2255.01 591.196L2254.74 591.37Z" fill="white"/>
<path d="M2250.83 588.921C2143.88 503.129 2044.71 427.18 1947.65 356.729C1937.6 349.44 1927.68 341.805 1917.17 333.717C1879.73 304.91 1841.01 275.121 1793.49 258.423C1736.35 238.434 1674.66 244.957 1633.22 251.602C1520.75 269.414 1419.96 310.827 1336.21 348.993C1306.1 362.766 1276.08 377.355 1247.04 391.463C1188.78 419.766 1133.76 446.498 1076 468.387C1067.5 471.608 1059.05 474.694 1050.87 477.562C1003.49 494.145 959.903 505.656 917.636 512.748C869.721 520.789 823.859 522.811 781.316 518.756C737.611 514.589 696.671 504.232 659.64 487.971C620.798 470.917 587.236 447.757 559.879 419.132C558.603 417.788 557.317 416.412 556.059 415.045C535.649 392.815 518.858 368.693 502.617 345.364C497.297 337.718 491.793 329.815 486.262 322.123C462.205 288.582 439.357 261.865 414.364 238.036C411.108 234.932 407.749 231.823 404.376 228.789C342.889 173.508 261.836 128.637 169.98 99.0299C60.3453 63.8278 -52.3271 52.0332 -147.28 65.8218C-249.489 80.8608 -346.702 140.726 -332.463 214.881L-332.828 214.915C-336.36 196.517 -333.304 178.408 -323.747 161.092C-314.987 145.226 -300.966 130.293 -282.067 116.713C-264.443 104.047 -243.361 93.0766 -219.404 84.1C-196.593 75.5523 -171.676 69.1441 -147.354 65.5644C-97.3481 58.3036 -42.8443 58.0384 14.6459 64.7741C66.4029 70.8365 118.717 82.2829 170.134 98.7933C262.046 128.416 343.143 173.313 404.66 228.628C408.033 231.665 411.396 234.777 414.655 237.88C439.663 261.719 462.518 288.452 486.587 322.006C492.117 329.698 497.622 337.604 502.942 345.249C519.179 368.571 535.966 392.685 556.362 414.905C557.619 416.272 558.902 417.645 560.178 418.989C613.358 474.632 691.908 509.972 781.36 518.499C861.587 526.147 949.69 512.678 1050.71 477.328C1058.88 474.463 1067.33 471.38 1075.82 468.159C1133.56 446.275 1188.58 419.548 1246.83 391.248C1275.87 377.139 1305.9 362.547 1336.01 348.772C1392.33 323.11 1439.18 304.151 1483.45 289.107C1535.56 271.398 1584.52 259.047 1633.14 251.347C1662.77 246.595 1688.6 244.442 1712.11 244.77C1742.37 245.191 1769.04 249.579 1793.65 258.189C1841.24 274.908 1879.98 304.715 1917.44 333.54C1927.95 341.625 1937.87 349.26 1947.91 356.545C2044.98 426.998 2144.15 502.953 2251.11 588.747L2250.83 588.921Z" fill="white"/>
<path d="M2246.92 586.469C2141 499.75 2043.61 422.925 1949.19 351.6C1939.28 344.121 1929.48 336.221 1919.11 327.855C1882.66 298.468 1844.96 268.081 1797.76 251.721C1740 231.779 1678.47 240.948 1637.21 249.582C1535.31 270.72 1444.42 310.968 1344.64 357.509C1326.64 365.935 1308.44 374.631 1290.83 383.043C1223.13 415.393 1153.12 448.843 1081.55 473.041C1072.86 475.984 1064.16 478.794 1055.7 481.394C1007.99 496.035 961.857 506.085 918.583 511.266C869.562 517.136 822.959 516.905 780.058 510.583C736.966 504.232 696.524 491.787 659.854 473.595C622.745 455.184 590.057 431.155 562.7 402.177C561.435 400.83 560.159 399.452 558.91 398.085C539.114 376.375 522.217 353.038 505.877 330.47C499.989 322.339 493.902 313.931 487.785 305.75C462.788 272.243 439.464 245.755 414.386 222.389C411.093 219.322 407.687 216.238 404.265 213.228C342.011 158.466 260.361 114.256 168.136 85.3715C57.7829 50.9233 -55.1955 40.0229 -149.994 54.6798C-248.958 70.1478 -347.967 127.912 -336.534 204.504L-336.899 204.53C-339.645 186.132 -336.062 168.043 -326.251 150.766C-317.229 134.882 -303.123 119.937 -284.327 106.34C-249.648 81.2588 -200.715 62.3359 -150.075 54.4225C-100.128 46.7015 -45.5652 45.9736 12.0982 52.2596C63.9806 57.9164 116.527 68.9754 168.284 85.1323C260.56 114.033 342.258 158.271 404.553 213.059C407.978 216.072 411.385 219.155 414.681 222.226C439.77 245.604 463.105 272.103 488.11 305.623C494.226 313.806 500.317 322.214 506.205 330.345C522.542 352.908 539.435 376.24 559.219 397.939C560.465 399.307 561.741 400.682 563.006 402.029C617.738 460.006 692.819 497.454 780.129 510.325C860.975 522.242 953.635 512.428 1055.54 481.155C1064 478.555 1072.69 475.747 1081.38 472.807C1152.92 448.617 1222.92 415.172 1290.62 382.827C1308.22 374.415 1326.42 365.719 1344.42 357.294C1388.1 336.92 1438.93 313.552 1489.37 294.041C1542.13 273.634 1590.45 259.011 1637.09 249.335C1666.46 243.192 1692.28 240.005 1716.04 239.594C1746.01 239.074 1773.55 243.077 1797.91 251.49C1819.06 258.818 1840.34 269.755 1862.97 284.927C1882.96 298.323 1901.47 313.25 1919.38 327.683C1929.75 336.047 1939.55 343.947 1949.45 351.424C2043.88 422.751 2141.27 499.578 2247.2 586.3L2246.92 586.469Z" fill="white"/>
<path d="M2243.01 584.02C2138.13 496.365 2042.52 418.663 1950.72 346.476C1941 338.833 1931.37 330.693 1921.17 322.078C1885.67 292.081 1848.96 261.062 1802.03 245.024C1758.18 230.084 1705.56 230.916 1641.19 247.567C1551.19 270.717 1470.73 309.439 1385.55 350.438C1374.94 355.544 1363.97 360.821 1353.06 366.033C1348.79 368.079 1344.51 370.13 1340.24 372.179C1259.07 411.093 1175.15 451.333 1087.11 477.699C1078.21 480.366 1069.26 482.901 1060.52 485.23C1011.77 498.211 964.334 506.472 919.546 509.784C869.392 513.491 822.041 511.011 778.816 502.412C736.394 493.97 696.45 479.438 660.093 459.218C624.853 439.619 593.043 414.725 565.542 385.221C564.288 383.872 563.024 382.492 561.781 381.122C542.738 360.093 525.896 337.697 509.604 316.039C503.008 307.268 496.184 298.198 489.33 289.369C463.366 255.886 439.571 229.626 414.433 206.734C411.093 203.692 407.646 200.64 404.18 197.658C341.137 143.427 258.882 99.8746 166.296 71.7125C55.2276 38.0209 -58.0642 28.0121 -152.704 43.5373C-249.851 59.6059 -348.719 117.843 -340.597 194.128L-340.966 194.149C-342.923 175.748 -338.816 157.681 -328.751 140.448C-319.463 124.545 -305.276 109.582 -286.58 95.9751C-252.048 70.8416 -203.285 51.6379 -152.789 43.2852C-102.897 35.1014 -48.2791 33.9108 9.55396 39.7496C61.5617 44.9958 114.347 55.67 166.444 71.4733C259.081 99.6537 341.388 143.229 404.457 197.489C407.922 200.471 411.377 203.528 414.717 206.57C439.866 229.476 463.676 255.743 489.647 289.239C496.504 298.068 503.325 307.141 509.925 315.912C526.21 337.564 543.052 359.955 562.087 380.976C563.33 382.346 564.591 383.724 565.844 385.073C621.764 445.063 695.44 485.548 778.912 502.154C861.311 518.548 956.013 512.769 1060.39 484.981C1069.12 482.652 1078.06 480.12 1086.96 477.455C1174.97 451.099 1258.88 410.867 1340.03 371.958C1344.3 369.907 1348.58 367.858 1352.85 365.812C1363.76 360.6 1374.73 355.323 1385.34 350.22C1470.54 309.212 1551.02 270.48 1641.06 247.32C1670.14 239.796 1695.96 235.577 1719.99 234.415C1750.07 232.962 1777.72 236.453 1802.19 244.788C1823.21 251.971 1844.23 262.957 1866.44 278.375C1886.04 291.979 1904.04 307.195 1921.46 321.909C1931.65 330.522 1941.28 338.659 1951 346.299C2042.8 418.489 2138.42 496.193 2243.29 583.851L2243.01 584.02Z" fill="white"/>
<path d="M2239.1 581.572C2143.38 499.89 2046.87 419.067 1952.26 341.35C1942.62 333.483 1933.08 325.032 1922.97 316.086C1890.1 286.986 1852.85 254.004 1806.3 238.325C1761.93 223.411 1709.23 225.774 1645.17 245.547C1569.01 268.981 1501.61 303.436 1430.25 339.915C1407.9 351.338 1384.79 363.153 1361.48 374.55C1320.8 394.487 1276.79 415.583 1230.65 434.797C1181.24 455.376 1136.1 470.93 1092.65 482.353C1083.53 484.753 1074.34 487.012 1065.34 489.063C1015.55 500.405 966.827 506.86 920.523 508.248C869.264 509.782 821.164 505.072 777.555 494.236C697.025 473.98 626.642 431.597 568.363 368.264C567.12 366.912 565.867 365.529 564.631 364.159C546.555 344.059 530.008 322.853 514.006 302.345C506.474 292.692 498.687 282.709 490.853 272.994C463.901 239.519 439.626 213.491 414.459 191.084C411.071 188.069 407.58 185.045 404.073 182.095C340.264 128.385 257.404 85.4962 164.457 58.0542C52.6691 25.1164 -60.9287 16.0046 -155.414 32.3955C-253.15 49.4467 -349.541 106.912 -344.663 183.753L-345.032 183.764C-346.201 165.358 -341.563 147.311 -331.25 130.122C-321.694 114.199 -307.425 99.2199 -288.836 85.6028C-271.323 72.7735 -250.566 61.5559 -227.143 52.2595C-204.402 43.2361 -180.3 36.4666 -155.506 32.1407C-105.67 23.4968 -50.9925 21.8434 7.01022 27.2326C59.1433 32.0757 112.161 42.3626 164.597 57.8124C257.599 85.2701 340.507 128.185 404.354 181.92C407.86 184.874 411.359 187.9 414.747 190.915C439.925 213.335 464.211 239.373 491.173 272.859C499.008 282.577 506.795 292.559 514.327 302.215C530.328 322.721 546.872 343.924 564.941 364.016C566.173 365.389 567.43 366.769 568.669 368.121C626.904 431.405 697.224 473.753 777.677 493.989C860.548 514.579 959.98 512.79 1065.22 488.813C1074.22 486.762 1083.4 484.506 1092.53 482.109C1189.67 456.572 1278.56 414.866 1361.27 374.335C1384.58 362.938 1407.68 351.125 1430.03 339.702C1501.41 303.215 1568.82 268.752 1645.02 245.308C1709.18 225.504 1761.99 223.141 1806.46 238.089C1827.3 245.11 1848 256.117 1869.74 271.734C1888.9 285.504 1906.37 300.969 1923.26 315.923C1933.36 324.868 1942.91 333.317 1952.54 341.178C2047.15 418.898 2143.66 499.721 2239.39 581.406L2239.1 581.572Z" fill="white"/>
<path d="M2235.19 579.123C2140.93 496.989 2046.26 415.266 1953.79 336.223C1944.46 328.271 1935.2 319.671 1925.4 310.567C1893.34 280.788 1857 247.034 1810.57 231.621C1765.67 216.733 1712.87 220.627 1649.15 243.522C1582.39 267.475 1521.06 301.297 1461.74 334.009C1432 350.41 1401.25 367.37 1369.91 383.064C1320.44 407.86 1278.82 426.775 1238.93 442.594C1189.73 462.099 1143.7 476.626 1098.21 487.004C1088.87 489.136 1079.43 491.117 1070.16 492.892C1021.85 502.139 974.403 506.819 929.017 506.821C926.495 506.821 923.988 506.806 921.481 506.777C869.008 506.174 820.164 499.202 776.304 486.058C755.134 479.678 734.403 471.58 714.689 461.987C696.158 452.972 677.948 442.352 660.565 430.425C629.288 408.967 600.051 383.085 571.19 351.304C569.951 349.937 568.716 348.567 567.488 347.191C550.742 328.44 534.899 308.839 519.58 289.882C510.735 278.94 501.592 267.624 492.382 256.609C464.026 222.673 440.005 197.633 414.488 175.424C411.056 172.437 407.52 169.442 403.97 166.52C339.386 113.344 255.925 71.1151 162.616 44.3931C50.1134 12.2119 -63.7941 3.99437 -158.124 21.2509C-254.028 38.8454 -350.294 96.7477 -348.727 173.373L-349.096 173.375C-349.826 137.685 -329.765 103.746 -291.085 75.2303C-273.602 62.3412 -252.955 51.0431 -229.713 41.6427C-207.097 32.4971 -183.044 25.5508 -158.216 20.9962C-108.439 11.8895 -53.7029 9.77601 4.46933 14.7154C56.7278 19.153 109.982 29.0551 162.753 44.1488C256.12 70.8889 339.629 113.144 404.253 166.351C407.804 169.276 411.347 172.273 414.78 175.26C440.308 197.482 464.339 222.53 492.703 256.479C501.913 267.496 511.06 278.813 519.901 289.754C535.22 308.709 551.059 328.307 567.802 347.054C569.029 348.429 570.261 349.799 571.5 351.164C632.828 418.698 699.867 462.744 776.448 485.818C882.517 517.607 994.662 507.076 1070.06 492.643C1079.33 490.867 1088.76 488.889 1098.1 486.757C1202.73 462.887 1298.2 418.69 1369.69 382.854C1401.03 367.165 1431.78 350.204 1461.52 333.806C1520.85 301.089 1582.2 267.257 1648.99 243.293C1677.5 233.048 1703.3 226.757 1727.87 224.064C1758.17 220.741 1786.05 223.206 1810.73 231.389C1831.52 238.292 1852.02 249.387 1873.4 265.307C1892.23 279.335 1909.24 295.133 1925.7 310.414C1935.5 319.515 1944.75 328.113 1954.08 336.06C2046.54 415.102 2141.22 496.825 2235.48 578.959L2235.19 579.123Z" fill="white"/>
<path d="M2231.29 576.674L1955.33 331.099C1946.32 323.079 1937.37 314.352 1927.89 305.116C1896.62 274.632 1861.18 240.083 1814.84 224.924C1770.03 210.267 1715.63 215.846 1653.14 241.507C1593.06 266.175 1538.27 298.98 1485.28 330.707C1450.75 351.387 1415.03 372.769 1378.33 391.588C1268.04 448.152 1171.65 481.56 1074.99 496.729C1034.89 503.02 995.333 506.187 956.971 506.187C945.343 506.187 933.832 505.896 922.443 505.313C868.732 502.568 819.143 493.339 775.058 477.887C734.2 463.563 696.822 443.342 660.801 416.067C632.035 394.287 604.461 368.321 574.025 334.352C557.961 316.424 542.406 297.798 527.363 279.785C493.318 239.022 458.116 196.871 414.533 159.774C347.681 102.875 259.933 58.2543 160.773 30.7343C47.5584 -0.687862 -66.6587 -8.01371 -160.834 10.1085C-252.011 27.6537 -350.972 82.9797 -352.793 162.997L-353.162 162.992C-352.347 127.226 -331.66 93.2926 -293.338 64.86C-258.688 39.152 -211.665 19.6181 -160.93 9.85637C-111.208 0.289613 -56.4128 -2.28665 1.92538 2.20296C54.3092 6.23244 107.799 15.7524 160.909 30.4925C209.975 44.1095 256.574 62.0342 299.416 83.77C342.615 105.688 381.442 131.201 414.813 159.602C458.414 196.712 493.628 238.874 527.681 279.647C542.723 297.657 558.278 316.281 574.339 334.206C618.744 383.771 681.709 444.866 775.224 477.648C882.469 515.241 997.387 508.633 1074.91 496.469C1171.52 481.311 1267.87 447.915 1378.12 391.373C1414.8 372.561 1450.51 351.179 1485.05 330.504C1538.04 298.773 1592.85 265.96 1652.96 241.278C1715.55 215.573 1770.07 209.989 1815 224.685C1835.75 231.472 1856.06 242.664 1877.09 258.904C1895.61 273.2 1912.18 289.346 1928.19 304.96C1937.67 314.196 1946.61 322.918 1955.62 330.936L2231.58 576.51L2231.29 576.674Z" fill="white"/>
<path d="M2229.06 557.795C2158.79 489.419 2098.5 433.934 2039.33 383.186C2010.6 358.533 1981.26 334.268 1952.13 311.064C1943.32 304.045 1934.59 296.578 1925.35 288.673C1902.12 268.804 1878.1 248.258 1850.46 233.011C1835.62 224.809 1821.33 218.937 1806.78 215.058C1762.12 203.035 1709.72 210.984 1651.05 238.689C1620.68 253.005 1593.02 269.297 1569.98 283.346C1545.58 298.219 1521.52 314.62 1498.24 330.48C1464.79 353.28 1430.2 376.853 1393.02 397.099C1370.39 409.456 1347.45 420.496 1324.84 429.918C1279.6 448.765 1231.05 464.296 1180.52 476.077C1149.3 483.276 1117.94 488.717 1087.29 492.247C1060.88 495.278 1034.43 497.028 1008.65 497.447C970.075 498.076 932.49 495.676 896.941 490.308C859.143 484.599 823.372 475.487 790.625 463.222C761.424 452.285 733.843 438.515 706.305 421.12C654.99 388.734 614.062 351.286 584.139 322.279C569.439 307.962 555.086 293.363 541.204 279.244C501.234 238.582 463.48 200.178 416.236 165.969C377.704 138.251 333.741 114.332 285.557 94.8705C248.529 79.9146 208.257 67.6832 165.861 58.5142C155.763 56.3331 145.472 54.3001 135.285 52.4778C91.4258 44.645 42.0505 39.5444 -11.4652 37.3165C-65.4196 35.0184 -112.1 37.0072 -154.164 43.4023C-177.945 46.9899 -200.984 52.6181 -222.652 60.1286C-299.148 86.6451 -348.269 131.159 -354.05 179.206L-354.511 179.178C-352.97 166.369 -348.446 153.753 -341.069 141.675C-334.06 130.202 -324.433 119.138 -312.458 108.789C-289.832 89.2396 -258.847 72.3106 -222.855 59.8348C-201.154 52.3114 -178.077 46.6753 -154.26 43.0826C-112.151 36.6822 -65.4344 34.6909 -11.4357 36.9916C42.1095 39.2195 91.5105 44.3252 135.4 52.1632C145.598 53.9882 155.892 56.0211 165.997 58.2048C208.427 67.379 248.732 79.6208 285.789 94.5897C334.007 114.064 378.007 138.004 416.557 165.74C463.831 199.97 501.592 238.385 541.577 279.057C555.454 293.175 569.808 307.772 584.504 322.086C614.412 351.08 655.322 388.51 706.607 420.876C734.115 438.252 761.668 452.01 790.835 462.933C854.925 486.936 928.202 498.44 1008.64 497.122C1034.39 496.703 1060.83 494.953 1087.22 491.925C1117.84 488.394 1149.18 482.959 1180.37 475.765C1230.87 463.991 1279.4 448.471 1324.61 429.634C1347.2 420.221 1370.12 409.185 1392.73 396.84C1429.9 376.604 1464.48 353.035 1497.92 330.244C1521.2 314.381 1545.27 297.974 1569.68 283.096C1592.73 269.04 1620.4 252.743 1650.79 238.416C1676.91 226.081 1702.21 217.559 1725.98 213.085C1755.18 207.589 1782.42 208.151 1806.94 214.754C1821.54 218.646 1835.86 224.534 1850.74 232.754C1878.42 248.024 1902.46 268.583 1925.7 288.465C1934.94 296.368 1943.67 303.834 1952.48 310.848C1981.62 334.055 2010.96 358.323 2039.69 382.981C2098.87 433.734 2159.16 489.224 2229.44 557.605L2229.06 557.795Z" fill="white"/>
<path d="M2226.84 538.911C2161.69 469.378 2100.54 411.192 2039.9 361.032C2010.33 336.53 1979.72 312.977 1948.93 291.028C1940.76 285.205 1932.7 279.153 1924.16 272.747C1898.59 253.564 1872.15 233.729 1842.53 220.005C1827.58 213.046 1813.25 208.2 1798.72 205.19C1743.08 193.658 1686.57 215.505 1648.95 235.863C1622.3 250.245 1597.96 266.506 1573.3 283.292C1551.72 297.985 1531.42 313.791 1509.92 330.522C1478.02 355.359 1445.03 381.042 1407.7 402.606C1385.54 415.471 1362.42 426.595 1338.98 435.668C1295.31 452.571 1247.48 465.697 1192.78 475.799C1162.16 481.451 1130.81 485.478 1099.59 487.763C1073.24 489.668 1046.95 490.35 1021.43 489.78C983.458 488.943 946.346 485.179 911.113 478.594C874.111 471.676 838.806 461.569 806.18 448.552C777.595 437.15 749.995 423.003 721.801 405.304C670.597 373.206 626.734 337.622 594.245 310.206C582.218 300.057 570.383 289.845 558.935 279.967C513.346 240.628 470.286 203.469 417.94 172.164C378.818 148.767 334.895 128.983 287.4 113.365C251.464 101.546 213.374 92.692 170.96 86.2942C161.171 84.8202 151.213 83.4918 141.365 82.3454C98.11 77.3358 51.946 75.4407 -3.90717 73.4805C-44.1684 71.9961 -96.873 71.0186 -147.505 76.6911C-171.485 79.3271 -194.665 83.9052 -216.407 90.2925C-292.955 112.787 -344.881 152.084 -355.315 195.415L-355.861 195.35C-353.096 183.86 -347.492 172.59 -339.214 161.851C-331.324 151.619 -320.957 141.807 -308.403 132.683C-284.545 115.348 -252.808 100.564 -216.621 89.9312C-194.838 83.5308 -171.614 78.945 -147.594 76.3037C-96.9135 70.6235 -44.1684 71.6036 -3.88138 73.088C51.9902 75.0481 98.169 76.9433 141.453 81.9554C151.309 83.1045 161.274 84.4329 171.074 85.9069C213.529 92.3125 251.656 101.175 287.633 113.006C335.175 128.64 379.135 148.439 418.297 171.86C470.681 203.188 513.759 240.358 559.363 279.712C570.807 289.588 582.642 299.799 594.668 309.946C627.15 337.352 670.995 372.923 722.17 405.005C750.33 422.686 777.901 436.817 806.453 448.206C870.605 473.8 942.943 487.654 1021.44 489.385C1046.94 489.952 1073.21 489.273 1099.53 487.368C1130.72 485.085 1162.05 481.064 1192.64 475.415C1247.3 465.323 1295.08 452.207 1338.72 435.32C1362.13 426.257 1385.22 415.149 1407.35 402.296C1444.65 380.75 1477.63 355.079 1509.52 330.254C1531.02 313.515 1551.33 297.707 1572.92 283.006C1597.59 266.209 1621.94 249.943 1648.62 235.546C1673 222.348 1697.06 212.854 1720.11 207.322C1748.07 200.614 1774.57 199.77 1798.88 204.808C1813.46 207.831 1827.84 212.692 1842.84 219.673C1872.51 233.422 1898.97 253.276 1924.57 272.474C1933.1 278.877 1941.17 284.927 1949.33 290.747C1980.13 312.704 2010.75 336.265 2040.33 360.775C2100.98 410.948 2162.14 469.144 2227.3 538.693L2226.84 538.911Z" fill="white"/>
<path d="M2224.61 520.028C2163.64 448.394 2103.41 389.14 2040.48 338.881C2010.05 314.53 1978.18 291.692 1945.74 270.996C1938.81 266.571 1931.67 261.876 1924.77 257.337C1896.26 238.583 1866.79 219.192 1834.61 207.002C1819.51 201.241 1805.13 197.42 1790.67 195.322C1735.15 187.266 1681.82 211.385 1646.86 233.035C1623.17 247.651 1601.5 264.216 1580.56 280.237L1576.63 283.237C1557.61 297.772 1539.77 313.713 1520.88 330.593C1490.8 357.471 1459.69 385.261 1422.38 408.112C1400.67 421.506 1377.36 432.713 1353.11 441.422C1310.82 456.606 1263.76 467.442 1205.02 475.522C1174.64 479.699 1143.3 482.309 1111.87 483.276C1085.59 484.054 1059.46 483.664 1034.19 482.112C957.687 477.435 886.205 461.208 821.728 433.883C793.855 422.07 766.236 407.551 737.297 389.488C688.324 358.986 644.767 327.635 604.354 298.136C598.935 294.182 593.574 290.254 588.253 286.357C533.057 245.935 480.923 207.754 419.654 178.367C379.655 159.182 335.777 143.537 289.244 131.864C255.081 123.296 218.057 117.478 176.063 114.077C166.599 113.316 156.972 112.689 147.449 112.216C123.491 111.046 98.0808 110.856 71.1773 110.656C49.5682 110.495 27.2255 110.329 3.64761 109.65C-41.8896 108.228 -93.4991 106.619 -140.854 109.988C-165.287 111.727 -188.607 115.252 -210.168 120.467C-286.686 138.977 -341.423 173.061 -356.587 211.643L-357.21 211.521C-353.213 201.348 -346.533 191.425 -337.356 182.027C-328.581 173.04 -317.476 164.477 -304.351 156.577C-279.246 141.467 -246.75 128.833 -210.382 120.036C-188.773 114.808 -165.405 111.275 -140.924 109.533C-93.5212 106.161 -41.8859 107.773 3.66974 109.195C27.2328 109.871 49.5756 110.04 71.1773 110.201C98.0918 110.401 123.509 110.591 147.489 111.764C157.02 112.239 166.658 112.866 176.129 113.628C218.175 117.031 255.243 122.856 289.454 131.438C336.042 143.123 379.968 158.786 420.012 177.993C481.336 207.405 533.495 245.605 588.714 286.045C594.035 289.942 599.399 293.867 604.815 297.824C645.22 327.317 688.763 358.661 737.721 389.153C766.63 407.195 794.22 421.701 822.06 433.498C886.452 460.789 957.842 476.993 1034.25 481.665C1059.49 483.214 1085.59 483.604 1111.84 482.827C1143.24 481.86 1174.55 479.252 1204.89 475.08C1263.58 467.008 1310.58 456.185 1352.81 441.021C1377.02 432.331 1400.28 421.144 1421.95 407.774C1459.22 384.952 1490.3 357.177 1520.37 330.315C1539.27 313.427 1557.12 297.478 1576.15 282.933L1580.08 279.933C1601.04 263.904 1622.71 247.328 1646.43 232.697C1681.5 210.977 1735.02 186.787 1790.79 194.88C1805.32 196.988 1819.75 200.823 1834.91 206.607C1867.16 218.823 1896.67 238.235 1925.2 257.009C1932.1 261.548 1939.24 266.243 1946.17 270.665C1978.62 291.372 2010.51 314.223 2040.95 338.587C2103.91 388.867 2164.16 448.142 2225.15 519.799L2224.61 520.028Z" fill="white"/>
<path d="M2222.39 501.141C2166.4 428.426 2105.4 366.38 2041.06 316.731C2009.78 292.533 1976.63 270.408 1942.55 250.967C1937.63 248.16 1932.59 245.246 1927.71 242.428C1895.5 223.811 1862.19 204.558 1826.71 194.004C1811.48 189.426 1797.06 186.631 1782.63 185.456C1727.27 180.953 1677.11 207.306 1644.78 230.207C1624.7 244.354 1606.58 260.087 1589.06 275.303C1586.03 277.936 1583 280.565 1579.96 283.183C1563.29 297.564 1547.71 313.63 1531.21 330.637C1503.16 359.55 1474.15 389.446 1437.06 413.623C1415.28 427.82 1392.45 438.796 1367.24 447.182C1314.53 464.722 1261.84 471.214 1217.26 475.253C1187.11 477.983 1155.79 479.179 1124.16 478.799C1097.96 478.448 1071.99 476.985 1046.96 474.453C972.752 466.963 902.206 448.381 837.283 419.22C810.269 407.09 782.635 392.194 752.797 373.682C722.657 355.027 694.57 337.076 667.404 319.716C648.944 307.916 631.505 296.771 614.475 286.079C550.101 245.659 491.136 210.122 421.383 184.577C380.525 169.616 336.691 158.105 291.099 150.366C258.421 144.818 223.491 142.117 181.177 141.86C172.048 141.813 162.749 141.888 153.543 142.086C139.559 142.406 125.091 143.074 109.779 143.783C80.3946 145.143 47.0833 146.685 11.2021 145.822C-2.46161 145.491 -16.4019 145.026 -29.8849 144.574C-64.5641 143.412 -100.423 142.211 -134.206 143.284C-159.016 144.075 -182.479 146.549 -203.937 150.641C-280.327 165.212 -337.868 194.087 -357.866 227.88L-358.548 227.68C-353.313 218.83 -345.556 210.257 -335.494 202.195C-325.831 194.453 -313.988 187.141 -300.302 180.462C-273.93 167.594 -240.677 157.109 -204.136 150.14C-182.627 146.037 -159.112 143.555 -134.247 142.764C-100.427 141.688 -64.5531 142.892 -29.8555 144.054C-16.3761 144.506 -2.43582 144.971 11.2242 145.302C47.0722 146.165 80.3577 144.626 109.728 143.266C125.047 142.556 139.518 141.888 153.517 141.568C162.735 141.371 172.04 141.296 181.18 141.342C223.554 141.597 258.536 144.306 291.268 149.861C336.916 157.611 380.809 169.135 421.719 184.117C453.227 195.654 485.156 210.272 519.33 228.803C549.924 245.391 579.685 263.542 614.962 285.691C631.991 296.386 649.431 307.531 667.895 319.331C695.056 336.689 723.143 354.639 753.276 373.292C783.085 391.786 810.689 406.667 837.67 418.784C902.505 447.905 972.951 466.461 1047.05 473.941C1072.05 476.47 1097.99 477.931 1124.16 478.282C1155.76 478.662 1187.05 477.468 1217.16 474.739C1261.68 470.707 1314.3 464.223 1366.92 446.714C1392.05 438.351 1414.83 427.404 1436.56 413.244C1473.58 389.108 1502.57 359.236 1530.59 330.346C1547.1 313.328 1562.7 297.255 1579.38 282.858C1582.42 280.24 1585.44 277.611 1588.48 274.981C1606.01 259.754 1624.14 244.011 1644.24 229.845C1665.28 214.947 1686.86 203.485 1708.38 195.779C1733.88 186.652 1758.88 183.007 1782.7 184.946C1797.2 186.127 1811.69 188.934 1826.98 193.531C1862.56 204.114 1895.91 223.39 1928.16 242.03C1933.04 244.848 1938.08 247.762 1943 250.567C1977.11 270.023 2010.27 292.17 2041.58 316.385C2075.74 342.749 2109.2 372.785 2141.02 405.66C2169.14 434.717 2196.73 466.76 2223.01 500.896L2222.39 501.141Z" fill="white"/>
<path d="M2220.16 482.249C2168.35 407.449 2108.28 344.308 2041.64 294.579C2009.5 270.535 1975.09 249.124 1939.37 230.937C1937.67 230.071 1935.97 229.205 1934.27 228.337C1897.12 209.401 1858.71 189.82 1818.82 181.005C1803.36 177.589 1788.9 175.819 1774.61 175.59C1719.46 174.711 1672.44 203.266 1642.71 227.373C1625.21 241.476 1609.68 256.933 1594.65 271.881C1590.94 275.578 1587.1 279.4 1583.31 283.122C1568.87 297.301 1555.44 313.421 1541.23 330.491C1515.39 361.539 1488.66 393.642 1451.76 419.129C1430.41 433.874 1407.39 444.933 1381.38 452.94C1330.14 468.712 1278.1 472.854 1229.51 474.98C1199.55 476.29 1168.23 476.067 1136.44 474.317C1110.33 472.835 1084.52 470.301 1059.73 466.786C988.045 456.647 918.436 435.71 852.842 404.553C826.573 392.077 799.71 377.243 768.308 357.87C708.628 321.153 664.311 295.291 624.618 274.018C545.67 231.709 485.414 206.817 423.146 190.788C381.458 180.056 337.668 172.681 292.987 168.865C261.987 166.218 229.088 166.455 186.32 169.639C177.556 170.3 168.59 171.077 159.667 171.953C151.239 172.793 142.678 173.755 133.612 174.771C100.138 178.528 62.1962 182.786 18.7716 181.99C-4.11679 181.572 -27.4956 180.425 -50.1038 179.318C-75.798 178.06 -102.366 176.757 -127.555 176.58C-152.81 176.404 -176.418 177.828 -197.702 180.818C-273.837 191.505 -334.192 215.175 -359.149 244.133L-359.857 243.828C-353.375 236.305 -344.541 229.081 -333.602 222.355C-323.043 215.861 -310.471 209.801 -296.232 204.34C-268.572 193.728 -234.557 185.393 -197.865 180.243C-176.521 177.249 -152.862 175.819 -127.548 175.995C-102.336 176.172 -75.7537 177.475 -50.0485 178.736C-27.4477 179.843 -4.07996 180.989 18.79 181.408C62.1372 182.201 100.039 177.948 133.475 174.196C142.545 173.177 151.114 172.218 159.546 171.376C168.479 170.5 177.453 169.722 186.224 169.06C229.059 165.872 262.013 165.633 293.079 168.287C337.823 172.109 381.675 179.495 423.422 190.242C485.776 206.292 546.094 231.21 625.112 273.556C664.82 294.836 709.152 320.706 768.847 357.434C800.226 376.791 827.059 391.609 853.299 404.072C918.805 435.185 988.311 456.094 1059.88 466.217C1084.65 469.726 1110.43 472.256 1136.5 473.738C1168.25 475.484 1199.53 475.708 1229.45 474.4C1277.97 472.277 1329.92 468.146 1381.05 452.41C1406.96 444.434 1429.9 433.412 1451.17 418.718C1487.99 393.286 1514.69 361.216 1540.51 330.202C1554.73 313.123 1568.16 296.989 1582.63 282.79C1586.42 279.07 1590.26 275.248 1593.97 271.551C1609 256.59 1624.55 241.122 1642.08 226.996C1661.48 211.263 1681.82 198.818 1702.54 190.005C1726.81 179.682 1751.06 174.641 1774.62 175.013C1789 175.242 1803.53 177.022 1819.06 180.454C1859.09 189.301 1897.55 208.907 1934.75 227.872C1936.45 228.74 1938.16 229.608 1939.85 230.471C1975.62 248.679 2010.06 270.116 2042.24 294.187C2108.94 343.96 2169.05 407.15 2220.9 482.002L2220.16 482.249Z" fill="white"/>
<path d="M1247.85 474.71C1245.79 474.71 1243.75 474.708 1241.74 474.7C1211.93 474.611 1180.63 472.974 1148.71 469.828C1122.7 467.215 1097.05 463.61 1072.49 459.115C1037.39 452.704 1002.16 443.491 967.781 431.733C934.581 420.377 901.144 406.297 868.397 389.881C836.31 373.796 806.339 355.874 783.812 342.057C731.103 309.816 680.954 282.868 634.757 261.959C559.934 228.096 493.256 207.452 424.912 196.993C383.681 190.684 339.445 187.356 296.854 187.356C296.194 187.356 295.538 187.356 294.878 187.359C258.289 187.447 223.55 192.241 191.467 197.409C183.116 198.764 174.477 200.243 165.791 201.811C161.031 202.679 156.264 203.573 151.22 204.519C115.645 211.203 75.3213 218.776 26.3332 218.155C-3.50137 217.775 -33.9738 215.597 -63.4434 213.488C-82.4716 212.126 -102.145 210.72 -120.911 209.87C-146.709 208.702 -170.449 209.077 -191.479 210.987C-267.209 217.861 -330.377 236.329 -360.458 260.391L-361.151 259.962C-345.722 247.622 -322.512 236.937 -292.169 228.202C-263.19 219.863 -228.411 213.686 -191.597 210.345C-170.512 208.432 -146.709 208.052 -120.852 209.225C-102.068 210.075 -82.3831 211.484 -63.3475 212.846C-33.8964 214.954 -3.44241 217.133 26.3516 217.51C75.2144 218.131 115.468 210.569 150.984 203.898C156.032 202.949 160.799 202.055 165.562 201.187C174.256 199.619 182.902 198.137 191.26 196.783C223.399 191.607 258.196 186.805 294.874 186.714C338.144 186.608 383.172 189.946 425.107 196.364C460.38 201.764 494.576 209.711 529.642 220.661C563.415 231.208 597.961 244.539 635.251 261.418C681.485 282.343 731.671 309.312 784.412 341.574C806.921 355.383 836.87 373.292 868.924 389.358C935.374 422.67 1003.94 445.929 1072.72 458.494C1097.25 462.983 1122.86 466.584 1148.84 469.194C1180.72 472.334 1211.97 473.972 1241.74 474.058C1288.32 474.193 1342.41 473.085 1395.16 458.098C1421.86 450.513 1444.96 439.42 1465.78 424.188C1502.34 397.438 1526.58 363.104 1550.03 329.899C1562.09 312.819 1573.48 296.685 1585.86 282.72C1589.83 278.246 1593.83 273.637 1597.7 269.178C1610.78 254.116 1624.31 238.544 1639.89 224.149C1657.7 207.59 1676.81 194.157 1696.68 184.226C1719.73 172.713 1743.22 166.271 1766.51 165.08C1780.89 164.344 1795.48 165.096 1811.12 167.378C1852.93 173.477 1894.38 191.196 1936.69 210.374C1973.58 227.095 2010.3 248.399 2042.87 271.986C2079.05 298.11 2113.05 328.757 2143.91 363.075C2171.41 393.65 2196.59 427.305 2218.77 463.108L2217.93 463.368C2170.3 386.48 2111.18 322.243 2042.21 272.441C2009.68 248.888 1973.02 227.615 1936.19 210.922C1893.95 191.778 1852.59 174.093 1810.93 168.015C1795.37 165.745 1780.87 164.999 1766.58 165.73C1723.79 167.921 1679.05 188.807 1640.62 224.545C1625.07 238.913 1611.56 254.472 1598.49 269.519C1594.62 273.98 1590.61 278.592 1586.64 283.066C1574.28 297.005 1562.9 313.126 1550.85 330.19C1539.35 346.482 1527.46 363.33 1513.81 379.526C1498.33 397.888 1482.84 412.643 1466.45 424.641C1445.54 439.94 1422.33 451.082 1395.51 458.704C1371.85 465.427 1346.42 469.87 1317.77 472.293C1293.51 474.333 1269.14 474.71 1247.85 474.71Z" fill="white"/>
<path d="M1306.98 476.012C1288.18 476.012 1270.12 475.222 1253.96 474.421C1224.26 472.95 1192.97 469.895 1160.98 465.341C1135.07 461.6 1109.59 456.926 1085.23 451.443C1018.54 436.461 952.695 411.523 883.938 375.208C853.952 359.373 825.684 342.335 799.308 326.243C747.234 294.566 695.285 268.882 644.896 249.899C570.789 221.981 501.452 207.14 426.689 203.193C384.09 200.945 339.169 201.862 296.777 205.845C261.294 209.178 227.842 217.221 196.614 225.171C188.801 227.17 180.491 229.354 171.919 231.66C169.777 232.239 167.616 232.83 165.426 233.425C129.46 243.231 88.7641 254.326 36.5352 254.326C35.654 254.326 34.7765 254.324 33.888 254.316C-1.44751 254.064 -37.524 250.507 -72.4171 247.065C-86.2504 245.7 -100.556 244.291 -114.282 243.15C-141.093 240.925 -164.314 240.267 -185.274 241.146C-261.508 244.343 -325.856 257.279 -361.811 276.644L-362.427 276.075C-344.652 266.503 -318.951 258.192 -288.109 252.041C-257.773 245.992 -222.235 241.978 -185.336 240.431C-164.317 239.55 -141.038 240.207 -114.168 242.438C-100.427 243.579 -86.1177 244.991 -72.2807 246.353C-37.4208 249.79 -1.37744 253.343 33.8917 253.596C87.2083 253.98 128.568 242.7 165.054 232.752C167.24 232.156 169.404 231.566 171.547 230.984C180.126 228.675 188.44 226.492 196.26 224.492C227.54 216.527 261.054 208.473 296.633 205.13C339.091 201.142 384.087 200.222 426.755 202.473C463.805 204.428 499.13 209.045 534.745 216.584C571.427 224.349 607.61 235.037 645.364 249.262C695.816 268.271 747.831 293.987 799.96 325.695C826.326 341.781 854.575 358.809 884.535 374.628C953.2 410.894 1018.95 435.796 1085.53 450.754C1109.85 456.226 1135.3 460.895 1161.17 464.631C1193.12 469.181 1224.36 472.233 1254.02 473.699C1303.94 476.168 1357.04 477.437 1409.27 463.771C1436.76 456.577 1460.02 445.414 1480.38 429.642C1516.65 401.548 1539.23 363.226 1559.15 329.415C1569.17 312.403 1578.63 296.334 1589.08 282.637C1592.85 277.695 1596.64 272.586 1600.31 267.647C1611.78 252.192 1623.65 236.212 1637.69 221.287C1653.94 203.9 1671.81 189.48 1690.82 178.426C1712.64 165.732 1735.38 157.892 1758.39 155.128C1772.77 153.399 1787.42 153.124 1803.15 154.278C1847.12 157.51 1891.79 173.477 1933.51 190.252C1972.03 205.741 2010.06 226.32 2043.5 249.764C2080.69 275.766 2114.95 306.72 2145.34 341.761C2172.51 373.097 2196.5 407.558 2216.63 444.193L2215.69 444.45C2172.89 366.58 2113.1 299.433 2042.79 250.268C2009.42 226.869 1971.46 206.329 1933.01 190.871C1891.39 174.134 1846.84 158.206 1803.05 154.988C1787.41 153.839 1772.86 154.114 1758.57 155.83C1716.08 160.933 1673.46 184.317 1638.54 221.677C1624.53 236.57 1612.68 252.535 1601.21 267.974C1597.55 272.916 1593.75 278.025 1589.98 282.972C1579.56 296.638 1570.1 312.691 1560.09 329.685C1540.13 363.548 1517.52 401.932 1481.13 430.121C1460.66 445.979 1437.27 457.204 1409.63 464.439C1385.64 470.714 1359.76 474.349 1330.52 475.542C1322.61 475.88 1314.73 476.012 1306.98 476.012Z" fill="white"/>
<path d="M1344.09 478.828C1343.82 478.828 1343.55 478.828 1343.28 478.828C1316.72 478.781 1290.63 476.488 1266.19 474.143C1236.52 471.299 1205.26 466.825 1173.24 460.851C1147.46 455.987 1122.13 450.24 1097.99 443.772C1033.96 426.648 970.886 400.201 899.489 360.538C873.776 346.258 848.473 330.881 823.999 316.014C820.939 314.152 817.875 312.294 814.811 310.435C762.468 278.766 708.716 254.342 655.053 237.844C581.569 215.256 507.458 205.949 428.484 209.394C385.181 211.284 340.3 216.449 298.693 224.331C265.865 230.552 236.613 240.532 201.779 252.933C194.719 255.457 187.179 258.182 178.057 261.509L177.548 261.696C159.951 268.159 140.005 275.482 117.632 281.051C91.9381 287.446 67.0109 290.524 41.4494 290.488C1.59009 290.417 -39.0877 285.187 -78.4235 280.125C-88.0612 278.885 -98.0306 277.604 -107.653 276.444C-135.25 273.124 -158.61 271.448 -179.069 271.32C-254.4 270.852 -321.51 278.724 -363.187 292.913L-363.666 292.211C-343.252 285.26 -315.714 279.618 -284.032 275.896C-252.291 272.165 -215.99 270.314 -179.058 270.543C-158.54 270.67 -135.121 272.35 -107.465 275.677C-97.8352 276.837 -87.8657 278.118 -78.2244 279.358C-38.9366 284.412 1.68964 289.638 41.4531 289.708C41.6301 289.708 41.8107 289.708 41.9877 289.708C98.8659 289.708 142.198 273.798 177.04 261.005L177.552 260.818C186.677 257.487 194.217 254.763 201.281 252.239C236.174 239.818 265.478 229.819 298.409 223.58C340.086 215.682 385.041 210.509 428.418 208.616C467.064 206.932 503.517 208.216 539.866 212.547C579.036 217.213 616.86 225.254 655.495 237.132C709.262 253.661 763.106 278.124 815.534 309.845C818.598 311.703 821.661 313.565 824.721 315.426C849.184 330.288 874.48 345.66 900.171 359.93C971.476 399.543 1034.46 425.953 1098.38 443.049C1122.49 449.509 1147.78 455.246 1173.53 460.105C1205.5 466.071 1236.72 470.538 1266.33 473.377C1319.38 478.467 1371.31 481.997 1423.4 469.477C1451.68 462.681 1475.09 451.448 1494.99 435.133C1530.94 405.661 1550.58 364.822 1567.91 328.788C1576.02 311.919 1583.68 295.983 1592.32 282.592C1595.65 277.44 1598.98 272.111 1602.21 266.955C1612.3 250.838 1622.73 234.174 1635.52 218.461C1650.24 200.24 1666.88 184.829 1684.97 172.658C1705.59 158.786 1727.56 149.552 1750.28 145.216C1764.37 142.528 1778.74 141.218 1794.19 141.218C1794.53 141.218 1794.86 141.218 1795.2 141.22C1843.23 141.397 1892.65 156.782 1930.34 170.165C1970.5 184.424 2009.85 204.275 2044.14 227.573C2082.35 253.455 2116.88 284.714 2146.79 320.483C2173.63 352.581 2196.42 387.85 2214.51 425.317L2213.47 425.569C2186.53 369.822 2135.16 290.319 2043.38 228.137C2009.16 204.891 1969.91 185.087 1929.85 170.861C1892.26 157.515 1842.99 142.174 1795.2 142C1779.46 141.935 1764.87 143.24 1750.57 145.97C1708.48 154.005 1667.96 179.888 1636.47 218.849C1623.71 234.525 1613.3 251.17 1603.22 267.27C1599.99 272.428 1596.65 277.76 1593.33 282.915C1584.71 296.272 1577.05 312.187 1568.95 329.038C1551.59 365.137 1531.92 406.053 1495.83 435.64C1475.8 452.064 1452.22 463.373 1423.76 470.213C1399.64 476.007 1373.56 478.828 1344.09 478.828Z" fill="white"/>
<path d="M1373.59 482.488C1367.87 482.488 1362.02 482.358 1356.04 482.098C1329.83 480.962 1304.36 477.553 1278.41 473.862C1248.32 469.583 1217.93 463.859 1185.51 456.361C1159.85 450.377 1134.7 443.56 1110.73 436.097C1049.95 417.192 989.594 389.363 915.041 345.865C896.525 335.063 878.016 323.734 860.116 312.777C850.372 306.813 840.299 300.644 830.319 294.62C777.352 262.738 721.805 239.58 665.218 225.787C590.451 207.56 513.608 204.222 430.291 215.583C386.273 221.586 341.433 230.999 300.622 242.804C267.838 252.288 239.279 265.606 209.043 279.706L206.952 280.681C202.229 282.891 197.455 285.132 192.621 287.399C189.838 288.706 187.036 290.022 184.208 291.347C166.577 299.659 147.534 308.328 125.696 315.002C100.341 322.749 75.2627 326.56 49.0192 326.654C5.32919 326.804 -39.2346 319.645 -82.3274 312.714C-88.4772 311.724 -94.8408 310.702 -101.016 309.732C-129.97 305.183 -152.796 302.565 -172.86 301.489C-246.901 297.519 -316.775 300.316 -364.572 309.166L-364.878 308.349C-316.956 299.477 -246.937 296.669 -172.768 300.646C-152.648 301.725 -129.763 304.351 -100.755 308.908C-94.5753 309.88 -88.2117 310.902 -82.0583 311.893C-39.4927 318.738 4.50702 325.811 47.6182 325.811C48.0828 325.811 48.5473 325.811 49.0156 325.809C104.777 325.611 144.47 309.062 183.548 290.646C186.376 289.32 189.178 288.004 191.961 286.697C196.795 284.427 201.566 282.189 206.292 279.977L208.383 279.002C238.671 264.878 267.278 251.536 300.169 242.021C341.053 230.193 385.971 220.764 430.066 214.751C513.594 203.362 590.643 206.71 665.613 224.986C722.34 238.816 778.016 262.026 831.1 293.978C841.081 300.004 851.157 306.171 860.902 312.137C878.794 323.092 897.299 334.419 915.804 345.213C990.269 388.661 1050.54 416.451 1111.22 435.325C1135.15 442.775 1160.27 449.584 1185.88 455.558C1218.26 463.045 1248.6 468.761 1278.64 473.033C1324.25 479.519 1381.01 487.593 1437.54 475.157C1466.6 468.764 1490.17 457.461 1509.6 440.599C1545.21 409.715 1561.71 366.278 1576.28 327.956C1582.61 311.308 1588.58 295.582 1595.56 282.532C1598.28 277.447 1601 272.188 1603.63 267.1C1612.47 250.039 1621.6 232.398 1633.33 215.619C1646.57 196.551 1661.97 180.149 1679.11 166.87C1698.53 151.824 1719.74 141.199 1742.16 135.29C1756.55 131.497 1771.29 129.16 1787.24 128.143C1808.59 126.781 1831.32 128.237 1856.72 132.583C1878.22 136.265 1901.26 141.979 1927.17 150.056C1968.96 163.083 2009.63 182.208 2044.78 205.364C2084 231.124 2118.81 262.691 2148.23 299.185C2174.73 332.048 2196.32 368.126 2212.39 406.422L2211.24 406.661C2177.3 325.811 2117.89 254.541 2043.96 205.982C2008.91 182.89 1968.35 163.818 1926.69 150.83C1870.86 133.428 1826.59 126.485 1787.34 128.986C1771.51 129.994 1756.86 132.316 1742.58 136.08C1689.25 150.136 1654.32 187.296 1634.41 215.991C1622.7 232.728 1613.58 250.348 1604.76 267.389C1602.12 272.479 1599.4 277.741 1596.68 282.828C1589.73 295.84 1583.76 311.547 1577.44 328.174C1562.84 366.579 1546.3 410.108 1510.53 441.132C1490.95 458.126 1467.18 469.521 1437.89 475.965C1418.04 480.333 1396.86 482.488 1373.59 482.488Z" fill="white"/>
<path d="M1399.16 486.684C1360.17 486.684 1322.68 479.621 1290.62 473.579C1260.45 467.896 1230.07 460.794 1197.76 451.869C1172.25 444.772 1147.26 436.885 1123.48 428.423C1052.19 403.087 988.638 366.72 930.584 331.193C918.731 323.94 906.755 316.463 895.178 309.234C879.104 299.194 862.479 288.813 845.822 278.81C792.063 246.613 734.72 224.716 675.39 213.727C598.639 199.515 519.057 202.143 432.097 221.765C387.323 231.868 342.527 245.529 302.55 261.272C271.716 273.413 245.627 288.741 218.009 304.968C216.051 306.117 214.09 307.271 212.117 308.425L211.048 309.054C204.334 313.003 197.391 317.085 190.353 321.182C173.489 331.042 154.918 341.241 133.438 349.032C108.503 358.076 83.3659 362.587 56.5804 362.821C9.56482 363.234 -38.3541 353.914 -84.6914 344.901C-87.9395 344.269 -91.173 343.64 -94.3917 343.019C-124.949 337.107 -147.24 333.603 -166.663 331.653C-238.845 324.41 -311.492 322.133 -365.978 325.406L-366.088 324.499C-311.515 321.218 -238.761 323.498 -166.482 330.751C-147.004 332.706 -124.665 336.218 -94.0525 342.14C-90.8338 342.762 -87.6004 343.391 -84.3485 344.025C-38.0997 353.02 9.72705 362.316 56.562 361.911C114.731 361.401 155.696 340.258 189.527 320.48C196.566 316.383 203.508 312.301 210.222 308.355L211.291 307.726C213.264 306.569 215.225 305.417 217.183 304.268C244.85 288.013 270.982 272.659 301.919 260.477C341.97 244.705 386.851 231.02 431.703 220.9C472.93 211.598 511.654 206.227 550.082 204.48C592.95 202.533 635.217 205.349 675.714 212.849C735.232 223.871 792.745 245.83 846.655 278.116C863.323 288.124 879.952 298.507 896.03 308.55C907.607 315.78 919.575 323.254 931.425 330.504C989.42 365.992 1052.89 402.32 1124.05 427.609C1147.8 436.058 1172.76 443.935 1198.23 451.022C1230.49 459.934 1260.82 467.025 1290.94 472.7C1337.2 481.414 1394.77 492.26 1451.65 480.848C1481.5 474.858 1505.23 463.485 1524.2 446.077C1559.43 413.74 1572.61 367.63 1584.25 326.945C1588.92 310.598 1593.33 295.159 1598.78 282.481C1600.79 277.791 1602.81 272.945 1604.76 268.258C1612.41 249.925 1620.32 230.966 1631.13 212.786C1642.9 192.855 1657.06 175.458 1673.22 161.084C1691.46 144.865 1711.91 132.849 1734.02 125.37C1748.38 120.514 1763.17 117.147 1779.25 115.075C1800.92 112.286 1824.95 112.379 1850.7 115.353C1873.25 117.958 1897.9 122.869 1923.98 129.953C1967.39 141.748 2009.38 160.146 2045.4 183.158C2085.64 208.798 2120.72 240.67 2149.66 277.892C2175.81 311.519 2196.19 348.408 2210.25 387.533L2209 387.756C2179.22 304.853 2120.81 232.432 2044.54 183.834C2008.63 160.897 1966.79 142.559 1923.52 130.803C1867.43 115.567 1820.31 110.713 1779.48 115.972C1763.52 118.028 1748.83 121.372 1734.58 126.191C1681.98 143.986 1649.94 183.293 1632.32 213.137C1621.54 231.27 1613.64 250.203 1606 268.513C1604.05 273.2 1602.02 278.048 1600.01 282.743C1594.59 295.38 1590.18 310.799 1585.51 327.125C1579.91 346.697 1573.57 368.88 1564.37 389.678C1553.82 413.506 1541.01 432.135 1525.22 446.631C1516.09 455.012 1505.6 462.146 1494.03 467.834C1481.59 473.951 1467.45 478.625 1452 481.724C1434.33 485.272 1416.59 486.684 1399.16 486.684Z" fill="white"/>
<path d="M1422.2 491.288C1409.31 491.288 1395.81 490.404 1381.54 488.639C1353.45 485.163 1326.56 478.856 1302.83 473.295C1272.92 466.284 1241.69 457.562 1210.02 447.374C1184.67 439.175 1159.84 430.216 1136.22 420.743C1068.43 393.585 1010.02 357.473 946.128 316.518C940.45 312.878 934.684 309.166 929.109 305.573C907.154 291.433 884.453 276.813 861.325 262.998C806.674 230.424 747.539 209.791 685.562 201.67C607.385 191.424 522.711 200.263 433.904 227.944C388.334 242.149 343.578 260.055 304.478 279.732C275.038 294.548 250.804 312.015 225.147 330.509C222.54 332.388 219.922 334.273 217.29 336.166C210.738 340.882 203.681 345.943 196.503 351.01C181.449 361.671 163.103 373.819 141.184 383.056C116.648 393.397 91.4478 398.61 64.1498 398.987C14.1772 399.681 -36.6912 388.013 -85.8858 376.731L-87.7588 376.302C-111.845 370.78 -137.326 365.201 -160.458 361.814C-230.966 351.491 -304.45 344.324 -367.368 341.633L-367.283 340.661C-304.299 343.354 -230.749 350.526 -160.177 360.86C-136.979 364.258 -111.455 369.844 -87.3311 375.374L-85.4581 375.803C-36.3705 387.059 14.3948 398.698 64.124 398.009C121.555 397.214 161.219 374.617 195.526 350.316C202.704 345.252 209.754 340.19 216.305 335.477C218.938 333.587 221.556 331.7 224.162 329.823C249.864 311.297 274.142 293.799 303.678 278.934C342.852 259.218 387.692 241.278 433.347 227.048C475.013 214.062 516.015 205.114 555.207 200.456C599.989 195.134 643.933 195.217 685.82 200.705C748.033 208.858 807.386 229.564 862.221 262.25C885.368 276.077 908.079 290.703 930.046 304.85C935.62 308.44 941.387 312.153 947.065 315.792C1010.9 356.708 1069.24 392.781 1136.91 419.893C1160.49 429.351 1185.29 438.296 1210.6 446.485C1242.23 456.658 1273.41 465.366 1303.27 472.367C1350.08 483.343 1408.34 496.999 1465.79 486.535C1496.43 480.954 1520.32 469.513 1538.81 451.554C1573.66 417.72 1583.74 366.722 1591.84 325.744C1595 309.782 1597.98 294.706 1602.02 282.436C1603.29 278.568 1604.58 274.582 1605.82 270.727C1612.27 250.699 1618.95 229.988 1628.96 209.96C1644.42 178.793 1673.79 137.099 1725.9 115.462C1740.29 109.488 1755.14 105.09 1771.29 102.017C1813.54 93.8616 1863.85 96.5002 1920.81 109.855C1965.85 120.417 2009.16 138.087 2046.04 160.956C2087.3 186.475 2122.65 218.653 2151.11 256.606C2164.17 274.013 2175.7 292.606 2185.41 311.867C2194.68 330.265 2202.32 349.369 2208.14 368.651L2206.78 368.854C2181.17 283.892 2123.76 210.319 2045.13 161.687C2008.38 138.903 1965.24 121.301 1920.37 110.778C1863.67 97.4829 1813.64 94.852 1771.65 102.955C1755.62 106.005 1740.89 110.369 1726.6 116.299C1674.84 137.785 1645.65 179.266 1630.27 210.28C1620.28 230.255 1613.62 250.938 1607.17 270.94C1605.93 274.796 1604.64 278.783 1603.37 282.654C1599.34 294.883 1596.36 309.938 1593.21 325.876C1589.14 346.497 1584.52 369.868 1576.62 391.926C1567.54 417.273 1555.54 436.965 1539.93 452.126C1531.02 460.775 1520.6 468.07 1508.97 473.805C1496.43 479.984 1482.02 484.586 1466.14 487.477C1452.2 490.019 1437.64 491.288 1422.2 491.288Z" fill="white"/>
<path d="M1443.44 496.15C1427.99 496.15 1411.7 494.738 1394.3 491.907C1366.1 487.324 1338.97 479.717 1315.03 473.005C1284.9 464.556 1253.69 454.42 1222.27 442.875C1197.09 433.581 1172.42 423.551 1148.96 413.062C1084.39 384.218 1029.02 347.043 970.388 307.69C967.486 305.742 964.585 303.793 961.676 301.843C934.411 283.562 906.221 264.657 876.832 247.188C821.23 214.2 760.303 194.828 695.745 189.608C614.655 183.049 527.168 198.025 435.71 234.117C389.963 252.169 344.042 274.923 306.406 298.188C277.987 315.754 255.195 335.519 231.064 356.446C228.206 358.924 225.342 361.409 222.455 363.899C216.689 368.883 209.827 374.792 202.645 380.836C189.343 392.059 171.218 406.321 148.927 417.05C124.781 428.673 99.5255 434.597 71.715 435.156C48.8561 435.559 23.6302 433.071 -5.40805 427.547C-30.339 422.805 -54.4552 416.608 -81.1411 409.589C-105.501 403.102 -131.21 396.403 -154.275 391.978C-222.597 378.871 -294.765 367.393 -368.769 357.858L-368.504 356.836C-294.455 366.374 -222.247 377.862 -153.888 390.975C-130.76 395.413 -105.014 402.122 -80.625 408.614C-35.8952 420.382 19.7737 435.034 71.6745 434.116C131.012 432.921 169.146 407.48 201.513 380.166C208.692 374.127 215.549 368.22 221.312 363.239C224.199 360.749 227.064 358.263 229.917 355.789C254.089 334.827 276.922 315.028 305.433 297.405C343.146 274.094 389.155 251.295 434.991 233.209C526.726 197.009 614.515 181.993 695.915 188.576C727.125 191.1 757.781 196.962 787.026 205.999C818.406 215.693 848.941 229.286 877.783 246.395C907.205 263.883 935.414 282.798 962.693 301.092C965.602 303.044 968.507 304.991 971.409 306.938C1029.98 346.258 1085.31 383.397 1149.75 412.186C1173.18 422.66 1197.81 432.676 1222.96 441.954C1254.33 453.481 1285.49 463.604 1315.58 472.04C1362.87 485.298 1421.73 501.799 1479.92 492.229C1511.44 487.046 1535.49 475.534 1553.41 457.04C1587.95 421.716 1594.1 367.755 1599.04 324.398C1600.81 308.891 1602.48 294.244 1605.25 282.4C1605.82 279.956 1606.39 277.5 1606.96 275.03C1612.13 252.722 1617.48 229.653 1626.77 207.14C1640.04 174.758 1666.59 130.85 1717.77 105.561C1732.04 98.5051 1746.94 93.077 1763.31 88.9643C1786.06 83.1957 1811.42 80.4842 1838.67 80.9002C1863.54 81.2797 1890.11 84.2615 1917.62 89.7598C1964.29 99.0848 2008.91 116.027 2046.67 138.753C2088.94 164.147 2124.57 196.637 2152.54 235.318C2165.38 253.065 2176.5 272.04 2185.58 291.715C2194.28 310.557 2201.16 330.091 2206 349.773L2204.55 349.95C2183.44 264.184 2125.54 187.494 2045.71 139.543C2008.12 116.916 1963.68 100.044 1917.21 90.7555C1859.91 79.3014 1806.87 79.0206 1763.8 89.9392C1747.55 94.0207 1732.77 99.4072 1718.61 106.408C1667.79 131.523 1641.39 175.206 1628.19 207.426C1618.92 229.879 1613.58 252.915 1608.42 275.194C1607.85 277.663 1607.27 280.123 1606.7 282.566C1603.94 294.366 1602.27 308.995 1600.51 324.478C1595.55 367.96 1589.38 422.077 1554.62 457.628C1545.98 466.542 1535.65 474.003 1523.91 479.798C1511.29 486.032 1496.6 490.555 1480.26 493.243C1468.46 495.177 1456.24 496.15 1443.44 496.15Z" fill="white"/>
<path d="M1463.39 501.212C1445.79 501.212 1427.14 499.205 1407.05 495.175C1378.61 489.474 1351.31 480.57 1327.23 472.717C1296.8 462.791 1265.61 451.236 1234.52 438.378C1209.51 428.005 1185.02 416.902 1161.69 405.383C1104.26 377.026 1055.18 342.286 1003.21 305.506C994.715 299.493 985.929 293.277 977.213 287.166C946.574 265.692 920.412 247.986 892.329 231.377C835.734 197.953 773.02 179.841 705.922 177.543C621.609 174.655 531.298 195.764 437.503 240.283C390.907 262.401 345.027 289.516 308.317 316.635C280.661 337.066 259.041 359.306 236.152 382.851C233.317 385.768 230.471 388.695 227.606 391.625C222.503 396.853 215.749 403.742 208.777 410.65C179.436 439.787 141.104 469.784 79.2701 471.318C77.3419 471.362 75.4062 471.383 73.4743 471.383C25.1904 471.383 -24.1038 457.909 -74.5335 442.865L-77.6822 441.918C-102.661 434.4 -126.257 427.3 -148.099 422.132C-230.409 402.656 -310.014 386.215 -370.169 374.07L-369.738 373.007C-309.567 385.157 -229.941 401.6 -147.601 421.085C-125.701 426.266 -102.079 433.376 -77.0665 440.902L-73.9215 441.848C-21.6446 457.444 29.4082 471.354 79.2148 470.216C140.362 468.698 178.375 438.931 207.498 410.013C214.466 403.111 221.213 396.227 226.316 391.001C229.18 388.069 232.023 385.144 234.858 382.228C257.784 358.646 279.437 336.369 307.181 315.874C343.965 288.697 389.938 261.528 436.625 239.366C479.958 218.797 523.305 203.004 565.461 192.421C613.83 180.278 661.115 174.902 705.995 176.438C773.44 178.747 836.472 196.947 893.332 230.527C921.455 247.162 947.644 264.886 978.312 286.378C987.031 292.49 995.817 298.708 1004.32 304.721C1056.23 341.465 1105.27 376.17 1162.59 404.47C1185.88 415.976 1210.34 427.061 1235.3 437.418C1266.35 450.261 1297.5 461.798 1327.89 471.708C1375.59 487.267 1434.96 506.629 1494.04 497.912C1526.34 493.147 1550.53 481.568 1568 462.516C1602.1 425.582 1604.15 368.584 1605.8 322.786C1606.34 307.843 1606.85 293.727 1608.47 282.354L1608.51 282.094C1612.16 256.625 1615.93 230.29 1624.57 204.307C1632.06 181.643 1642.49 161.267 1655.57 143.74C1670.32 123.98 1688.5 107.799 1709.62 95.6458C1723.75 87.5141 1738.7 81.0539 1755.31 75.8988C1800.21 61.8892 1855.22 59.7263 1914.41 69.6492C1938.24 73.6423 1961.73 79.6917 1984.26 87.6258C2006.91 95.6068 2028.12 105.337 2047.29 116.542C2090.59 141.813 2126.49 174.611 2153.98 214.024C2178.69 249.45 2195.94 289.861 2203.87 330.887L2202.31 331.035C2185.35 243.229 2128.48 165.358 2046.29 117.392C2007.85 94.9257 1962.13 78.787 1914.06 70.7306C1855.2 60.8649 1800.53 63.0044 1755.95 76.9178C1739.46 82.034 1724.64 88.4421 1710.62 96.5089C1671.19 119.201 1641.96 156.566 1626.1 204.564C1617.48 230.48 1613.72 256.778 1610.07 282.211L1610.04 282.471C1608.41 293.803 1607.91 307.898 1607.37 322.82C1605.71 368.759 1603.65 425.928 1569.31 463.121C1560.89 472.308 1550.63 479.931 1538.83 485.775C1526.1 492.076 1511.14 496.524 1494.36 499.002C1484.37 500.473 1474.07 501.212 1463.39 501.212Z" fill="white"/>
<path d="M80.4165 507.577C58.8259 507.577 35.3144 504.611 8.7796 498.554C-17.5856 492.536 -43.6595 484.227 -67.9121 476.147C-72.3032 474.676 -76.6611 473.207 -80.9896 471.749C-102.536 464.488 -122.888 457.63 -141.909 452.288C-217.752 430.994 -290.045 411.855 -359.961 393.351L-371.545 390.283L-370.962 389.189L-359.378 392.256C-289.459 410.766 -217.155 429.904 -141.297 451.203C-122.224 456.559 -101.847 463.424 -80.2743 470.696C-75.9496 472.154 -71.5916 473.623 -67.2042 475.092C-17.4197 491.678 35.4729 507.751 86.7727 506.319C149.834 504.468 187.625 469.83 213.5 439.864C220.129 432.2 226.514 424.562 231.337 418.765C233.999 415.57 236.642 412.377 239.279 409.193C261.142 382.793 281.793 357.857 308.95 334.346C344.798 303.316 390.726 271.772 438.28 245.528C482.398 221.18 526.918 201.943 570.608 188.351C620.72 172.761 669.668 164.671 716.09 164.305C785.942 163.571 850.821 180.516 908.898 214.663C941.092 233.614 969.957 254.115 993.951 271.671C1007.01 281.224 1020.06 291.017 1032.69 300.488C1077.39 334.016 1123.61 368.682 1175.44 396.761C1198.59 409.307 1222.9 421.463 1247.67 432.889C1278.33 446.997 1309.46 459.949 1340.21 471.382C1388.27 489.252 1448.08 511.492 1508.18 503.6C1541.25 499.256 1565.6 487.609 1582.61 467.995C1616.25 429.387 1613.98 369.267 1612.15 320.96C1611.61 306.675 1611.1 293.18 1611.72 282.316C1613.1 257.825 1615.18 229.361 1622.4 201.482C1628.48 177.859 1637.66 156.487 1649.69 137.962C1663.29 117.006 1680.72 99.4378 1701.49 85.7427C1715.26 76.6673 1730.68 68.9645 1747.34 62.8449C1771.1 54.084 1797.77 48.5753 1826.61 46.4748C1853.61 44.5069 1882.08 45.5415 1911.22 49.5476C1935.81 52.9272 1960.03 58.4853 1983.23 66.0711C2006.58 73.7037 2028.35 83.2132 2047.92 94.3346C2070.5 107.141 2091.25 122.263 2109.61 139.283C2127 155.409 2142.42 173.393 2155.43 192.734C2179.77 228.919 2195.78 270.165 2201.74 312.007L2200.09 312.124C2187.29 222.272 2131.45 143.224 2046.88 95.2471C2008.15 73.2487 1959.87 57.4272 1910.91 50.6967C1850.37 42.3751 1794.08 46.935 1748.1 63.8822C1731.58 69.9524 1716.28 77.5954 1702.63 86.598C1663.49 112.402 1637.04 151.124 1624.03 201.693C1616.83 229.496 1614.75 257.911 1613.37 282.363C1612.76 293.188 1613.27 306.662 1613.81 320.929C1614.71 344.76 1615.73 371.773 1612.31 397.887C1608.34 428.189 1599.09 451.32 1584.02 468.606C1575.82 478.063 1565.64 485.849 1553.76 491.745C1540.93 498.114 1525.69 502.49 1508.48 504.749C1499.8 505.89 1491.13 506.407 1482.5 506.407C1430.86 506.407 1380.82 487.799 1339.44 472.414C1308.64 460.963 1277.46 447.993 1246.77 433.864C1221.96 422.423 1197.62 410.248 1174.43 397.684C1122.49 369.548 1076.22 334.845 1031.48 301.286C1018.86 291.818 1005.81 282.028 992.76 272.479C968.799 254.944 939.975 234.472 907.839 215.557C850.076 181.592 785.577 164.747 716.116 165.469C607.031 166.332 505.375 209.978 439.305 246.444C391.847 272.635 346.011 304.112 310.241 335.079C283.164 358.52 262.543 383.417 240.713 409.775C238.077 412.96 235.429 416.152 232.768 419.35C227.941 425.15 221.552 432.793 214.919 440.464C204.057 453.044 187.005 471.356 164.419 485.082C153.451 491.748 141.778 496.986 129.725 500.654C116.287 504.744 101.856 507.042 86.8428 507.481C84.7155 507.546 82.5733 507.577 80.4165 507.577Z" fill="white"/>
<path d="M87.3484 543.771C65.7319 543.771 42.2684 540.576 15.8737 534.056C-11.4538 527.307 -38.4716 517.818 -61.2936 509.424C-68.3062 506.84 -75.3039 504.219 -82.0731 501.685C-100.994 494.6 -118.869 487.906 -135.722 482.442C-196.242 462.814 -256.369 443.652 -314.519 425.119C-333.754 418.989 -353.641 412.651 -372.916 406.495L-372.193 405.37C-352.918 411.526 -333.031 417.864 -313.796 423.994C-255.646 442.527 -195.512 461.691 -134.988 481.321C-118.091 486.802 -100.194 493.501 -81.2509 500.595C-74.4854 503.13 -67.4876 505.748 -60.4825 508.332C-13.1498 525.734 41.7522 544.155 94.324 542.421C158.871 540.243 195.124 502.42 219.502 469.714C225.752 461.335 231.795 452.923 236.359 446.53C238.704 443.249 241.034 439.971 243.361 436.701C264.273 407.286 284.024 379.503 310.724 352.823C345.451 318.122 391.343 282.208 439.936 251.696C507.61 209.386 612.204 157.778 726.181 152.181C798.666 148.526 865.381 164.212 924.464 198.808C951.01 214.359 977.261 232.297 1009.59 256.976C1025.92 269.446 1042.14 282.372 1057.81 294.868C1098.6 327.382 1140.77 361.004 1188.29 389.067C1211.31 402.666 1235.45 415.891 1260.04 428.374C1289.81 443.476 1320.93 457.841 1352.53 471.074C1401.08 491.276 1461.49 516.422 1522.31 509.304C1555.65 505.483 1580.85 493.433 1597.21 473.494C1630.39 433.139 1623.27 367.118 1618.07 318.913C1616.61 305.384 1615.23 292.607 1614.96 282.299C1614.35 259.391 1614.41 229.185 1620.22 198.678C1630.26 145.814 1654.87 104.49 1693.37 75.8598C1706.86 65.7731 1722.34 57.0096 1739.36 49.8111C1763.58 39.5581 1790.9 32.6612 1820.58 29.3154C1848.54 26.1646 1877.96 26.214 1908.03 29.4636C1933.41 32.266 1958.36 37.3458 1982.2 44.5572C2006.27 51.8415 2028.6 61.1223 2048.56 72.1422C2071.64 84.8754 2092.72 100.05 2111.21 117.246C2128.75 133.544 2144.11 151.783 2156.87 171.462C2180.84 208.409 2195.62 250.487 2199.62 293.147L2197.87 293.228C2189.26 201.325 2134.44 121.096 2047.48 73.1171C2008.05 51.3501 1958.44 36.2799 1907.77 30.6854C1845.31 23.9393 1787.39 30.9194 1740.27 50.8718C1723.38 58.0105 1708.03 66.7037 1694.65 76.7098C1656.4 105.15 1631.94 146.24 1621.96 198.845C1616.16 229.268 1616.11 259.414 1616.71 282.278C1616.99 292.549 1618.36 305.311 1619.82 318.822C1622.51 343.739 1625.55 371.985 1623.81 399.559C1621.78 431.668 1613.58 456.055 1598.72 474.115C1590.74 483.856 1580.63 491.811 1568.69 497.759C1555.75 504.209 1540.24 508.503 1522.6 510.526C1495.24 513.726 1465.8 510.851 1432.58 501.734C1403.71 493.808 1376.05 482.296 1351.65 472.142C1319.99 458.892 1288.83 444.505 1259.02 429.383C1234.4 416.881 1210.23 403.638 1187.17 390.021C1139.55 361.901 1097.33 328.243 1056.5 295.695C1040.83 283.201 1024.63 270.283 1008.3 257.823C976.033 233.189 949.83 215.285 923.347 199.77C864.614 165.371 798.323 149.779 726.3 153.41C612.812 158.987 508.565 210.437 441.094 252.619C392.596 283.069 346.801 318.907 312.147 353.535C285.52 380.14 265.799 407.884 244.92 437.255C242.594 440.527 240.263 443.806 237.919 447.086C233.351 453.484 227.304 461.905 221.047 470.291C196.455 503.289 159.837 541.449 94.4015 543.656C92.075 543.732 89.7191 543.771 87.3484 543.771Z" fill="white"/>
<path d="M94.4198 579.965C35.3553 579.965 -26.6181 554.387 -81.557 531.71C-98.4394 524.743 -114.385 518.161 -129.539 512.595L-374.288 422.706L-373.436 421.555L-128.687 511.443C-113.493 517.022 -97.5287 523.612 -80.6242 530.59C-23.5617 554.143 41.118 580.839 101.875 578.525C167.845 576.016 202.598 535.009 225.505 499.568C232.997 487.976 240.23 476.181 247.228 464.774C266.367 433.578 286.155 401.319 312.49 371.295C333.402 347.456 359.381 322.456 387.615 298.999C418.589 273.265 451.753 249.655 486.178 228.826C524.134 205.863 562.729 186.867 600.885 172.369C643.089 156.334 684.667 145.866 724.471 141.251C804.208 132.009 876.73 146.035 940.016 182.942C992.609 213.61 1037.31 251.534 1080.54 288.21C1118.17 320.134 1157.08 353.142 1201.13 381.359C1252.03 413.948 1307.1 444.024 1364.85 470.745C1413.49 493.261 1474.04 521.286 1536.44 514.987C1589.14 509.668 1619.61 484.805 1629.59 438.972C1638.08 399.988 1630 353.742 1623.52 316.585C1621.31 303.923 1619.22 291.961 1618.2 282.262C1612.54 228.792 1616.15 184.653 1629.22 147.324C1637.37 124.034 1649.41 103.273 1664.98 85.6184C1682.38 65.8974 1704.72 49.4571 1731.38 36.7551C1754.44 25.7664 1780.43 17.7854 1808.63 13.0332C1835.47 8.5098 1863.74 6.9942 1892.64 8.528C1949.47 11.5436 2005.06 26.2473 2049.17 49.9276C2072.76 62.5854 2094.17 77.8142 2112.81 95.1878C2130.48 111.654 2145.78 130.151 2158.3 150.168C2181.89 187.876 2195.44 230.789 2197.47 274.263L2195.63 274.307C2191.28 181.728 2136.12 98.2346 2048.05 50.9649C1954.54 0.765404 1821.79 -4.75887 1732.4 37.834C1643.86 80.0265 1607.1 159.948 1620.03 282.166C1621.05 291.834 1623.14 303.78 1625.34 316.427C1631.84 353.664 1639.94 400.009 1631.41 439.17C1626.76 460.5 1617.43 477.642 1603.67 490.123C1595.92 497.14 1586.59 502.875 1575.92 507.164C1564.57 511.729 1551.38 514.794 1536.7 516.276C1530.7 516.882 1524.6 517.186 1518.39 517.186C1495.78 517.186 1471.7 513.154 1445.3 504.986C1415.57 495.783 1386.88 482.504 1363.83 471.835C1306.01 445.074 1250.85 414.959 1199.89 382.323C1155.73 354.047 1116.78 321 1079.11 289.042C1035.94 252.413 991.293 214.536 938.832 183.945C875.97 147.29 803.946 133.356 724.758 142.535C564.576 161.102 399.572 274.489 314.046 371.982C287.781 401.922 268.019 434.137 248.906 465.291C241.904 476.704 234.667 488.506 227.168 500.109C211.959 523.638 196.938 540.487 179.898 553.126C169.261 561.014 157.721 567.232 145.598 571.607C132.119 576.471 117.437 579.237 101.96 579.827C99.4599 579.918 96.9417 579.965 94.4198 579.965Z" fill="white"/>
</g>
</svg>
