<svg width="539" height="466" viewBox="0 0 539 466" fill="none" xmlns="http://www.w3.org/2000/svg">
<path d="M333.492 465.737C327.64 465.737 320.65 464.303 311.342 461.054C286.64 452.242 261.309 425.779 234.565 397.794C219.838 382.425 204.639 366.529 189.362 353.503C167.056 329.967 129.237 313.749 92.6347 298.029C65.8902 286.554 40.6381 275.694 21.0805 262.287L21.0412 262.257C6.35337 251.836 -0.519287 241.766 0.0305252 231.491C1.09088 211.438 30.4273 193.582 64.4372 172.915L67.6967 170.924C92.9096 155.526 124.563 134.918 170.394 104.151L174.282 101.634C215.282 75.0532 266.336 41.9742 332.471 21.9218C464.936 -24.5352 580.868 11.4419 617.47 50.4342C655.643 96.0131 652.344 144.402 604.903 235.472C555.224 330.406 445.182 403.795 400.176 430.931C381.758 439.889 370.212 447.822 361.807 453.618C351.125 460.936 344.174 465.737 333.492 465.737ZM24.5365 259.476C43.6621 272.591 68.6786 283.334 95.1481 294.722C132.182 310.617 170.512 327.069 193.29 351.132C208.606 364.158 223.883 380.142 238.649 395.569C265.04 423.144 289.978 449.198 313.463 457.599C336.673 465.65 342.132 461.902 358.351 450.779C366.913 444.895 378.655 436.815 397.192 427.799C441.648 400.955 550.904 328.123 600.151 234.038C646.924 144.285 650.341 96.7742 613.229 52.4834C577.687 14.662 464.465 -20.232 334.513 25.3468C269.046 45.2235 218.345 78.0684 177.62 104.444L173.771 106.961C127.901 137.757 96.2084 158.395 70.9171 173.822L67.6575 175.813C34.5902 195.894 6.07847 213.253 5.09666 231.579C4.62539 240.741 10.9875 249.845 24.5365 259.476Z" fill="#CCCCCC"/>
<path d="M325.87 439.215C317.78 439.215 309.218 437.283 297.436 433.858L297.201 433.8C274.58 425.34 256.672 404.936 237.743 383.362C224.822 368.608 211.43 353.385 195.328 340.125C172.629 318.609 144.078 301.864 116.509 285.676C97.9723 274.815 80.4569 264.54 65.1799 253.182L64.905 252.948C33.8013 221.362 56.108 207.428 96.5585 182.106C100.957 179.355 105.591 176.457 110.422 173.354C119.926 168.114 130.058 162.259 140.818 156.053C188.613 128.448 254.119 90.6559 346.527 59.9773C459.474 27.7472 546.737 51.0489 583.182 88.4311C619.705 127.394 605.528 174.29 564.488 252.626C519.521 331.84 437.442 383.127 393.34 410.674L388.431 413.747C355.638 431.897 341.579 439.215 325.87 439.215ZM299.4 430.346C331.564 439.654 337.023 437.43 385.289 410.791L390.08 407.805C433.829 380.463 515.28 329.557 559.776 251.25C600.148 174.232 614.246 128.214 579.058 90.6852C543.792 54.5031 458.806 32.0504 348.49 63.5194C256.75 93.9638 191.558 131.609 143.921 159.068C133.16 165.274 123.028 171.129 113.603 176.339C108.89 179.355 104.256 182.253 99.8574 185.034C59.3676 210.384 40.8311 221.977 68.9108 250.606C83.9521 261.759 101.31 271.917 119.651 282.69C147.495 298.995 176.242 315.886 199.216 337.666C215.475 351.044 228.985 366.412 242.023 381.283C260.52 402.36 278.036 422.295 299.4 430.346Z" fill="#CCCCCC"/>
<path d="M319.284 417.085C308.955 417.085 299.373 414.333 287.434 409.649C267.483 400.691 251.46 382.161 234.495 362.577C224.441 350.926 213.994 338.895 202.056 327.859C185.365 310.529 165.572 295.717 146.485 281.373C130.816 269.605 116.01 258.51 104.346 247.064L104.189 246.888C80.5471 217.205 104.975 203.359 149.352 178.213L149.863 177.92L158.071 173.734C204.805 149.993 268.819 117.47 356.514 93.9052C460.036 69.2862 525.935 94.3736 550.951 123.296C577.696 154.15 571.137 195.572 528.33 266.268C497.148 315.535 446.251 359.826 377.093 397.91C350.348 411.435 334.05 417.085 319.284 417.085ZM108.47 244.81C119.937 256.022 134.586 267.029 150.098 278.65C169.342 293.082 189.253 308.041 206.101 325.517C218.157 336.612 228.643 348.76 238.775 360.499C255.388 379.732 271.096 397.881 289.947 406.341C317.124 417.055 330.673 416.85 374.147 394.807C442.559 357.103 492.907 313.31 523.696 264.658C565.678 195.309 572.355 154.94 546.67 125.316C520.711 95.3103 452.378 75.053 358.124 97.4473C271.136 120.837 207.436 153.184 160.938 176.837L152.415 181.199C107.724 206.52 87.2627 218.113 108.47 244.81Z" fill="#CCCCCC"/>
<path d="M315.594 396.945C304.048 396.945 293.209 393.988 281.113 388.192L281.035 388.163C262.812 378.854 248.124 361.348 232.573 342.848C225.386 334.271 217.924 325.43 209.834 316.999C199.034 304.646 187.056 293.229 175.471 282.222C161.254 268.698 147.784 255.905 138.987 243.493C123.631 217.294 146.095 203.594 184.896 184.068C224.875 165.626 286.651 139.338 362.368 123.823C434.668 112.729 488.825 121.628 515.019 148.852C543.295 178.184 536.266 224.7 495.737 276.485C453.283 337.432 386.167 373.175 366.609 382.66C345.795 392.261 330.125 396.945 315.594 396.945ZM283.862 385.001C306.483 395.803 324.234 397.735 363.86 379.44C383.103 370.101 449.356 334.827 491.259 274.64C530.767 224.144 537.915 179.121 510.856 151.077C485.879 125.141 433.568 116.798 363.507 127.541C288.575 142.91 227.232 168.992 187.606 187.288C147.666 207.37 130.268 219.314 143.503 241.883C152.025 253.856 165.338 266.502 179.437 279.91C191.101 291.004 203.158 302.45 213.997 314.891C222.126 323.322 229.588 332.251 236.814 340.857C252.13 358.977 266.543 376.132 283.862 385.001Z" fill="#CCCCCC"/>
<path d="M313.156 378.561C300.903 378.561 289.632 375.428 277.929 369.164L277.615 368.959C232.805 335.148 179.827 257.72 169.655 242.556L169.498 242.205C161.565 220.484 179.473 207.72 215.25 191.766C248.946 177.657 302.16 159.039 364.524 150.344C421.941 143.611 464.944 152.686 485.68 175.9C508.693 201.69 501.663 240.887 466.436 283.451C435.411 324.492 389.698 354.029 357.259 367.964C340.293 375.048 326.155 378.561 313.156 378.561ZM281.071 366.178C303.495 378.092 323.485 377.682 354.706 364.656C386.556 350.985 431.445 321.946 462.038 281.519C495.733 240.799 502.959 202.129 481.438 178.008C461.881 156.082 420.645 147.563 365.388 154.091C303.77 162.698 251.145 181.14 217.803 195.074C183.558 210.326 167.417 221.655 174.329 241.063C203.547 284.622 246.865 340.3 281.071 366.178Z" fill="#CCCCCC"/>
<path d="M311.363 361.612C298.246 361.612 286.897 358.362 278.296 352.069C243.893 327.215 208.077 274.787 197.513 243.259C195.785 235.97 198.259 228.856 204.778 222.065C224.886 201.134 284.462 183.073 364.185 173.764C409.151 170.514 442.69 179.501 458.713 199.085C476.857 221.275 470.338 253.563 440.844 287.638C402.475 330.757 356.566 358.275 318.04 361.319C315.762 361.524 313.523 361.612 311.363 361.612ZM381.7 176.896C376.28 176.896 370.665 177.101 364.852 177.54C286.622 186.673 228.263 204.15 208.98 224.29C203.247 230.262 201.087 236.38 202.54 242.498C212.908 273.381 248.096 324.961 281.909 349.375C290.824 355.874 303.155 358.714 317.529 357.572C354.563 354.645 399.098 327.742 436.603 285.588C464.565 253.27 471.241 221.684 454.393 201.076C441.473 185.297 415.985 176.896 381.7 176.896Z" fill="#CCCCCC"/>
<path d="M312.413 345.511C300.238 345.511 289.517 342.584 281.152 336.905C251.305 316.735 223.696 274.084 222.125 245.659V245.601C221.929 219.401 280.366 197.885 361.032 194.489C395.395 193.874 420.883 202.422 432.861 218.64C446.606 237.228 440.951 263.018 417.348 289.423C388.169 321.507 351.646 342.35 319.599 345.189C317.125 345.394 314.73 345.511 312.413 345.511ZM227.231 245.542C228.802 273.118 255.586 314.51 284.608 334.094C293.444 340.096 305.304 342.613 318.971 341.413C349.564 338.69 384.752 318.462 413.107 287.286C435.61 262.111 441.187 237.726 428.384 220.425C417.348 205.525 393.549 197.621 361.228 198.236C284.726 201.485 227.074 221.831 227.231 245.542Z" fill="#CCCCCC"/>
<path d="M313.29 330.259C302.647 330.259 293.143 327.83 285.485 323.058C258.583 306.401 239.458 272.678 243.66 249.377C248.215 227.012 297.188 210.97 354.997 212.814C380.367 213.897 399.06 221.684 407.7 234.711C417.597 249.64 413.081 269.458 395.251 289.042C374.201 311.963 346.435 327.215 320.987 329.85C318.356 330.142 315.803 330.259 313.29 330.259ZM345.846 216.473C294.557 216.473 252.653 230.612 248.726 249.933C244.799 271.683 263.492 304.499 288.744 320.16C297.07 325.312 307.949 327.361 320.28 326.103C344.354 323.614 370.784 308.948 391.049 286.905C407.818 268.492 412.217 250.079 403.145 236.379C395.369 224.641 378.167 217.615 354.761 216.59C351.776 216.532 348.792 216.473 345.846 216.473Z" fill="#CCCCCC"/>
<path d="M315.692 315.682C307.131 315.682 299.355 313.838 292.836 310.237C270.254 297.737 257.569 272.591 264.56 254.178C271.668 235.97 308.584 225.022 348.524 229.237C366.236 231.199 379.235 237.756 385.126 247.709C391.802 258.979 388.503 273.265 376.093 286.906C361.837 302.48 342.712 312.784 323.625 315.155C320.955 315.506 318.284 315.682 315.692 315.682ZM269.469 255.232C263.107 271.947 275.203 295.747 295.86 307.193C303.204 311.262 312.511 312.725 322.801 311.437C340.277 309.242 358.656 299.289 371.93 284.798C383.319 272.269 386.422 259.33 380.492 249.26C375.347 240.537 363.722 234.77 347.817 233.014C310.94 229.091 275.792 239.073 269.469 255.232Z" fill="#CCCCCC"/>
<path d="M317.664 301.571C311.734 301.571 306 300.43 300.974 297.971C284.165 289.862 276.311 272.649 283.419 259.622C290.566 246.654 316.054 239.658 340.285 244.049C351.478 246.069 359.647 251.016 363.299 257.925C367.305 265.536 365.262 274.786 357.722 283.275C347.315 294.926 331.881 301.571 317.664 301.571ZM303.723 294.809C318.214 301.806 340.521 295.717 353.481 281.197C360.079 273.761 361.964 265.77 358.547 259.33C355.523 253.592 348.611 249.464 339.068 247.737C317.193 243.785 294.337 249.757 288.132 261.057C281.887 272.503 288.878 287.637 303.723 294.809Z" fill="#CCCCCC"/>
<path d="M319.143 287.726C315.923 287.726 312.781 287.169 309.914 285.998C300.096 281.988 296.129 272.767 301.117 265.419C306.026 258.159 319.496 254.676 331.082 257.662C336.658 259.096 340.743 261.965 342.51 265.77C344.395 269.781 343.492 274.465 339.997 278.592C335.009 284.418 326.958 287.726 319.143 287.726ZM322.285 260.384C315.176 260.384 308.461 262.931 305.594 267.146C301.863 272.679 304.848 279.646 312.31 282.661C319.732 285.706 330.218 282.954 335.637 276.543C338.347 273.352 339.054 269.986 337.64 267C336.383 264.307 333.438 262.258 329.354 261.204C327.037 260.648 324.641 260.384 322.285 260.384Z" fill="#CCCCCC"/>
</svg>
