<svg width="416" height="467" viewBox="0 0 416 467" fill="none" xmlns="http://www.w3.org/2000/svg">
<path d="M105.544 466.536C99.6921 466.536 92.7016 465.102 83.394 461.853C58.6918 453.041 33.3611 426.578 6.61664 398.592C-8.11049 383.224 -23.3089 367.328 -38.5858 354.302C-60.8925 330.766 -98.7117 314.548 -135.314 298.828C-162.058 287.353 -187.31 276.493 -206.868 263.085L-206.907 263.056C-221.595 252.635 -228.468 242.565 -227.918 232.29C-226.857 212.237 -197.521 194.381 -163.511 173.713L-160.252 171.723C-135.039 156.325 -103.385 135.716 -57.5543 104.95L-53.6664 102.433C-12.666 75.8522 38.388 42.7731 104.523 22.7208C236.988 -23.7362 352.92 12.2409 389.522 51.2332C427.695 96.812 424.396 145.201 376.955 236.271C327.275 331.205 217.234 404.594 172.228 431.73C153.809 440.688 142.263 448.621 133.859 454.417C123.177 461.735 116.226 466.536 105.544 466.536ZM-203.412 260.275C-184.286 273.39 -159.27 284.133 -132.8 295.521C-95.7663 311.416 -57.4365 327.868 -34.6586 351.931C-19.3423 364.957 -4.06541 380.941 10.701 396.368C37.092 423.943 62.0299 449.997 85.5148 458.398C108.725 466.448 114.184 462.701 130.403 451.577C138.964 445.694 150.707 437.614 169.243 428.598C213.7 401.754 322.955 328.922 372.203 234.837C418.976 145.084 422.393 97.5731 385.281 53.2823C349.739 15.461 236.517 -19.433 106.565 26.1458C41.0978 46.0225 -9.60284 78.8673 -50.3282 105.243L-54.1769 107.76C-100.047 138.556 -131.74 159.194 -157.031 174.621L-160.291 176.612C-193.358 196.693 -221.87 214.052 -222.852 232.378C-223.323 241.54 -216.961 250.644 -203.412 260.275Z" fill="#CCCCCC"/>
<path d="M97.9214 440.014C89.8313 440.014 81.2699 438.082 69.4882 434.657L69.2526 434.599C46.6317 426.139 28.7236 405.735 9.79428 384.161C-3.12631 369.407 -16.5182 354.184 -32.6198 340.924C-55.3192 319.408 -83.8702 302.663 -111.439 286.475C-129.976 275.614 -147.491 265.339 -162.768 253.981L-163.043 253.747C-194.147 222.161 -171.84 208.227 -131.39 182.905C-126.991 180.154 -122.357 177.255 -117.527 174.152C-108.023 168.913 -97.8904 163.058 -87.1298 156.852C-39.3354 129.247 26.1708 91.4549 118.579 60.7762C231.526 28.5461 318.789 51.8478 355.234 89.2301C391.757 128.193 377.58 175.089 336.54 253.425C291.573 332.639 209.494 383.926 165.391 411.473L160.482 414.546C127.69 432.696 113.63 440.014 97.9214 440.014ZM71.4518 431.144C103.616 440.453 109.075 438.229 157.34 411.59L162.132 408.604C205.881 381.262 287.332 330.356 331.827 252.049C372.199 175.031 386.298 129.013 351.11 91.4841C315.844 55.3021 230.858 32.8493 120.542 64.3183C28.8021 94.7628 -36.39 132.408 -84.0273 159.867C-94.7879 166.073 -104.92 171.928 -114.346 177.138C-119.058 180.154 -123.692 183.052 -128.091 185.833C-168.581 211.183 -187.117 222.776 -159.037 251.405C-143.996 262.558 -126.638 272.716 -108.298 283.489C-80.4535 299.794 -51.7062 316.685 -28.7319 338.465C-12.4731 351.843 1.03654 367.211 14.075 382.082C32.5722 403.159 50.0877 423.094 71.4518 431.144Z" fill="#CCCCCC"/>
<path d="M91.3354 417.884C81.0068 417.884 71.4243 415.132 59.4855 410.448C39.5352 401.49 23.512 382.96 6.54639 363.376C-3.50732 351.725 -13.9538 339.694 -25.8925 328.658C-42.5833 311.328 -62.3765 296.516 -81.4629 282.172C-97.1325 270.404 -111.938 259.309 -123.602 247.863L-123.759 247.687C-147.401 218.004 -122.974 204.158 -78.596 179.012L-78.0854 178.719L-69.8775 174.533C-23.1435 150.792 40.8704 118.269 128.566 94.7041C232.087 70.0851 297.986 95.1725 323.003 124.095C349.747 154.949 343.189 196.371 300.382 267.067C269.2 316.334 218.303 360.625 149.144 398.709C122.4 412.234 106.102 417.884 91.3354 417.884ZM-119.479 245.609C-108.011 256.821 -93.3624 267.828 -77.8498 279.449C-58.6064 293.881 -38.6953 308.84 -21.8475 326.316C-9.79089 337.411 0.694855 349.559 10.8271 361.298C27.4393 380.531 43.1482 398.68 61.999 407.14C89.1754 417.854 102.724 417.649 146.199 395.606C214.611 357.902 264.958 314.109 295.748 265.456C337.73 196.108 344.406 155.739 318.722 126.115C292.763 96.1092 224.429 75.852 130.176 98.2462C43.1875 121.636 -20.5122 153.983 -67.0107 177.636L-75.5328 181.998C-120.225 207.319 -140.686 218.912 -119.479 245.609Z" fill="#CCCCCC"/>
<path d="M87.6461 397.744C76.1 397.744 65.2609 394.787 53.165 388.991L53.0864 388.962C34.8641 379.653 20.1762 362.147 4.62438 343.647C-2.56245 335.069 -10.0242 326.229 -18.1143 317.798C-28.9142 305.445 -40.8923 294.028 -52.4776 283.021C-66.6942 269.497 -80.1646 256.704 -88.9616 244.292C-104.317 218.093 -81.8533 204.393 -43.0522 184.867C-3.07299 166.425 58.7024 140.137 134.419 124.622C206.72 113.528 260.876 122.427 287.071 149.651C315.347 178.983 308.317 225.499 267.788 277.284C225.335 338.231 158.218 373.974 138.661 383.459C117.847 393.06 102.177 397.744 87.6461 397.744ZM55.914 385.8C78.5349 396.602 96.286 398.534 135.912 380.238C155.155 370.9 221.408 335.626 263.311 275.439C302.819 224.943 309.967 179.92 282.908 151.876C257.931 125.94 205.62 117.597 135.558 128.34C60.6267 143.709 -0.716644 169.791 -40.3424 188.087C-80.2824 208.169 -97.6801 220.112 -84.4453 242.682C-75.9232 254.655 -62.6098 267.301 -48.5111 280.709C-36.8472 291.803 -24.7906 303.249 -13.9514 315.69C-5.82204 324.121 1.63969 333.05 8.86581 341.656C24.182 359.776 38.5949 376.931 55.914 385.8Z" fill="#CCCCCC"/>
<path d="M85.208 379.36C72.955 379.36 61.6839 376.227 49.9807 369.963L49.6665 369.758C4.85679 335.947 -48.1216 258.519 -58.2931 243.355L-58.4502 243.004C-66.3832 221.283 -48.4751 208.519 -12.698 192.565C20.9977 178.456 74.2117 159.838 136.576 151.143C193.992 144.41 236.996 153.485 257.731 176.699C280.745 202.489 273.715 241.686 238.488 284.25C207.463 325.291 161.75 354.828 129.311 368.763C112.345 375.847 98.2071 379.36 85.208 379.36ZM53.1225 366.977C75.547 378.891 95.5366 378.481 126.758 365.455C158.608 351.784 203.496 322.745 234.089 282.318C267.785 241.599 275.011 202.928 253.49 178.807C233.932 156.881 192.696 148.362 137.44 154.89C75.8219 163.497 23.197 181.939 -10.1452 195.873C-44.3907 211.125 -60.5317 222.454 -53.6197 241.862C-24.4011 285.421 18.9163 341.099 53.1225 366.977Z" fill="#CCCCCC"/>
<path d="M83.415 362.411C70.2981 362.411 58.9484 359.161 50.3477 352.868C15.9452 328.014 -19.8712 275.586 -30.4354 244.058C-32.1634 236.769 -29.6893 229.655 -23.1701 222.864C-3.06264 201.933 56.5135 183.872 136.236 174.563C181.203 171.313 214.742 180.3 230.765 199.884C248.909 222.074 242.389 254.362 212.896 288.437C174.527 331.556 128.618 359.074 90.0914 362.118C87.8136 362.323 85.575 362.411 83.415 362.411ZM153.752 177.695C148.332 177.695 142.716 177.9 136.904 178.339C58.6735 187.472 0.31481 204.949 -18.9679 225.089C-24.7017 231.061 -26.8616 237.179 -25.4086 243.297C-15.0407 274.18 20.1473 325.76 53.9608 350.174C62.8756 356.673 75.2071 359.513 89.5808 358.371C126.615 355.444 171.149 328.541 208.655 286.387C236.616 254.069 243.293 222.483 226.445 201.875C213.524 186.096 188.037 177.695 153.752 177.695Z" fill="#CCCCCC"/>
<path d="M84.4644 346.31C72.2899 346.31 61.5686 343.383 53.2036 337.704C23.3566 317.534 -4.25186 274.883 -5.82275 246.458V246.4C-6.01911 220.2 52.4181 198.684 133.083 195.288C167.447 194.673 192.935 203.221 204.913 219.439C218.658 238.027 213.003 263.817 189.4 290.222C160.221 322.306 123.697 343.148 91.6512 345.988C89.177 346.193 86.7814 346.31 84.4644 346.31ZM-0.717333 246.341C0.85356 273.917 27.6373 315.309 56.6595 334.893C65.4958 340.894 77.3561 343.412 91.0228 342.212C121.616 339.489 156.804 319.261 185.159 288.085C207.662 262.91 213.238 238.525 200.436 221.224C189.4 206.324 165.601 198.42 133.28 199.035C56.7773 202.284 -0.874423 222.63 -0.717333 246.341Z" fill="#CCCCCC"/>
<path d="M85.3414 331.058C74.6985 331.058 65.1946 328.629 57.5365 323.857C30.635 307.2 11.5093 273.477 15.7115 250.176C20.267 227.811 69.2397 211.769 127.049 213.613C152.418 214.696 171.112 222.483 179.752 235.51C189.649 250.439 185.132 270.257 167.303 289.841C146.253 312.762 118.487 328.014 93.0387 330.648C90.4074 330.941 87.8548 331.058 85.3414 331.058ZM117.898 217.272C66.6084 217.272 24.7049 231.411 20.7776 250.732C16.8504 272.482 35.544 305.298 60.7961 320.959C69.1219 326.111 80.0003 328.16 92.3318 326.901C116.406 324.413 142.836 309.747 163.101 287.704C179.87 269.291 184.268 250.878 175.196 237.178C167.42 225.439 150.219 218.414 126.813 217.389C123.828 217.331 120.844 217.272 117.898 217.272Z" fill="#CCCCCC"/>
<path d="M87.744 316.481C79.1826 316.481 71.4068 314.637 64.8875 311.036C42.306 298.536 29.621 273.39 36.6115 254.977C43.7198 236.769 80.6357 225.821 120.576 230.036C138.288 231.997 151.287 238.555 157.178 248.508C163.854 259.778 160.555 274.063 148.145 287.705C133.889 303.278 114.763 313.583 95.677 315.954C93.0065 316.305 90.336 316.481 87.744 316.481ZM41.5205 256.031C35.1584 272.746 47.2543 296.545 67.9115 307.991C75.2555 312.06 84.563 313.524 94.8524 312.236C112.329 310.041 130.708 300.088 143.982 285.597C155.371 273.068 158.473 260.129 152.543 250.059C147.399 241.336 135.774 235.569 119.869 233.812C82.9921 229.89 47.8434 239.872 41.5205 256.031Z" fill="#CCCCCC"/>
<path d="M89.7161 302.37C83.786 302.37 78.0523 301.229 73.0254 298.77C56.2168 290.661 48.3624 273.448 55.4707 260.421C62.6182 247.453 88.106 240.457 112.337 244.848C123.53 246.868 131.698 251.815 135.351 258.723C139.356 266.335 137.314 275.585 129.774 284.074C119.367 295.725 103.933 302.37 89.7161 302.37ZM75.7745 295.608C90.2659 302.604 112.573 296.515 125.533 281.996C132.13 274.56 134.015 266.569 130.599 260.129C127.575 254.391 120.663 250.263 111.12 248.536C89.2449 244.584 66.3884 250.556 60.1834 261.856C53.9391 273.302 60.9295 288.436 75.7745 295.608Z" fill="#CCCCCC"/>
<path d="M91.1947 288.525C87.9744 288.525 84.8326 287.968 81.9657 286.797C72.1476 282.787 68.1812 273.566 73.1687 266.218C78.0778 258.958 91.5481 255.475 103.133 258.461C108.71 259.895 112.794 262.764 114.562 266.569C116.447 270.58 115.544 275.264 112.048 279.391C107.061 285.217 99.0099 288.525 91.1947 288.525ZM94.3365 261.183C87.2282 261.183 80.5127 263.73 77.6458 267.945C73.9149 273.478 76.8996 280.445 84.3613 283.46C91.7838 286.505 102.27 283.753 107.689 277.342C110.399 274.151 111.106 270.785 109.692 267.799C108.435 265.106 105.49 263.057 101.405 262.003C99.0884 261.447 96.6929 261.183 94.3365 261.183Z" fill="#CCCCCC"/>
</svg>
