<svg width="749" height="68" viewBox="0 0 749 68" fill="none" xmlns="http://www.w3.org/2000/svg">
<path d="M500.004 51.9389C499.277 51.9652 498.542 51.9843 497.83 52.0224C497.368 52.0463 497.168 51.9823 496.858 51.9496C496.755 51.9383 496.644 51.9151 496.548 51.9185C495.828 51.9448 495.109 51.9741 494.389 52.0034C494.17 52.0617 494.032 52.1388 493.695 52.1681C493.365 52.1958 492.975 52.1974 492.608 52.212C492.123 52.2301 491.639 52.2482 491.154 52.2648C490.911 52.2731 490.714 52.3019 490.634 52.3552C490.62 52.3641 490.782 52.3855 490.871 52.3984C491.166 52.4414 491.454 52.4904 491.778 52.523C492.088 52.5541 492.469 52.4997 492.801 52.5396C493.546 52.6294 493.553 52.6279 494.119 52.6081C494.603 52.59 495.088 52.5704 495.573 52.5568C495.669 52.5535 495.779 52.5751 495.883 52.5865C496.192 52.6177 496.393 52.6905 496.848 52.6607C497.193 52.6373 497.575 52.6314 497.935 52.6182C498.237 52.6597 498.518 52.7072 498.842 52.7398C499.145 52.771 499.234 52.7957 499.073 52.839C498.927 52.8794 498.722 52.8964 498.45 52.9004C498.207 52.9028 497.965 52.917 497.722 52.9253C497.598 52.9302 497.48 52.9336 497.363 52.9385C496.9 52.9564 496.9 52.9564 496.052 52.8655C495.72 52.83 495.347 52.883 495.029 52.8489C494.816 52.8262 494.631 52.7916 494.424 52.7673C494.336 52.7574 494.196 52.7565 494.086 52.7598C493.719 52.7716 493.351 52.7804 492.999 52.8009C492.749 52.8151 492.603 52.8569 492.634 52.898C492.642 52.9141 492.819 52.937 492.922 52.9381C493.157 52.9401 493.406 52.9185 493.635 52.9279C493.855 52.9374 494.084 52.9659 494.247 52.9977C494.579 53.0641 494.953 53.0023 495.269 53.0187C495.601 53.0366 495.874 53.0944 496.191 53.1285C496.272 53.137 496.426 53.1217 496.551 53.1168C496.911 53.1051 497.271 53.0949 497.631 53.0831C497.934 53.1247 498.258 53.1617 498.532 53.2092C499.026 53.2956 499.557 53.3274 500.195 53.2822C500.555 53.2572 500.908 53.2647 501.196 53.321C501.492 53.3787 501.83 53.3715 502.204 53.3583C502.55 53.3452 502.901 53.3114 503.255 53.3513C504.022 53.4395 504.03 53.4439 504.933 53.4051C505.205 53.3937 505.411 53.39 505.617 53.423C505.809 53.4532 506.016 53.4789 506.215 53.5076C506.575 53.4959 506.943 53.4841 507.302 53.4709C507.765 53.4529 508.023 53.4725 508.135 53.5546C508.203 53.6043 508.234 53.6499 508.396 53.6831C508.589 53.7236 508.794 53.7213 509.073 53.7084C509.338 53.6971 509.528 53.6802 509.637 53.6267C509.681 53.6045 509.768 53.5835 509.849 53.5655C509.915 53.552 510.017 53.531 510.076 53.5338C510.186 53.5392 510.334 53.5548 510.371 53.5738C510.736 53.7505 510.736 53.752 511.105 53.8021C511.511 53.8579 511.931 53.9078 512.301 53.9711C512.633 54.0273 512.963 54.001 513.323 53.9996C513.595 53.9985 513.773 54.0361 513.752 54.0744C513.738 54.0966 513.636 54.1294 513.548 54.1326C512.828 54.1649 512.101 54.1927 511.374 54.2162C511.286 54.2195 511.175 54.1934 511.071 54.1806C510.865 54.1549 510.68 54.1144 510.459 54.1064C510.238 54.0984 509.982 54.1215 509.739 54.1298C509.497 54.1381 509.24 54.1583 509.019 54.1473C508.798 54.1364 508.621 54.0944 508.414 54.0673C508.318 54.0544 508.185 54.0358 508.105 54.0405C507.569 54.0779 507.171 54.0309 506.787 53.9676C506.705 53.9547 506.565 53.9464 506.463 53.9497C505.61 53.9781 504.766 54.0108 503.914 54.0421C503.569 54.0552 503.288 54.0048 503.212 53.9182C503.174 53.8698 503.099 53.8215 503.098 53.7729C503.095 53.6846 502.69 53.6376 502.396 53.649C501.911 53.6656 501.419 53.6793 500.942 53.7033C500.553 53.7225 500.221 53.7061 499.955 53.6541C499.645 53.595 499.292 53.6081 498.94 53.6257C498.675 53.6385 498.603 53.6874 498.621 53.8095C498.639 53.9081 498.514 53.9394 498.037 53.9575C497.435 53.9805 496.825 54.0034 496.215 54.022C496.12 54.0253 496.009 54.0007 495.913 53.9879C495.706 53.9622 495.521 53.9202 495.301 53.9122C495.08 53.9028 494.823 53.9259 494.581 53.9356C494.338 53.9439 494.082 53.9655 493.861 53.9561C493.64 53.9467 493.455 53.9032 493.256 53.876C493.16 53.8631 493.042 53.8445 492.946 53.8478C492.461 53.8614 491.977 53.881 491.492 53.8991C490.948 53.9189 490.948 53.9189 490.174 53.8306C489.82 53.7908 489.468 53.8245 489.123 53.8377C488.756 53.8509 488.41 53.8581 488.122 53.8003C487.93 53.7628 487.716 53.7401 487.488 53.7483C486.879 53.7684 486.276 53.7928 485.667 53.8128C485.564 53.8162 485.424 53.8094 485.343 53.7964C484.951 53.7361 484.568 53.689 484.025 53.7221C483.555 53.7504 483.048 53.7538 482.578 53.7807C482.321 53.7949 482.204 53.8425 482.257 53.8791C482.287 53.8981 482.442 53.9196 482.545 53.9192C482.78 53.9198 483.037 53.8967 483.258 53.9046C483.714 53.9205 483.945 54.0433 484.54 54.0071C484.892 53.9851 485.259 53.9764 485.627 53.969C485.722 53.9672 485.826 53.9948 485.929 54.0091C486.224 54.0477 486.483 54.0982 486.909 54.07C487.261 54.048 487.636 54.0407 487.996 54.0275C488.569 54.0062 488.569 54.0076 489.314 54.0945C489.668 54.1359 490.019 54.1006 490.365 54.089C490.622 54.0806 490.864 54.0649 491.07 54.0847C491.387 54.1144 491.617 54.1842 492.007 54.1783C492.374 54.1724 492.734 54.1504 493.101 54.1416C493.329 54.1363 493.543 54.159 493.728 54.1981C493.92 54.2371 494.126 54.2539 494.376 54.2441C494.736 54.2309 495.103 54.2148 495.47 54.206C495.573 54.2041 495.691 54.2169 495.787 54.2283C495.994 54.254 496.193 54.2841 496.392 54.3113C496.752 54.3011 497.12 54.2967 497.472 54.2777C497.744 54.2634 497.935 54.2685 498.156 54.2971C498.437 54.3358 498.667 54.4055 499.122 54.3699C499.349 54.3528 499.614 54.3562 499.841 54.3406C500.12 54.3204 500.311 54.327 500.511 54.3704C500.888 54.4528 501.359 54.4525 501.843 54.4182C502.372 54.3808 502.77 54.4205 503.168 54.4837C503.589 54.5498 503.589 54.5483 503.917 54.7104C504.014 54.7572 504.286 54.7782 504.514 54.7685C504.896 54.7523 505.227 54.7583 505.508 54.8132C505.804 54.8724 506.156 54.8637 506.516 54.8461C506.993 54.8221 507.471 54.8011 507.863 54.885C508.055 54.9255 508.261 54.935 508.518 54.9236C509.245 54.8943 509.98 54.8753 510.692 54.8401C511.125 54.8178 511.376 54.8639 511.672 54.9025C512.07 54.9555 512.505 55.0023 512.508 55.1186C512.509 55.1378 512.612 55.1595 512.701 55.1738C512.893 55.204 513.099 55.2297 513.299 55.2584C513.594 55.3014 513.882 55.3371 514.285 55.3119C514.638 55.2914 515.012 55.2841 515.372 55.2694C515.732 55.2548 516.063 55.2461 516.388 55.3008C516.764 55.3626 517.163 55.4214 517.591 55.4669C517.893 55.4996 518.288 55.4406 518.613 55.485C518.812 55.5122 519.004 55.5438 519.218 55.5665C519.307 55.5765 519.446 55.5686 519.564 55.5652C519.806 55.5584 520.056 55.553 520.291 55.5373C520.563 55.5201 520.768 55.5222 520.975 55.5553C521.167 55.5855 521.359 55.6274 521.58 55.6354C521.911 55.6473 522.277 55.587 522.61 55.6534C522.78 55.6866 522.994 55.7182 523.215 55.7276C523.436 55.7371 523.692 55.714 523.928 55.7146C524.031 55.7142 524.156 55.7372 524.215 55.7561C524.253 55.7663 524.202 55.7945 524.151 55.8094C524.085 55.8273 523.99 55.8512 523.895 55.8545C523.168 55.8839 522.44 55.9088 521.713 55.9367C521.28 55.9531 521.28 55.9531 520.403 55.8637C520.196 55.8424 519.968 55.8477 519.711 55.859C519.366 55.8736 519.014 55.9001 518.653 55.875C518.18 55.7767 517.599 55.7701 516.982 55.8108C516.726 55.828 516.49 55.8289 516.298 55.8017C515.892 55.7473 515.465 55.6975 515.103 55.6326C514.822 55.5822 514.69 55.5783 514.574 55.6494C514.538 55.6716 514.502 55.6953 514.509 55.7159C514.556 55.7893 514.638 55.8611 514.684 55.9346C514.7 55.9551 514.642 55.9789 514.605 56.0011C514.489 56.0634 514.335 56.0596 514.076 56.0091C513.818 55.9586 513.508 55.9259 513.097 55.9511C512.745 55.973 512.362 55.9716 512.01 55.9951C511.467 56.0296 511.083 55.9839 510.692 55.9222C510.611 55.9092 510.471 55.9024 510.368 55.9058C509.273 55.9439 508.186 55.9864 507.092 56.0245C506.857 56.0328 506.643 56.0115 506.458 55.9725C506.266 55.9335 506.052 55.9137 505.817 55.922C504.848 55.9567 503.878 55.9884 502.909 56.0305C502.512 56.0482 502.196 56.0303 501.922 55.9799C501.715 55.9424 501.524 55.9314 501.267 55.9368C500.987 55.9423 500.789 55.9578 500.651 56.001C500.52 56.0427 500.616 56.0674 500.911 56.0986C501.228 56.1327 501.523 56.1772 501.826 56.2173C502.068 56.2104 502.31 56.1977 502.546 56.1982C502.648 56.1978 502.745 56.224 502.848 56.2383C503.143 56.2798 503.416 56.3215 503.835 56.2963C504.187 56.2743 504.562 56.2684 504.922 56.2538C505.421 56.2356 505.421 56.2356 506.232 56.3252C506.439 56.348 506.659 56.3456 506.924 56.3314C507.151 56.3202 507.387 56.3399 507.55 56.3834C507.617 56.4008 507.596 56.4303 507.459 56.528C507.46 56.6002 507.614 56.5672 507.664 56.5199C507.743 56.4518 507.588 56.4304 507.295 56.4683C507.09 56.4956 506.988 56.5343 507.04 56.565C507.07 56.5811 507.211 56.6011 507.459 56.528C508.103 56.4372 508.595 56.425 509.065 56.3996C509.344 56.3852 509.521 56.3904 509.742 56.4279C510.008 56.4725 510.274 56.52 510.707 56.4948C511.177 56.4664 511.677 56.4615 512.154 56.4376C512.595 56.4153 512.824 56.4792 513.105 56.5163C513.444 56.5607 513.818 56.5077 514.127 56.533C514.451 56.5582 514.681 56.6221 515.056 56.6324C515.599 56.5905 515.947 56.6628 516.36 56.7098C516.684 56.7453 517.065 56.7114 517.41 56.6939C517.8 56.6747 518.124 56.6897 518.397 56.7416C518.707 56.8007 519.053 56.7861 519.405 56.7715C520.228 56.7389 520.257 56.7343 520.737 56.8134C521.084 56.871 521.414 56.8432 521.76 56.8345C522.062 56.8731 522.357 56.9146 522.674 56.9487C522.755 56.9572 522.909 56.9419 523.034 56.937C523.394 56.9238 523.761 56.9106 524.121 56.8974C524.364 56.8891 524.62 56.866 524.841 56.874C525.062 56.8835 525.247 56.9254 525.446 56.9526C525.646 56.9798 525.852 57.007 526.044 57.0357C526.339 57.0787 526.62 57.1144 527.031 57.0907C527.383 57.0702 527.75 57.0629 528.118 57.0482C528.58 57.0302 528.566 57.0347 529.428 57.1197C529.893 57.1664 530.369 57.1057 530.839 57.098C531.074 57.0941 531.303 57.1094 531.466 57.1515C531.532 57.1689 531.511 57.1984 531.534 57.2234C530.322 57.2678 529.102 57.3064 527.905 57.3597C527.443 57.3806 527.199 57.3286 526.948 57.2854C526.534 57.2163 525.993 57.3215 525.601 57.2317C525.364 57.1782 525.025 57.1486 524.621 57.1767C524.387 57.1923 524.137 57.1918 523.894 57.206C523.278 57.2408 522.712 57.2445 522.216 57.1448C522.046 57.1101 521.803 57.092 521.626 57.0588C521.419 57.0228 521.22 57.0029 520.978 57.0112C519.883 57.0508 518.796 57.0904 517.709 57.1329C517.614 57.1362 517.519 57.1587 517.438 57.1752C517.233 57.2172 517.301 57.2493 517.632 57.2746C517.743 57.283 517.831 57.3017 517.935 57.3161C518.134 57.3432 518.319 57.3867 518.54 57.3961C518.76 57.4056 519.017 57.384 519.26 57.3757C519.502 57.3674 519.759 57.3443 519.98 57.3523C520.2 57.3617 520.385 57.4037 520.592 57.4294C520.688 57.4423 520.806 57.4639 520.902 57.462C521.387 57.4513 521.864 57.4333 522.349 57.4181C522.651 57.4567 522.91 57.5131 523.271 57.5249C523.499 57.5329 523.741 57.5157 523.976 57.5178C524.079 57.5188 524.212 57.5404 524.264 57.5593C524.294 57.571 524.199 57.6008 524.126 57.6158C523.848 57.6729 523.466 57.664 523.121 57.683C522.746 57.7036 522.408 57.6991 522.12 57.6428C521.927 57.6053 521.714 57.5855 521.479 57.5938C520.869 57.6153 520.267 57.6397 519.657 57.6583C519.554 57.6616 519.429 57.6488 519.333 57.6389C518.559 57.5521 518.558 57.5492 518.015 57.5704C517.214 57.6015 517.215 57.6015 516.676 57.5256C516.572 57.5113 516.461 57.4837 516.373 57.4856C515.521 57.5124 514.676 57.5393 513.832 57.5764C513.553 57.5878 513.362 57.5886 513.155 57.5511C512.977 57.5194 512.771 57.4834 512.55 57.4754C512.322 57.4675 512.072 57.4905 511.83 57.4988C511.587 57.5071 511.331 57.5273 511.117 57.5163C510.896 57.5054 510.704 57.4649 510.512 57.4363C510.313 57.4061 510.1 57.4084 509.828 57.4212C508.991 57.4584 508.983 57.454 508.15 57.3659C508.054 57.356 507.929 57.3447 507.826 57.3481C507.216 57.3681 506.614 57.3925 506.005 57.4126C505.77 57.4209 505.541 57.4026 505.378 57.3606C505.312 57.3431 505.333 57.3136 505.287 57.2564C505.235 57.2433 505.295 57.2667 505.31 57.2887C505.42 57.2853 505.553 57.2877 505.633 57.2756C505.838 57.2469 505.94 57.2097 505.888 57.1789C505.858 57.1629 505.718 57.1428 505.63 57.1431C505.468 57.1438 505.329 57.1767 505.287 57.2564C504.825 57.3067 504.333 57.319 503.856 57.3444C503.577 57.3602 503.4 57.3535 503.179 57.3161C502.913 57.27 502.639 57.2255 502.206 57.2507C501.737 57.279 501.237 57.2854 500.752 57.3079C500.194 57.3336 499.948 57.2021 499.477 57.2069C498.992 57.2117 498.508 57.2386 498.023 57.2582C497.597 57.2746 497.597 57.2745 496.712 57.1823C496.388 57.1482 496.007 57.2012 495.69 57.1657C495.476 57.1429 495.291 57.1083 495.085 57.0841C494.996 57.0742 494.857 57.0747 494.747 57.0781C494.137 57.0981 493.52 57.1123 492.932 57.147C492.264 57.1878 491.756 57.1486 491.276 57.0636C490.673 57.0822 490.064 57.0934 489.469 57.1237C489.036 57.146 488.784 57.0984 488.489 57.0598C488.386 57.0469 488.297 57.0252 488.187 57.0197C488.076 57.0143 487.944 57.0265 487.827 57.0314C487.342 57.0495 486.842 57.0588 486.372 57.0871C485.793 57.1233 485.569 57.0034 485.12 56.9904C484.82 57.0637 484.661 57.163 484.066 57.1727C483.581 57.1804 483.097 57.2059 482.612 57.224C482.369 57.2323 482.127 57.2421 481.885 57.2504C481.495 57.2651 481.313 57.3232 481.397 57.4112C481.442 57.4597 481.48 57.5081 481.518 57.5565C481.594 57.6431 481.412 57.7174 481.104 57.7289C480.251 57.7602 479.407 57.7929 478.555 57.8213C478.327 57.8295 478.106 57.8053 477.921 57.7663C477.729 57.7273 477.515 57.7105 477.28 57.7188C476.428 57.7501 475.583 57.7828 474.731 57.8111C474.636 57.8145 474.511 57.8002 474.415 57.7888C474.208 57.7631 474.009 57.733 473.809 57.7058C473.325 57.7209 472.847 57.7316 472.37 57.7511C471.598 57.7806 471.598 57.7821 471.03 57.7034C470.927 57.689 470.823 57.6615 470.728 57.6633C470.36 57.6706 470.001 57.6868 469.633 57.7014C468.554 57.7439 468.554 57.7439 468.236 57.701C467.948 57.6609 467.69 57.6119 467.257 57.6371C466.787 57.6654 466.287 57.6762 465.802 57.6928C465.442 57.7045 465.083 57.7177 464.722 57.722C464.627 57.7239 464.523 57.6963 464.42 57.682C464.125 57.6375 463.837 57.6018 463.433 57.6284C463.198 57.6441 462.949 57.648 462.706 57.6563C462.074 57.6794 462.074 57.6793 461.035 57.5951C460.932 57.5866 460.807 57.5768 460.704 57.5816C459.852 57.6115 459.008 57.6442 458.156 57.6725C458.053 57.6759 457.928 57.6675 457.824 57.6606C456.661 57.5797 456.661 57.5797 455.427 57.6257C454.957 57.6423 454.942 57.6482 454.447 57.5721C454.226 57.5391 454.042 57.5237 453.785 57.535C452.815 57.5741 451.838 57.6014 450.876 57.6464C450.443 57.6658 450.192 57.6226 449.897 57.584C449.793 57.5711 449.682 57.5421 449.594 57.5439C448.624 57.5757 447.655 57.6133 446.685 57.6451C446.597 57.6484 446.486 57.6193 446.383 57.6065C446.184 57.5808 445.991 57.5418 445.771 57.5338C445.542 57.5259 445.293 57.5489 445.043 57.5572C444.434 57.5788 444.434 57.5773 443.725 57.4932C443.63 57.4818 443.504 57.4661 443.409 57.4694C442.439 57.5026 441.462 57.5314 440.5 57.5779C439.949 57.6036 439.573 57.5624 439.182 57.502C439.101 57.4891 438.961 57.4838 438.858 57.4871C437.764 57.5252 436.677 57.5677 435.582 57.6059C435.355 57.6141 435.133 57.5899 434.948 57.5524C434.653 57.4932 434.308 57.5019 433.94 57.5166C433.096 57.5508 433.088 57.5493 432.586 57.4806C432.483 57.4663 432.395 57.4475 432.284 57.4406C432.181 57.4336 432.049 57.4386 431.939 57.4419C431.454 57.4585 430.969 57.4766 430.484 57.4947C429.999 57.5128 429.507 57.5235 429.03 57.5504C428.443 57.5836 428.161 57.489 427.748 57.4465C427.145 57.4679 426.528 57.4821 425.934 57.5154C425.478 57.5407 425.264 57.4767 424.961 57.4441C424.858 57.4327 424.747 57.4081 424.651 57.4114C423.557 57.4481 422.463 57.4877 421.376 57.5316C421.111 57.5415 420.935 57.5304 420.713 57.4959C420.218 57.4184 420.196 57.4214 419.374 57.4541C419.014 57.4687 418.669 57.4818 418.358 57.4227C418.085 57.3693 417.754 57.3573 417.364 57.3765C416.887 57.4004 416.395 57.4141 415.91 57.4307C415.425 57.4488 414.941 57.4728 414.456 57.482C414.066 57.4909 413.829 57.4227 413.52 57.3885C413.424 57.3786 413.291 57.3776 413.181 57.381C412.696 57.3961 412.197 57.4084 411.727 57.4352C411.154 57.4684 410.836 57.3887 410.43 57.3431C410.342 57.3332 410.195 57.3396 410.085 57.3445C409.233 57.3743 408.388 57.407 407.536 57.4383C407.234 57.3997 406.924 57.3627 406.621 57.3241C406.137 57.3407 405.652 57.3588 405.167 57.3754C404.8 57.3886 404.425 57.3945 404.08 57.4179C403.632 57.4491 403.41 57.3808 403.108 57.3481C403.004 57.3367 402.893 57.3121 402.798 57.3154C402.188 57.334 401.579 57.3541 400.976 57.3814C400.404 57.4087 400.172 57.2771 399.702 57.2804C399.217 57.2837 398.717 57.3048 398.247 57.3332C397.704 57.3662 397.321 57.3206 396.929 57.2588C396.848 57.2459 396.708 57.2391 396.605 57.2424C395.996 57.2624 395.393 57.2869 394.784 57.3069C394.681 57.3103 394.556 57.3034 394.453 57.295C393.289 57.2126 393.289 57.2112 392.782 57.2308C392.422 57.244 392.055 57.2601 391.687 57.2689C391.585 57.2723 391.459 57.2595 391.363 57.2481C390.596 57.1613 390.596 57.1598 390.045 57.1796C389.561 57.1977 389.076 57.2158 388.591 57.2339C388.289 57.1953 387.979 57.1582 387.676 57.1197C387.074 57.1411 386.457 57.1583 385.862 57.1871C385.583 57.1999 385.399 57.1962 385.185 57.1603C384.919 57.1171 384.653 57.0667 384.213 57.0934C383.743 57.1217 383.243 57.1266 382.766 57.1506C382.193 57.1793 381.954 57.0462 381.491 57.0495C381.006 57.0529 380.507 57.074 380.037 57.1023C379.494 57.1353 379.11 57.0897 378.719 57.0279C378.638 57.015 378.498 57.0082 378.395 57.0115C377.058 57.0594 375.729 57.1073 374.392 57.1581C373.569 57.1893 373.569 57.1908 372.001 57.1159C371.891 57.1105 371.773 57.105 371.663 57.1084C371.178 57.1235 370.678 57.1358 370.208 57.1627C369.636 57.1958 369.318 57.1175 368.912 57.0705C368.823 57.0606 368.684 57.067 368.566 57.0704C368.199 57.0821 367.839 57.0968 367.472 57.11C366.987 57.1281 366.503 57.1462 366.018 57.1643C365.715 57.1272 365.405 57.0886 365.103 57.0515C364.501 57.073 363.883 57.0857 363.289 57.1189C362.834 57.1443 362.619 57.0833 362.316 57.0491C362.213 57.0377 362.102 57.0131 362.007 57.015C360.912 57.0516 359.818 57.0898 358.731 57.1352C358.283 57.1546 358.075 57.0892 357.773 57.0565C357.67 57.0466 357.552 57.0279 357.456 57.0312C356.729 57.0547 356.002 57.0825 355.275 57.1104C354.863 57.1267 354.863 57.1267 353.964 57.0389C353.861 57.029 353.743 57.0192 353.64 57.0225C351.334 57.1051 349.035 57.1921 346.728 57.2747C346.493 57.283 346.28 57.2617 346.095 57.2227C345.903 57.1837 345.689 57.1639 345.454 57.1722C344.484 57.2069 343.507 57.2387 342.545 57.2807C342.149 57.2984 341.832 57.2805 341.558 57.2301C341.352 57.1926 341.16 57.1786 340.903 57.1885C340.418 57.208 339.934 57.2246 339.449 57.2427C338.964 57.2608 338.479 57.2789 337.995 57.2969C337.51 57.315 337.017 57.3258 336.54 57.3527C335.953 57.3859 335.664 57.2957 335.258 57.2517C334.531 57.2766 333.804 57.3015 333.084 57.3278C332.114 57.3625 331.145 57.4002 330.175 57.4334C330.087 57.4367 329.976 57.4106 329.873 57.3978C329.571 57.3621 329.349 57.3115 328.901 57.3294C326.727 57.4159 324.538 57.4907 322.356 57.5757C321.901 57.5937 321.701 57.5312 321.391 57.4985C321.288 57.4886 321.17 57.4685 321.074 57.4718C319.862 57.5133 318.65 57.5592 317.439 57.6037C316.946 57.6218 316.946 57.6218 316.121 57.5338C316.025 57.5238 315.899 57.5111 315.796 57.5144C314.217 57.5706 312.645 57.6297 311.066 57.6874C310.831 57.6957 310.618 57.6759 310.425 57.6369C310.24 57.5979 310.019 57.5767 309.792 57.5849C308.337 57.6377 306.876 57.689 305.429 57.7462C305.039 57.7624 304.716 57.7504 304.435 57.6985C304.235 57.661 304.036 57.6456 303.787 57.6554C301.605 57.736 299.424 57.8137 297.242 57.8988C296.824 57.9151 296.529 57.8883 296.263 57.8408C296.049 57.8033 295.865 57.7967 295.6 57.8036C295.321 57.812 295.152 57.8289 294.999 57.8736C294.802 57.9318 294.679 58.0044 294.209 58.0107C293.724 58.017 293.232 58.0366 292.755 58.0635C292.299 58.0903 292.084 58.0249 291.797 57.9862C291.583 57.9591 291.384 57.9554 291.112 57.9698C290.863 57.9825 290.709 58.0081 290.563 58.0558C290.243 58.1572 290.213 58.1573 289.815 58.0955C289.6 58.0625 289.408 58.0367 289.173 58.0435C288.204 58.0768 287.234 58.1129 286.265 58.1506C285.707 58.1719 285.699 58.1749 285.278 58.1029C285.072 58.0669 284.873 58.05 284.63 58.0598C281.964 58.1585 279.298 58.2543 276.632 58.3574C276.22 58.3737 275.94 58.3439 275.645 58.3009C275.549 58.2865 275.453 58.2663 275.342 58.2608C275.232 58.2554 275.107 58.2617 274.99 58.2651C273.051 58.336 271.104 58.4039 269.172 58.4821C268.732 58.5 268.495 58.4539 268.193 58.4168C268.09 58.4039 268.001 58.3836 267.89 58.3782C267.78 58.3742 267.648 58.385 267.53 58.3899C265.591 58.4607 263.645 58.5287 261.713 58.6069C261.25 58.6249 261.05 58.5638 260.748 58.5326C260.645 58.5212 260.534 58.4996 260.438 58.5029C259.829 58.5215 259.227 58.5459 258.617 58.5674C257.163 58.6216 255.708 58.673 254.254 58.7287C253.696 58.75 253.45 58.6199 252.979 58.6276C252.369 58.6374 251.767 58.6692 251.158 58.6921C250.673 58.7102 250.188 58.7268 249.703 58.7464C249.226 58.7645 249.226 58.7644 248.033 58.6837C247.929 58.6767 247.804 58.6669 247.701 58.6703C246.005 58.7314 244.301 58.7925 242.611 58.8579C242.222 58.8727 241.898 58.8666 241.618 58.8132C241.418 58.7757 241.212 58.7574 240.969 58.7672C238.421 58.861 235.879 58.9548 233.331 59.0472C233.235 59.0505 233.11 59.0363 233.014 59.0249C232.807 58.9992 232.608 58.969 232.409 58.9418C232.263 58.9763 232.072 59.0079 231.978 59.0466C231.847 59.0986 231.671 59.114 231.392 59.1239C231.113 59.1338 230.936 59.1316 230.714 59.0942C230.449 59.0481 230.176 59.0123 229.742 59.0288C227.076 59.1319 224.41 59.2262 221.744 59.3278C221.303 59.3443 221.095 59.2803 220.786 59.2477C220.682 59.2378 220.564 59.222 220.469 59.2253C219.374 59.2635 218.287 59.3045 217.193 59.3441C214.159 59.456 211.126 59.5635 208.1 59.6813C207.549 59.7026 207.173 59.6672 206.782 59.6055C206.701 59.5925 206.561 59.5857 206.458 59.5891C202.213 59.744 197.967 59.9004 193.729 60.0567C193.501 60.065 193.28 60.0423 193.095 60.0047C192.903 59.9657 192.689 59.9474 192.454 59.9557C190.515 60.0266 188.576 60.0974 186.637 60.1697C186.152 60.1878 186.145 60.1893 185.643 60.1206C185.54 60.1063 185.429 60.0788 185.348 60.082C185.179 60.09 185.018 60.1275 184.902 60.178C184.786 60.2314 184.603 60.2468 184.331 60.2582C184.052 60.2696 183.868 60.2659 183.654 60.2314C183.381 60.1883 183.129 60.1466 182.689 60.163C177.114 60.3732 171.539 60.576 165.964 60.7846C165.516 60.8011 165.309 60.7401 164.999 60.7074C164.896 60.6975 164.793 60.6832 164.682 60.6807C164.565 60.6782 164.44 60.6875 164.322 60.6924C155.229 61.0267 146.136 61.3624 137.043 61.6967C136.5 61.7164 136.507 61.7164 135.915 61.8542C135.842 61.8706 135.747 61.8931 135.644 61.8964C132.86 62.0015 130.069 62.1036 127.278 62.2058C126.066 62.2502 124.855 62.2962 123.643 62.3392C123.209 62.3541 123.209 62.3541 122.177 62.5172C122.089 62.5307 121.987 62.5488 121.884 62.5522C117.036 62.7315 112.188 62.9108 107.333 63.0873C106.951 63.1005 106.643 63.1282 106.469 63.1996C106.345 63.2501 106.184 63.2802 105.942 63.29C102.548 63.4151 99.1552 63.5416 95.7544 63.6638C95.3504 63.6786 95.1088 63.7208 94.912 63.7834C94.8464 63.8043 94.7882 63.828 94.693 63.8431C94.6051 63.8567 94.473 63.8617 94.3628 63.8665C91.4542 63.9735 88.5458 64.0835 85.6297 64.1861C85.1963 64.2011 85.0212 64.2562 84.8096 64.3144C84.7366 64.3339 84.6858 64.3606 84.5906 64.3742C84.4953 64.3863 84.3557 64.3869 84.2381 64.3903C81.8143 64.4792 79.3905 64.5696 76.9667 64.6586C76.496 64.653 76.3953 64.7388 76.1688 64.7912C76.0884 64.8092 76.0304 64.833 75.9351 64.8451C75.8325 64.8573 75.7 64.8563 75.5751 64.8598C73.636 64.9306 71.6971 65.0059 69.7505 65.0724C69.3024 65.0874 69.2162 65.1628 68.975 65.2152C68.8945 65.2318 68.8145 65.2571 68.719 65.2619C67.5072 65.3093 66.2953 65.3538 65.0833 65.3968C64.6793 65.4116 64.6793 65.4101 63.9701 65.5586C63.8897 65.5751 63.7945 65.5932 63.6917 65.598C61.8775 65.6669 60.056 65.7329 58.2345 65.8003C57.9994 65.8086 57.8387 65.8446 57.7224 65.8951C57.6061 65.9456 57.4379 65.9786 57.2029 65.9869C55.7486 66.0411 54.2942 66.0968 52.8398 66.1467C52.4358 66.16 52.1722 66.1979 51.9976 66.2648C51.8666 66.3153 51.7055 66.341 51.4485 66.3508C49.9941 66.4036 48.54 66.4608 47.0781 66.5077C46.6521 66.5212 46.4328 66.5721 46.258 66.6346C46.1197 66.6852 45.9584 66.7035 45.6866 66.7133C43.0203 66.8091 40.3468 66.9049 37.6881 67.0095C37.2401 67.0274 37.0107 66.9768 36.7157 66.9411C36.2953 66.8912 35.9042 66.8368 35.9011 66.722C35.9006 66.7043 35.7751 66.6842 35.6865 66.6698C35.0292 66.562 35.0292 66.562 34.9231 66.4446C34.8623 66.3727 34.7942 66.2994 34.7407 66.226C34.6419 66.1057 34.4057 66.0757 33.73 66.1004C33.4876 66.1087 33.2453 66.1199 33.0028 66.1268C32.6429 66.1385 32.3696 66.0909 32.3011 66.0029C32.263 65.9545 32.2177 65.906 32.1796 65.8576C32.5468 65.8444 32.5394 65.843 33.1815 65.6623C33.4515 65.5862 33.4516 65.5862 32.9276 65.5132C32.7284 65.486 32.5363 65.4558 32.3224 65.4301C32.2265 65.4187 32.1014 65.4119 31.9986 65.4152C31.3889 65.4352 30.7866 65.4582 30.1843 65.4811C29.2148 65.5173 29.2147 65.5173 28.2256 65.371C28.1444 65.3595 28.0188 65.338 28.0332 65.3261C28.1126 65.2713 28.3104 65.247 28.5602 65.2401C28.9275 65.2299 29.2873 65.2138 29.6473 65.2006C29.8897 65.1923 30.132 65.1825 30.3744 65.1742C30.6008 65.1174 30.8347 65.062 31.0463 65.0038C31.3821 64.9141 31.3819 64.9112 30.9171 64.8512C30.6219 64.8111 30.3048 64.7755 30.0024 64.7384C29.6425 64.7516 29.2753 64.7663 28.9153 64.778C28.4599 64.793 28.2753 64.7657 28.1551 64.6705C28.05 64.587 28.173 64.5144 28.5254 64.4954C28.8851 64.4763 29.2231 64.4632 29.4049 64.3874C29.5794 64.3146 29.8873 64.2854 30.2695 64.278C30.5119 64.2727 30.7543 64.2615 30.9966 64.2517C31.3124 64.2387 31.4795 64.1629 31.4111 64.0793C31.3729 64.025 31.2981 63.9796 31.0111 63.969C29.7379 63.9224 29.7231 63.9239 29.0882 63.8263C29.0291 63.8177 28.9844 63.7914 29.0061 63.778C29.0423 63.7558 29.1223 63.7231 29.2104 63.7183C30.0549 63.6827 30.8995 63.6499 31.7444 63.6246C32.0235 63.6161 32.2291 63.605 32.3232 63.5502C32.4535 63.4746 32.3928 63.4056 32.1341 63.3551C32.0528 63.3392 31.9198 63.3191 31.8317 63.3209C30.862 63.3512 29.8999 63.3888 28.9302 63.4191C28.8421 63.4224 28.6797 63.398 28.6425 63.379C28.568 63.344 28.6769 63.2964 28.9338 63.2792C29.2714 63.2558 29.6168 63.253 29.8427 63.1785C30.156 63.0728 30.543 62.9756 30.8932 62.8741C30.9515 62.8562 31.0463 62.822 31.0242 62.8191C30.8395 62.7875 30.6256 62.7633 30.4337 62.7331C30.1088 62.6828 30.1068 62.6107 30.1784 62.5413C30.2357 62.4851 30.4557 62.4621 30.7277 62.4611C30.8453 62.4606 30.9923 62.4601 31.0876 62.4464C31.3366 62.4131 31.4164 62.3715 31.2906 62.3411C31.2166 62.3237 31.0837 62.2992 30.9955 62.3025C29.4236 62.3572 27.8442 62.4105 26.28 62.4769C25.8173 62.4964 25.6027 62.4413 25.3223 62.4026C25.1083 62.3726 24.9093 62.3615 24.6453 62.3847C24.3959 62.4062 24.1531 62.3954 23.9974 62.3474C23.8713 62.3082 24.0909 62.2735 24.6853 62.2329C24.7954 62.2251 24.9202 62.2202 25.0007 62.2051C25.8492 62.0428 25.8491 62.0414 26.4367 62.0185C27.0096 61.9971 27.0097 61.9956 27.3088 61.9091C27.4474 61.8688 27.6006 61.8284 27.7318 61.7867C27.7828 61.7703 27.8703 61.7405 27.8407 61.7318C27.6777 61.6868 27.4568 61.6774 27.1998 61.6887C26.6271 61.7159 25.9503 61.698 25.6526 61.839C25.5364 61.8924 25.353 61.9079 25.0886 61.9177C22.4297 62.0135 19.7708 62.1151 17.1044 62.2079C16.6711 62.2229 16.4741 62.2781 16.3067 62.3391C16.161 62.3897 15.9996 62.4051 15.7205 62.415C15.4414 62.4249 15.2209 62.4302 15.0578 62.3823C14.9615 62.3532 15.0412 62.3117 15.2607 62.2696C15.5752 62.2095 15.5144 62.1361 15.4096 62.0673C15.3348 62.022 15.1061 61.9905 14.8635 61.9944C14.5035 62.0017 14.1585 62.0192 13.8555 61.9615C13.6781 61.9283 13.4569 61.9056 13.2576 61.8769C12.8737 61.8181 12.4898 61.7578 11.9542 61.7996C11.5862 61.7863 11.3275 61.7343 11.0323 61.6942C10.5379 61.6284 10.4935 61.6183 10.8445 61.5448C11.2393 61.4623 10.9276 61.3575 11.146 61.2772C11.3789 61.1909 11.7005 61.1145 11.985 61.0339C12.058 61.0131 12.1237 60.9937 12.1966 60.9728C12.0268 60.944 11.8714 60.9078 11.6724 60.8879C11.4143 60.8625 11.2811 60.8306 11.2934 60.7393C11.2416 60.7262 11.2644 60.76 11.3234 60.7686C11.3898 60.7772 11.5515 60.7692 11.6321 60.7586C11.8372 60.7298 11.939 60.6926 11.8867 60.6619C11.8568 60.6458 11.7167 60.6257 11.6285 60.6261C11.4668 60.6267 11.328 60.6596 11.286 60.7393C10.4643 60.8028 9.61216 60.8356 8.76002 60.8625C8.67188 60.8658 8.56088 60.8368 8.45756 60.8224C8.11804 60.7737 8.11804 60.7752 7.12519 60.7643C7.02222 60.7632 6.88206 60.7432 6.83005 60.7228C6.61443 60.6338 6.61918 60.5352 6.51367 60.4399C6.70315 60.3773 6.89251 60.3162 7.08937 60.2551C7.48305 60.1314 7.99487 60.0219 8.30002 59.8868C8.23191 59.8149 8.14173 59.7431 8.46361 59.683C9.38056 59.6058 9.37327 59.6058 9.62131 59.5342C10.329 59.3312 11.0293 59.1268 11.7664 58.9266C11.9636 58.8743 11.9628 58.8464 11.6094 58.8257C11.4989 58.8202 11.3811 58.8192 11.2636 58.8226C10.8963 58.8343 10.5294 58.8623 10.169 58.8578C9.80868 58.8548 9.54228 58.791 9.24715 58.7524C8.94462 58.7124 8.64207 58.6709 8.33951 58.6294C7.99411 58.6351 7.64977 58.6777 7.30246 58.6128C7.03641 58.5623 6.70462 58.5268 6.40206 58.4853C6.62694 58.3725 7.05109 58.2855 7.37924 58.1856C7.67823 58.0946 7.68546 58.096 8.49226 58.0237C8.87366 57.9898 9.00151 57.823 8.67673 57.7757C8.28551 57.7183 7.87245 57.6654 7.47395 57.611C7.12855 57.6168 6.77683 57.6579 6.44422 57.593C6.18557 57.5439 5.89054 57.5112 5.46466 57.532C4.74509 57.5672 4.0104 57.5863 3.28331 57.6156C3.0336 57.6254 2.76136 57.6206 2.64974 57.5709C2.57527 57.5359 2.78716 57.4865 3.02949 57.4752C3.39666 57.4591 3.72697 57.4401 3.90877 57.3658C4.08322 57.2915 4.40606 57.2682 4.78806 57.2564C4.8909 57.2531 5.00813 57.2349 5.05912 57.2171C5.32147 57.1307 5.61356 57.0559 6.17971 57.0567C6.41416 57.0263 6.53806 56.989 6.4636 56.954C6.41897 56.935 6.26399 56.9106 6.17585 56.9139C5.56608 56.931 4.95632 56.9481 4.36156 56.9769C4.08252 56.9898 3.86929 56.9935 3.69167 56.95C3.5659 56.9211 3.63098 56.8811 3.86508 56.8375C4.06993 56.7999 4.12765 56.757 4.1116 56.707C4.0717 56.5908 3.8502 56.5578 3.14466 56.5679C2.63756 56.5758 2.51206 56.5571 2.39909 56.4575C2.36905 56.434 2.29479 56.4019 2.34581 56.3856C2.65922 56.2842 2.86174 56.1598 3.45595 56.1104C3.69072 56.0918 3.94057 56.0908 4.08657 56.052C4.23256 56.0131 4.36376 55.9684 4.51715 55.931C4.7071 55.8861 4.83819 55.8444 4.74921 55.8168C4.60083 55.7673 4.36554 55.7638 4.09401 55.7825C3.85916 55.7982 3.60926 55.8006 3.3669 55.8104C2.9336 55.8283 2.57977 55.7914 2.52656 55.7268C2.38228 55.5566 2.23064 55.3879 2.10105 55.2176C2.08579 55.1971 2.12174 55.1704 2.18007 55.1525C2.38424 55.0899 2.60329 55.0302 2.81485 54.969C3.06294 54.8988 3.46034 54.9105 3.79815 54.896C4.27548 54.875 4.27536 54.8764 4.91113 54.7326C5.15957 54.6757 5.59393 54.6961 5.84988 54.6451C5.93031 54.6285 6.05457 54.6016 6.03212 54.5869C6.00219 54.5679 5.85484 54.5538 5.74433 54.5454C5.64117 54.5369 5.51611 54.533 5.40596 54.5378C4.06913 54.5857 2.73978 54.6366 1.40292 54.683C1.17522 54.6912 0.924386 54.6598 0.842288 54.6145C0.76027 54.5721 0.780862 54.5205 0.764848 54.472C0.976413 54.4108 1.21741 54.3539 1.39945 54.2885C1.53778 54.2379 1.69894 54.2151 1.97822 54.2111C2.34568 54.2053 2.70546 54.1862 3.11679 54.1713C3.87555 53.9535 4.61927 53.7253 5.43684 53.5072C5.76532 53.4191 5.6822 53.3311 5.74586 53.2381C5.80972 53.1524 6.3026 53.1638 6.63274 53.1375C6.89684 53.1158 6.98367 53.0684 6.87988 53.0364C6.82055 53.0175 6.6877 52.9959 6.58478 52.9963C6.34218 52.9972 6.09994 53.0114 5.85754 53.0197C5.61514 53.028 5.33568 53.0247 5.13786 53.0505C4.94736 53.0748 4.82366 53.1253 4.69984 53.1685C4.56143 53.2162 4.37821 53.2331 4.09893 53.2371C3.73879 53.2415 3.37894 53.2561 3.01899 53.2678C2.62046 53.212 2.20719 53.1576 1.82328 53.0988C1.74945 53.0873 1.73375 53.0535 1.74051 53.0314C1.75366 52.9739 1.64246 52.939 1.39911 52.912C1.19263 52.8892 1.02262 52.856 0.830685 52.8273C0.976643 52.787 1.1374 52.7481 1.25387 52.705C1.50875 52.6142 1.83051 52.5482 2.3893 52.5489C2.6083 52.4907 2.78278 52.4193 3.06841 52.3784C3.33939 52.3391 3.80359 52.3756 4.00708 52.2879C4.10885 52.2448 4.26201 52.1957 4.46002 52.1772C4.77538 52.148 5.18746 52.1611 5.36902 52.078C5.47802 52.0305 5.63854 51.9871 5.85142 51.9745C6.09366 51.9603 6.34347 51.9564 6.51915 51.9278C6.61432 51.9127 6.71662 51.8887 6.71606 51.8681C6.71571 51.8549 6.56824 51.8348 6.46508 51.8264C6.36923 51.8165 6.24391 51.8096 6.13372 51.813C5.76638 51.8232 5.4066 51.8408 5.03926 51.8511C4.93642 51.8544 4.81856 51.8446 4.70804 51.8362C4.38394 51.8139 4.40516 51.7844 4.66103 51.7304C4.91695 51.6779 5.09905 51.6109 5.31061 51.5497C5.54558 51.5385 5.83972 51.5418 6.0007 51.5132C6.27147 51.4665 6.46077 51.3995 6.67977 51.3412C6.92213 51.3314 7.17199 51.3275 7.39945 51.3104C7.49486 51.3042 7.53813 51.2716 7.61848 51.2522C7.76452 51.2148 7.88816 51.1613 8.08618 51.1429C8.40893 51.1151 8.80618 51.1239 8.99514 51.0422C9.10414 50.9946 9.27181 50.9439 9.47757 50.9402C10.0508 50.9321 10.2913 50.8502 10.5832 50.7725C10.8022 50.7142 11.2735 50.7418 11.5146 50.6835C11.6753 50.646 11.7918 50.5999 11.9526 50.564C12.0183 50.549 12.1578 50.5411 12.2679 50.5363C12.8702 50.5118 13.4799 50.4933 14.0821 50.4674C14.1775 50.4626 14.2652 50.4402 14.3382 50.4222C14.4916 50.3833 14.5856 50.33 14.7761 50.3042C14.9666 50.2784 15.2385 50.2774 15.4736 50.2691C16.2302 50.2441 16.2892 50.2497 16.6314 50.1232C16.908 50.0206 17.5937 50.0901 17.8186 49.9773C17.9492 49.912 18.1902 49.8581 18.6238 49.849C19.2337 49.8364 19.8357 49.806 20.4454 49.7845C20.9889 49.7647 20.9816 49.7648 21.566 49.6256C21.829 49.5627 22.2189 49.57 22.5641 49.5569C22.9314 49.5437 23.2691 49.5247 23.4435 49.4504C23.618 49.3776 23.9408 49.3528 24.3154 49.341C24.6607 49.3294 25.0506 49.3352 25.321 49.2753C25.9788 49.1314 25.9714 49.13 26.4342 49.1134C27.1614 49.0871 27.8885 49.0607 28.6156 49.0328C29.1004 49.0147 29.6075 49.0098 30.0625 48.9757C30.3926 48.9508 30.5374 48.8678 30.749 48.8096C31.3513 48.7851 31.9535 48.7607 32.5557 48.7377C33.4004 48.705 34.2524 48.6752 35.1044 48.6439C35.4705 48.5865 35.5187 48.4627 36.1361 48.4544C36.5036 48.45 36.8633 48.4295 37.2306 48.4163C37.8402 48.3933 38.4423 48.3645 39.0522 48.3518C39.5151 48.3426 39.5937 48.2628 39.835 48.2118C39.9153 48.1938 39.9882 48.1685 40.0837 48.1637C41.0383 48.1188 42.0231 48.1061 42.9551 48.0421C43.0505 48.0359 43.1379 48.0046 43.1594 47.9825C43.1738 47.9706 43.0482 47.949 42.967 47.939C42.8711 47.9276 42.7459 47.9164 42.6431 47.9197C39.6095 48.0301 36.5762 48.1421 33.5426 48.2525C33.1166 48.2689 33.1166 48.2674 32.0844 48.4334C31.9966 48.447 31.8939 48.4621 31.7838 48.4669C31.299 48.4865 30.8068 48.4987 30.3295 48.5227C29.9404 48.5418 29.6165 48.5254 29.3358 48.4735C29.1362 48.436 28.93 48.4251 28.6801 48.429C28.4009 48.4345 28.2176 48.4514 28.057 48.4918C27.8452 48.5471 27.7368 48.6181 27.2888 48.6346C25.2247 48.7059 23.1607 48.7846 21.1041 48.8604C20.8169 48.8409 20.6764 48.8105 20.7489 48.7734C20.7924 48.7512 20.8799 48.7214 20.968 48.7181C21.8126 48.6839 22.6646 48.6541 23.5093 48.6214C23.6268 48.6165 23.7886 48.6188 23.8543 48.6038C24.176 48.5363 24.2909 48.4284 24.9008 48.4187C25.2536 48.4129 25.6132 48.3894 25.9508 48.3675C26.0462 48.3612 26.1336 48.3299 26.1551 48.3078C26.1621 48.296 26.0439 48.2743 25.9554 48.2644C25.6307 48.223 25.2573 48.276 24.933 48.2478C24.8225 48.2379 24.6676 48.2238 24.6451 48.2062C24.6299 48.1901 24.7542 48.1631 24.842 48.1465C24.9224 48.1315 25.0323 48.1178 25.1425 48.113C26.1119 48.0753 27.0815 48.0362 28.0512 48.006C28.4479 47.9941 28.7262 47.9562 28.9008 47.8878C29.0318 47.8373 29.1928 47.8101 29.4426 47.8018C31.1393 47.7407 32.8358 47.6738 34.54 47.6171C34.9661 47.6036 35.1854 47.5542 35.3601 47.4902C35.4985 47.4396 35.6597 47.4213 35.9315 47.4114C38.3628 47.3254 40.7791 47.2306 43.2104 47.1475C43.6585 47.1326 43.7892 47.0687 44.0156 47.0134C44.096 46.9939 44.1467 46.9702 44.2493 46.958C44.3519 46.9458 44.4843 46.9468 44.6091 46.9433C46.5482 46.8725 48.4873 46.7972 50.4339 46.7308C50.8893 46.7157 50.9754 46.6418 51.2093 46.5893C51.2897 46.5728 51.3626 46.5461 51.458 46.5413C52.9123 46.4856 54.3666 46.4328 55.8209 46.3785C56.7904 46.3424 57.7599 46.3062 58.7294 46.2715C59.2069 46.2549 59.2069 46.2535 59.85 46.1111C59.9231 46.0946 60.0256 46.0751 60.121 46.0703C62.9121 45.9652 65.6958 45.8646 68.4869 45.761C68.7219 45.7527 68.8901 45.7182 69.0063 45.6676C69.1226 45.6171 69.2909 45.5826 69.5186 45.5744C71.7 45.4923 73.8814 45.4116 76.0703 45.3339C76.467 45.3206 76.7453 45.2842 76.92 45.2173C77.0509 45.1667 77.212 45.1396 77.4617 45.1312C79.6432 45.0521 81.8247 44.9685 84.0136 44.8923C84.4323 44.8774 84.6367 44.8265 84.8409 44.7668C84.9139 44.746 84.9718 44.7119 85.06 44.7086C86.1469 44.6631 87.2264 44.6162 88.321 44.584C88.7765 44.5704 88.9292 44.508 89.1114 44.4484C89.2572 44.4007 89.4259 44.3839 89.7051 44.3769C90.3149 44.3613 90.917 44.3339 91.5118 44.3066C91.5999 44.3018 91.7093 44.269 91.7161 44.2484C91.7298 44.21 91.5599 44.1842 91.2802 44.172C88.3716 44.2791 85.4557 44.3861 82.5471 44.4931C82.0697 44.5112 82.0697 44.5112 81.4265 44.6535C81.3534 44.67 81.2509 44.6896 81.1481 44.6944C78.3571 44.798 75.5734 44.9001 72.7823 45.0037C72.5473 45.012 72.3791 45.0465 72.2628 45.097C72.1466 45.1475 71.9783 45.182 71.7506 45.1903C69.0843 45.289 66.4182 45.3892 63.7446 45.4835C63.3479 45.4968 63.0695 45.5318 62.8949 45.6002C62.7639 45.6507 62.6029 45.6779 62.3532 45.6862C59.8044 45.7786 57.263 45.8753 54.7068 45.9648C54.4497 45.9731 54.2576 45.9312 54.2712 45.8914C54.278 45.8707 54.3872 45.8365 54.4753 45.8332C55.8046 45.7794 57.1267 45.7242 58.4637 45.6822C58.9118 45.6687 59.0423 45.6034 59.2687 45.5481C59.3417 45.5286 59.3999 45.5034 59.4952 45.4927C59.5978 45.4805 59.7301 45.4815 59.855 45.4781C63.006 45.3613 66.157 45.243 69.3155 45.1321C69.7709 45.1156 69.8571 45.0431 70.0909 44.9906C70.1713 44.9727 70.2442 44.9459 70.3397 44.9426C71.3091 44.9035 72.2786 44.8688 73.2482 44.8341C74.9449 44.7715 76.6415 44.709 78.3456 44.6464C78.8377 44.6283 78.8377 44.6283 79.4662 44.4874C79.5393 44.471 79.6417 44.45 79.7372 44.4467C84.225 44.2805 88.7128 44.1143 93.2006 43.9496C93.4356 43.9414 93.6038 43.9068 93.7201 43.8563C93.8364 43.8073 94.0045 43.7713 94.2321 43.7616C100.299 43.5377 106.359 43.3139 112.426 43.093C112.822 43.0782 113.101 43.0462 113.275 42.9764C113.399 42.9258 113.567 42.8987 113.817 42.8889C120.486 42.6435 127.156 42.3982 133.832 42.1514C138.32 41.9867 142.808 41.8191 147.296 41.6573C147.707 41.6425 147.926 41.596 148.13 41.5348C148.196 41.5139 148.261 41.4798 148.349 41.4765C149.311 41.436 150.274 41.3984 151.236 41.3608C151.538 41.3993 151.841 41.4364 152.143 41.475C152.369 41.4182 152.589 41.3599 152.815 41.3031C154.269 41.2547 155.701 41.1829 157.171 41.1566C157.266 41.1547 157.37 41.1823 157.473 41.1966C158.159 41.2867 158.549 41.2778 158.979 41.1525C159.133 41.1077 159.264 41.0675 159.499 41.0592C160.226 41.0299 160.961 41.0093 161.68 40.9756C162.07 40.9579 162.393 40.9714 162.674 41.0233C162.874 41.0608 163.08 41.0762 163.322 41.0664C164.659 41.017 165.989 40.9691 167.325 40.9168C167.421 40.9135 167.508 40.8881 167.581 40.8702C167.735 40.8313 167.866 40.7896 168.012 40.7493C168.211 40.7735 168.432 40.7918 168.595 40.8236C168.802 40.861 168.993 40.8603 169.272 40.8489C174.604 40.65 179.944 40.4555 185.276 40.2551C185.732 40.2386 185.932 40.2997 186.242 40.3308C186.345 40.3422 186.448 40.3565 186.558 40.359C186.676 40.3615 186.801 40.3522 186.918 40.3473C190.921 40.1993 194.924 40.0526 198.927 39.9046C199.456 39.8848 199.456 39.8848 200.245 39.973C200.341 39.9844 200.467 39.9972 200.569 39.9924C202.391 39.9279 204.212 39.859 206.027 39.793C206.262 39.7847 206.461 39.8075 206.675 39.8405C207.096 39.9051 207.125 39.905 207.431 39.8067C207.577 39.7605 207.731 39.7319 207.973 39.7177C208.237 39.7019 208.451 39.7055 208.657 39.7312C208.952 39.7669 209.167 39.8279 209.615 39.8099C211.554 39.7332 213.501 39.6682 215.432 39.59C215.873 39.5721 216.109 39.6212 216.405 39.6569C216.508 39.6697 216.604 39.69 216.714 39.694C216.825 39.6979 216.957 39.6871 217.074 39.6822C219.498 39.5933 221.929 39.5058 224.346 39.411C224.801 39.3931 225.001 39.4556 225.311 39.4868C225.414 39.4981 225.532 39.5183 225.628 39.515C227.082 39.4637 228.544 39.4094 229.998 39.3551C230.52 39.3354 230.519 39.3369 231.316 39.4236C231.412 39.435 231.537 39.4463 231.64 39.443C233.337 39.3819 235.041 39.3193 236.737 39.2568C237.259 39.2371 237.259 39.2371 238.768 39.3077C238.878 39.3132 238.996 39.3216 239.106 39.3182C241.046 39.2474 242.992 39.1779 244.931 39.1027C245.32 39.0879 245.644 39.0984 245.925 39.1503C246.124 39.1878 246.331 39.2032 246.573 39.1934C248.754 39.1128 250.943 39.0351 253.117 38.9501C253.536 38.9337 253.809 38.965 254.104 39.0066C254.2 39.0209 254.296 39.0412 254.407 39.0466C254.517 39.0521 254.642 39.0457 254.759 39.0408C256.941 38.9602 259.13 38.884 261.304 38.7975C261.744 38.7796 261.981 38.8287 262.276 38.8643C262.379 38.8772 262.49 38.9033 262.578 38.9014C263.43 38.8731 264.283 38.8477 265.127 38.8076C265.582 38.7852 265.783 38.8522 266.092 38.8833C266.196 38.8932 266.314 38.9149 266.409 38.9116C268.231 38.847 270.052 38.7796 271.867 38.7107C272.124 38.7009 272.315 38.7134 272.522 38.7508C272.795 38.8013 273.112 38.8207 273.509 38.8029C274.353 38.7658 275.205 38.7389 276.057 38.7076C276.557 38.6895 276.557 38.6895 278.088 38.7601C278.198 38.7655 278.316 38.7739 278.426 38.7705C279.881 38.7178 281.342 38.6664 282.789 38.6093C283.179 38.593 283.502 38.605 283.783 38.6569C283.983 38.6944 284.182 38.7099 284.431 38.7C285.768 38.6507 287.098 38.6013 288.434 38.552C288.919 38.5339 289.404 38.504 289.889 38.5021C290.242 38.5022 290.501 38.5719 290.818 38.606C290.906 38.6159 291.053 38.6036 291.171 38.6002C292.867 38.5376 294.572 38.4795 296.261 38.4096C296.701 38.3917 296.938 38.4408 297.233 38.4765C297.336 38.4893 297.447 38.5154 297.535 38.5136C298.145 38.495 298.747 38.4706 299.357 38.4491C300.084 38.4227 300.819 38.4021 301.538 38.367C302.126 38.3382 302.35 38.4654 302.82 38.468C303.181 38.471 303.548 38.4445 303.908 38.4313C304.635 38.4049 305.362 38.3756 306.089 38.3522C306.346 38.3438 306.544 38.3195 306.624 38.2662C306.638 38.2558 306.512 38.2342 306.431 38.2213C305.449 38.075 305.449 38.0749 304.465 38.1112C303.855 38.1342 303.253 38.1571 302.643 38.1772C302.541 38.1805 302.423 38.1692 302.32 38.1608C302.025 38.1369 302.053 38.1073 302.302 38.0534C302.55 37.9994 302.74 37.9339 302.951 37.8727C303.254 37.9098 303.549 37.9469 303.851 37.984C304.094 37.9757 304.336 37.9659 304.579 37.9576C305.791 37.9146 307.003 37.8702 308.215 37.8301C308.303 37.8268 308.414 37.8558 308.517 37.8702C308.812 37.9117 309.078 37.9475 309.504 37.9296C310.591 37.8827 311.685 37.8475 312.772 37.8065C313.25 37.7884 313.25 37.7884 314.09 37.8764C314.186 37.8864 314.311 37.8976 314.414 37.8943C315.509 37.8562 316.596 37.8151 317.69 37.7755C317.925 37.7673 318.154 37.7855 318.324 37.8275C318.391 37.845 318.377 37.8744 318.662 38.1148C319.535 38.3072 320.13 38.2843 320.732 38.2642C320.99 38.2559 321.217 38.2476 321.386 38.2175C321.473 38.201 321.583 38.177 321.582 38.1579C321.582 38.1431 321.42 38.1202 321.317 38.1177C320.588 38.0911 319.899 38.1556 319.186 38.1716C318.855 38.1788 318.567 38.1284 318.506 38.0447C318.491 38.0212 318.468 37.9963 318.445 37.9728C318.423 37.9494 318.407 37.9244 318.385 37.9009C318.098 37.8947 317.929 37.9218 317.806 37.9724C317.704 38.014 317.558 38.0617 317.36 38.0845C317.162 38.1088 316.89 38.1055 316.648 38.1138C316.413 38.1221 316.156 38.1422 315.935 38.1328C315.714 38.1218 315.537 38.0798 315.33 38.0541C315.234 38.0413 315.116 38.0226 315.021 38.0259C314.176 38.0542 313.339 38.0825 312.501 38.1182C312.061 38.1375 311.839 38.0766 311.558 38.0394C311.337 38.0108 311.116 38.019 311.081 38.0869C310.99 38.2492 311.33 38.3156 312.079 38.2817C312.696 38.2528 313.255 38.2463 313.743 38.3445C313.809 38.3574 313.964 38.3627 314.059 38.3594C314.661 38.3394 315.256 38.315 315.859 38.295C315.969 38.2916 316.087 38.297 316.19 38.3025C317.692 38.3762 317.692 38.3777 318.199 38.358C318.441 38.3482 318.676 38.34 318.648 38.1163C319.104 37.8746 319.839 37.8555 320.551 37.8174C321.014 37.7935 321.214 37.8575 321.516 37.8902C321.62 37.9016 321.731 37.9247 321.826 37.9214C323.405 37.8666 324.977 37.809 326.549 37.7484C326.813 37.7385 327.005 37.7466 327.211 37.7841C327.477 37.8316 327.772 37.8614 328.191 37.8421C329.028 37.8035 329.88 37.7781 330.732 37.7454C331.166 37.729 331.166 37.7289 332.043 37.8168C332.139 37.8267 332.264 37.838 332.367 37.8347C333.219 37.8063 334.064 37.7721 334.908 37.7423C335.143 37.7341 335.357 37.7538 335.542 37.7929C335.727 37.8319 335.948 37.8517 336.176 37.8434C337.028 37.8136 337.872 37.7809 338.717 37.7511C338.82 37.7477 338.945 37.7575 339.041 37.7675C339.94 37.8553 339.94 37.8552 340.352 37.8389C340.954 37.8145 341.571 37.8018 342.166 37.77C342.746 37.7383 343.049 37.8225 343.448 37.8681C344.535 37.83 345.629 37.7978 346.709 37.7523C347.15 37.733 347.386 37.7806 347.681 37.8177C347.784 37.8306 347.888 37.8582 347.984 37.8563C348.351 37.849 348.711 37.8314 349.071 37.8182C349.431 37.805 349.798 37.7918 350.158 37.7787C350.571 37.8197 350.845 37.9188 351.433 37.8826C351.785 37.8606 352.16 37.8548 352.52 37.8416C352.88 37.8284 353.247 37.8152 353.607 37.802C353.849 37.7937 354.099 37.7883 354.334 37.7742C354.767 37.7504 354.982 37.8217 355.292 37.8529C355.395 37.8628 355.513 37.88 355.609 37.8767C356.336 37.8532 357.07 37.8327 357.783 37.7961C358.333 37.7674 358.709 37.8101 359.101 37.8704C359.182 37.8834 359.322 37.8902 359.425 37.8868C360.277 37.8585 361.121 37.8243 361.966 37.7945C362.194 37.7862 362.415 37.8089 362.6 37.8465C362.792 37.8855 363.006 37.9038 363.241 37.8955C364.085 37.8657 364.937 37.833 365.782 37.8032C365.885 37.7998 366.01 37.8111 366.106 37.8225C366.932 37.9106 366.932 37.9121 367.417 37.8925C367.534 37.8876 367.659 37.8842 367.777 37.8793C368.379 37.8564 369.004 37.8466 369.591 37.809C370.266 37.7666 370.76 37.8147 371.24 37.8968C371.842 37.8768 372.46 37.864 373.047 37.8323C373.487 37.8085 373.724 37.8635 374.019 37.8992C374.123 37.912 374.233 37.9381 374.322 37.9348C375.174 37.9065 376.026 37.8811 376.863 37.841C377.318 37.8186 377.519 37.8841 377.828 37.9167C377.931 37.9281 378.042 37.9483 378.138 37.945C378.623 37.9313 379.107 37.9118 379.592 37.8937C380.158 37.8723 380.158 37.8738 380.91 37.9607C381.264 38.002 381.616 37.9668 381.961 37.9551C382.329 37.9419 382.674 37.9317 382.969 37.9909C383.154 38.0285 383.376 38.0512 383.603 38.0444C384.088 38.0293 384.58 38.0141 385.058 37.9902C385.439 37.971 385.77 37.9815 386.051 38.0349C386.251 38.0724 386.457 38.0907 386.7 38.0809C387.787 38.0414 388.881 38.0003 389.968 37.9622C390.064 37.9589 390.196 37.9716 390.285 37.9845C390.491 38.0102 390.691 38.0389 390.89 38.0676C391.367 38.0524 391.86 38.0447 392.33 38.0222C392.829 37.9997 393.285 37.9905 393.677 38.07C393.758 38.0873 393.876 38.1119 393.972 38.11C394.339 38.1027 394.699 38.0866 395.059 38.0734C395.419 38.0602 395.786 38.047 396.146 38.0338C396.566 38.069 396.834 38.174 397.421 38.1378C397.773 38.1158 398.148 38.11 398.508 38.0968C398.868 38.0836 399.235 38.0689 399.595 38.0572C399.712 38.0538 399.844 38.0459 399.948 38.0514C400.058 38.0569 400.154 38.0771 400.25 38.0915C400.545 38.133 400.818 38.1746 401.237 38.148C401.589 38.126 401.964 38.1201 402.324 38.1055C402.816 38.0874 402.816 38.0874 403.634 38.1769C403.966 38.2139 404.34 38.1624 404.657 38.1936C404.871 38.2148 405.055 38.2509 405.262 38.2751C405.35 38.2851 405.49 38.2889 405.593 38.2856C406.078 38.2704 406.57 38.2553 407.047 38.2313C407.436 38.2122 407.76 38.2286 408.034 38.2805C408.233 38.318 408.432 38.3334 408.682 38.3236C409.894 38.2777 411.106 38.2376 412.31 38.1873C412.722 38.1695 413.053 38.1932 413.282 38.2453C413.674 38.3351 414.223 38.2255 414.629 38.2975C414.88 38.3422 415.132 38.3942 415.587 38.3703C416.424 38.3288 417.276 38.3049 418.121 38.2751C418.424 38.3136 418.726 38.3522 419.036 38.3908C419.521 38.3727 420.005 38.3546 420.49 38.338C420.85 38.3248 421.217 38.3101 421.577 38.2984C421.695 38.295 421.82 38.2886 421.93 38.2956C422.041 38.3025 422.129 38.3213 422.233 38.3356C422.742 38.4058 422.742 38.4072 423.579 38.3745C423.939 38.3599 424.284 38.3497 424.587 38.4074C424.868 38.4608 425.199 38.4698 425.581 38.4521C426.301 38.4199 427.028 38.395 427.763 38.3715C427.99 38.3632 428.204 38.3874 428.396 38.425C428.685 38.4842 429.037 38.4769 429.397 38.4594C429.874 38.4369 430.344 38.4144 430.751 38.4953C430.832 38.5127 430.958 38.5372 431.046 38.5354C431.649 38.5212 432.258 38.51 432.846 38.4798C433.433 38.4495 433.722 38.5397 434.128 38.5823C434.73 38.5608 435.34 38.5393 435.942 38.5178C436.06 38.5129 436.199 38.4991 436.302 38.5061C436.737 38.5353 436.99 38.6447 437.584 38.6085C437.929 38.5881 438.304 38.5807 438.664 38.5749C438.76 38.5731 438.885 38.5976 438.952 38.6165C438.989 38.6266 438.953 38.6547 438.909 38.6696C438.778 38.7114 438.617 38.7503 438.501 38.7934C438.486 38.7994 438.627 38.8253 438.708 38.8368C438.907 38.8625 439.135 38.8572 439.399 38.8444C439.627 38.8332 439.863 38.8529 440.026 38.8964C440.092 38.9138 440.071 38.9433 439.934 39.041C439.936 39.1132 440.089 39.0802 440.139 39.0329C440.218 38.9648 440.064 38.9434 439.77 38.9813C439.565 39.0086 439.464 39.0473 439.516 39.078C439.546 39.0941 439.686 39.1141 439.934 39.041C440.578 38.9502 441.063 38.9321 441.548 38.914C441.673 38.9091 441.819 38.8938 441.908 38.9023C442.225 38.9364 442.52 38.978 442.83 39.0165C443.183 39.0063 443.513 38.9829 443.86 39.039C444.347 39.1181 444.369 39.1106 444.839 39.0926C445.082 39.0828 445.324 39.0745 445.566 39.0662C445.809 39.0579 446 39.0793 446.215 39.1123C446.65 39.1798 446.687 39.1796 446.971 39.0843C447.139 39.0262 447.256 39.0066 447.47 39.0323C448.178 39.1194 448.185 39.1252 448.787 39.0964C449.287 39.0723 449.757 39.0646 450.127 39.1471C450.379 39.205 450.459 39.1914 450.656 39.1288C451.181 38.9634 451.423 38.9654 452.419 39.0793C452.884 39.1334 453.36 39.0712 453.83 39.062C454.227 39.0546 454.507 39.0888 454.539 39.1814C454.563 39.2388 454.63 39.2797 454.895 39.2978C454.998 39.3048 455.124 39.3146 455.226 39.3113C455.836 39.2912 456.438 39.2683 457.048 39.2453C457.357 39.2338 457.524 39.1639 457.463 39.0729C457.394 38.976 457.51 38.9402 457.951 38.9105C458.215 38.8933 458.428 38.8954 458.642 38.9211C458.878 38.9496 458.813 38.9764 458.608 39.0302C458.119 39.1616 458.18 39.2409 458.815 39.3282C459.036 39.3582 459.213 39.3855 459.266 39.431C459.296 39.4544 459.268 39.4854 459.334 39.5028C459.697 39.6001 460.199 39.6614 460.759 39.7063C461.294 39.6645 461.664 39.7293 462.077 39.7807C462.401 39.8206 462.783 39.7838 463.128 39.7678C463.517 39.7501 463.841 39.7606 464.122 39.814C464.321 39.8515 464.527 39.8683 464.77 39.86C465.255 39.8419 465.747 39.8297 466.224 39.8043C466.635 39.7821 466.945 39.8103 467.203 39.8594C467.529 39.9214 467.888 39.8773 468.226 39.8848C468.682 39.8934 468.914 40.0235 469.508 39.9858C469.861 39.9638 470.228 39.9551 470.595 39.9477C470.691 39.9459 470.809 39.9705 470.89 39.9878C471.282 40.0673 471.738 40.0611 472.237 40.0356C472.582 40.018 472.92 40.002 473.26 40.0566C473.821 40.1486 474.441 40.2287 475.031 40.3132C475.114 40.3806 475.057 40.4603 475.477 40.4984C475.698 40.5182 475.905 40.5483 476.075 40.5815C476.282 40.6205 476.473 40.63 476.738 40.6187C477.215 40.5962 477.715 40.5898 478.185 40.5615C478.618 40.5363 478.891 40.5838 479.157 40.6284C479.371 40.6644 479.57 40.6813 479.827 40.6538C480.091 40.6277 480.282 40.6431 480.497 40.6821C480.799 40.7354 480.821 40.7294 481.822 40.7417C481.925 40.7428 482.05 40.7643 482.109 40.7832C482.139 40.7934 482.074 40.8231 482.023 40.8381C481.957 40.856 481.855 40.877 481.759 40.8818C480.672 40.9243 479.578 40.9624 478.491 41.0049C478.381 41.0098 478.263 41.0205 478.183 41.0356C478.095 41.0521 477.985 41.0746 477.986 41.0952C477.986 41.1099 478.134 41.127 478.237 41.1369C478.561 41.1695 478.942 41.1165 479.259 41.1536C479.473 41.1778 479.651 41.2124 479.864 41.2351C479.953 41.2451 480.093 41.2431 480.203 41.2397C480.57 41.228 480.93 41.2118 481.297 41.2016C481.4 41.1997 481.518 41.214 481.614 41.2254C482.322 41.3109 482.322 41.3109 482.932 41.2894C483.174 41.2811 483.431 41.258 483.659 41.266C483.88 41.274 484.072 41.313 484.271 41.3372C484.684 41.3886 485.075 41.4386 485.108 41.5533C485.124 41.5974 485.367 41.6347 485.61 41.6367C485.845 41.6387 486.095 41.6216 486.337 41.6118C486.91 41.5919 486.91 41.5919 487.655 41.6788C487.862 41.703 488.082 41.7051 488.346 41.6894C488.449 41.6831 488.575 41.6885 488.685 41.6954C489.046 41.7161 489.046 41.7441 488.813 41.798C488.484 41.8773 488.513 41.8845 489.442 41.9472C489.795 41.9708 490.068 42.0169 490.364 42.0569C490.843 42.1213 490.836 42.1213 490.522 42.2094C490.449 42.2288 490.384 42.2497 490.311 42.2706C490.099 42.3288 489.931 42.3913 489.491 42.3989C489.006 42.4067 488.521 42.4321 488.036 42.4502C487.566 42.4683 487.442 42.5041 487.489 42.604C487.544 42.7245 487.64 42.7374 488.485 42.7326C488.728 42.7317 488.941 42.7426 489.126 42.7816C489.039 42.8291 488.878 42.8665 488.643 42.8763C488.041 42.9007 487.431 42.9222 486.829 42.9437C486.344 42.9618 485.86 42.9798 485.375 42.9979C485.074 43.0094 484.885 43.0867 484.968 43.1718C485.013 43.2202 485.051 43.2686 485.089 43.317C485.173 43.4139 485.328 43.4383 485.82 43.432C485.945 43.43 486.062 43.4178 486.18 43.4202C486.658 43.4287 486.889 43.55 487.462 43.5227C487.939 43.5002 488.439 43.4939 488.909 43.4656C489.342 43.4403 489.586 43.4924 489.889 43.531C489.992 43.5438 490.103 43.5713 490.191 43.5695C490.801 43.5509 491.411 43.5324 492.005 43.5021C492.285 43.4892 492.454 43.4974 492.675 43.5319C493.207 43.6152 493.221 43.6107 494.007 43.5812C494.58 43.5583 494.588 43.5612 495.325 43.6482C495.532 43.6724 495.752 43.6715 496.017 43.6587C496.362 43.6426 496.721 43.6177 497.082 43.6384C497.193 43.6438 497.333 43.6609 497.37 43.6799C497.393 43.6931 497.29 43.7259 497.203 43.7365C496.558 43.8156 495.8 43.8053 495.095 43.839C494.875 43.8487 494.653 43.8215 494.469 43.7825C494.276 43.7435 494.07 43.7281 493.82 43.7365C493.336 43.7545 492.843 43.7668 492.366 43.7922C491.955 43.8144 491.667 43.7816 491.379 43.7371C491.283 43.7228 491.173 43.6952 491.077 43.6971C489.99 43.7308 488.895 43.7645 487.816 43.8099C487.382 43.8293 487.131 43.7831 486.836 43.7445C486.733 43.7317 486.629 43.7041 486.534 43.706C486.166 43.7133 485.806 43.7309 485.439 43.7441C484.102 43.7934 482.773 43.8428 481.436 43.8892C481.348 43.8925 481.237 43.862 481.133 43.8492C480.934 43.8234 480.728 43.7992 480.521 43.775C480.154 43.7882 479.794 43.8043 479.427 43.8146C479.162 43.8215 478.928 43.843 478.892 43.8991C478.871 43.936 479.115 43.9689 479.372 43.965C479.622 43.961 479.871 43.9424 480.078 43.9607C481.102 44.051 481.102 44.0524 481.741 44.0308C482.299 44.011 482.24 43.9965 482.735 44.0755C482.949 44.11 483.141 44.1299 483.383 44.1201C483.985 44.0972 484.595 44.0742 485.205 44.0541C485.3 44.0508 485.426 44.0651 485.521 44.0765C486.244 44.162 486.244 44.1649 486.839 44.1405C487.618 44.111 487.647 44.1035 488.171 44.1913C488.533 44.2517 488.863 44.2077 489.208 44.2034C489.607 44.2593 490.042 44.3091 490.404 44.3725C490.833 44.4474 491.281 44.4324 491.765 44.4084C492.125 44.3908 492.478 44.3835 492.773 44.4428C493.054 44.4976 493.393 44.5022 493.774 44.486C494.12 44.4714 494.472 44.442 494.833 44.473C494.929 44.4815 495.076 44.503 495.069 44.5163C495.062 44.5369 494.968 44.5667 494.872 44.5759C494.198 44.6389 493.455 44.6403 492.743 44.6711C492.647 44.6759 492.522 44.6601 492.426 44.6487C492.22 44.623 492.02 44.5929 491.821 44.5657C491.461 44.576 491.093 44.5803 490.741 44.5994C490.469 44.6137 490.263 44.613 490.064 44.5785C489.879 44.5468 489.68 44.5078 489.459 44.4984C489.238 44.4889 488.982 44.512 488.739 44.5218C488.497 44.5316 488.217 44.5282 488.027 44.5525C487.836 44.5768 487.72 44.6288 487.596 44.6705C487.458 44.7167 487.267 44.7321 486.988 44.7377C486.731 44.7431 486.525 44.738 486.332 44.6975C486.251 44.6802 486.14 44.6673 486.03 44.656C485.926 44.6461 485.808 44.6303 485.713 44.6337C484.619 44.6718 483.532 44.7128 482.437 44.7524C481.894 44.7722 481.901 44.7722 480.766 44.6897C480.663 44.6828 480.538 44.673 480.435 44.6763C479.826 44.6963 479.223 44.7193 478.614 44.7423C477.997 44.7653 478.004 44.7623 476.95 44.6737C476.759 44.6568 476.48 44.6814 476.252 44.6793C475.774 44.6738 475.535 44.5511 474.977 44.5768C474.5 44.5993 474 44.6057 473.523 44.634C473.09 44.6593 472.839 44.6087 472.543 44.5701C472.44 44.5573 472.329 44.5283 472.241 44.5316C471.146 44.5682 470.059 44.6092 468.604 44.6193C468.244 44.6207 468.406 44.651 468.642 44.6604C468.98 44.6753 469.09 44.6439 468.904 44.5858C468.771 44.5451 468.579 44.5252 468.425 44.5361C468.344 44.5423 468.242 44.5707 468.604 44.6193C468.988 44.6738 468.966 44.7048 469.033 44.7222C469.196 44.7642 469.424 44.781 469.659 44.7742C470.027 44.7625 470.387 44.7464 470.754 44.7361C470.857 44.7327 470.982 44.7426 471.078 44.754C471.889 44.8421 471.897 44.8479 472.756 44.8093C473.027 44.7979 473.226 44.7971 473.44 44.8243C473.735 44.8614 473.95 44.9253 474.398 44.903C474.993 44.8727 475.602 44.8541 476.212 44.8356C476.307 44.8322 476.411 44.8583 476.522 44.8697C476.824 44.9038 477.046 44.9692 477.494 44.9395C477.839 44.9161 478.214 44.9087 478.581 44.9029C478.677 44.901 478.824 44.924 478.869 44.943C478.958 44.9765 478.849 45.0167 478.6 45.0456C478.497 45.0578 478.357 45.0554 478.24 45.0603C477.755 45.0783 477.27 45.0979 476.786 45.113C476.528 45.1214 476.287 45.1444 476.259 45.199C476.237 45.2359 476.503 45.2672 476.753 45.2633C477.12 45.2575 477.488 45.2443 477.84 45.2238C478.464 45.1889 479.008 45.1956 479.518 45.2864C479.88 45.3498 479.857 45.3263 480.245 45.5162C480.342 45.5644 480.628 45.5677 480.878 45.5638C481.481 45.5541 481.761 45.5751 481.711 45.6209C481.646 45.6771 481.433 45.6956 481.161 45.704C480.677 45.7177 480.192 45.7387 479.707 45.7568C479.59 45.7616 479.458 45.771 479.347 45.7685C479.237 45.766 479.133 45.7487 479.038 45.7358C478.831 45.7087 478.653 45.6666 478.432 45.6572C478.212 45.6478 477.955 45.6708 477.713 45.6806C477.47 45.6889 477.213 45.712 476.993 45.7026C476.772 45.6931 476.587 45.6497 476.388 45.624C476.292 45.6111 476.174 45.5909 476.078 45.5928C475.593 45.6064 475.108 45.6275 474.624 45.6441C474.029 45.6655 474.029 45.6655 473.306 45.5771C473.099 45.5514 472.886 45.5537 472.614 45.5665C472.027 45.5924 472.019 45.588 470.944 45.5068C470.841 45.4983 470.715 45.4885 470.612 45.4933C469.518 45.5315 468.431 45.5725 467.344 45.6121C466.411 45.6466 466.411 45.6466 465.901 45.7958C465.521 45.9062 465.514 45.9063 465.89 45.9549C466.193 45.9949 466.466 46.0542 466.798 46.075C467.107 46.0944 467.488 46.0267 467.828 46.093C467.998 46.1262 468.219 46.1622 468.432 46.1673C468.771 46.1733 469.13 46.1292 469.455 46.1927C469.618 46.2245 469.861 46.2574 470.067 46.2581C470.427 46.2596 470.794 46.2346 471.154 46.2229C471.265 46.2195 471.389 46.219 471.493 46.226C471.603 46.2344 471.699 46.2517 471.795 46.266C472.09 46.3149 472.407 46.3373 472.789 46.3107C473.413 46.2671 473.972 46.2855 474.46 46.3778C474.526 46.3908 474.688 46.3917 474.791 46.3854C475.055 46.3696 475.283 46.3673 475.482 46.3945C475.563 46.4059 475.681 46.4261 475.667 46.4394C475.646 46.4616 475.558 46.4913 475.463 46.4991C474.773 46.5518 474.031 46.5606 473.318 46.5899C473.223 46.5932 473.105 46.5745 473.009 46.5616C472.802 46.5359 472.625 46.4925 472.404 46.483C472.183 46.4736 471.926 46.4937 471.684 46.502C471.441 46.5103 471.185 46.5334 470.964 46.5254C470.743 46.516 470.536 46.48 470.359 46.4483C470.152 46.4123 469.954 46.4087 469.682 46.4244C469.33 46.4449 468.962 46.4493 468.602 46.461C468.403 46.4338 468.204 46.4037 467.997 46.378C467.901 46.3651 467.783 46.3494 467.68 46.3513C467.195 46.3649 466.71 46.3845 466.226 46.4025C465.741 46.4206 465.741 46.4206 464.915 46.3326C464.819 46.3227 464.694 46.3114 464.591 46.3147C463.981 46.3347 463.379 46.3592 462.769 46.3792C462.534 46.3875 462.321 46.3677 462.129 46.3287C461.944 46.2897 461.722 46.2685 461.495 46.2767C460.525 46.3114 459.556 46.3446 458.586 46.3852C458.197 46.4014 457.866 46.3895 457.6 46.3375C457.289 46.2784 456.944 46.2944 456.584 46.3076C455.769 46.3402 455.762 46.3388 455.238 46.2657C455.134 46.2514 455.031 46.2238 454.935 46.2257C454.09 46.2511 453.238 46.275 452.401 46.3136C451.961 46.3344 451.724 46.2838 451.429 46.2467C451.325 46.2339 451.215 46.2063 451.126 46.2096C450.517 46.2282 449.907 46.2453 449.312 46.277C448.717 46.3088 448.486 46.1728 448.037 46.176C447.427 46.1799 446.825 46.2161 446.223 46.239C445.738 46.2571 445.254 46.2752 444.769 46.2933C444.284 46.3113 443.799 46.3265 443.315 46.3475C443.057 46.3588 442.866 46.3463 442.652 46.3103C442.379 46.2628 442.054 46.2258 441.759 46.1828C441.309 46.1213 441.309 46.1212 440.765 46.141C440.648 46.1459 440.523 46.1493 440.405 46.1542C439.517 46.19 439.516 46.1871 438.382 46.0988C438.33 46.0946 438.198 46.1113 438.147 46.1233C437.994 46.1621 437.855 46.2039 437.717 46.2442C437.518 46.2214 437.275 46.2091 437.141 46.1758C436.764 46.0815 436.179 46.2148 435.794 46.1221C435.654 46.0873 435.41 46.0574 435.19 46.0494C434.961 46.0414 434.705 46.063 434.47 46.0728C433.86 46.0973 433.86 46.0958 433.342 46.2288C433.079 46.2946 432.696 46.2843 432.351 46.3004C431.991 46.318 431.646 46.3282 431.343 46.269C431.069 46.2156 430.738 46.2036 430.349 46.2228C429.872 46.2468 429.38 46.2619 428.895 46.2771C428.792 46.2804 428.667 46.2735 428.564 46.2651C427.436 46.1826 427.436 46.1812 426.893 46.2024C426.651 46.2122 426.401 46.2161 426.166 46.2303C425.769 46.2554 425.467 46.2256 425.179 46.1796C425.083 46.1653 424.972 46.1378 424.877 46.1396C424.392 46.1489 423.914 46.164 423.437 46.1791C423.069 46.1908 422.702 46.1981 422.35 46.2201C421.763 46.2563 421.473 46.1617 421.068 46.1191C420.465 46.1406 419.856 46.1562 419.254 46.1851C418.974 46.1979 418.791 46.1942 418.576 46.1597C418.303 46.1166 418.052 46.0676 417.611 46.0914C417.024 46.1231 416.407 46.1358 415.805 46.1558C415.399 46.1117 415.102 46.0201 414.523 46.0563C414.17 46.0782 413.795 46.0841 413.436 46.0973C412.951 46.1154 412.466 46.132 411.981 46.1516C411.46 46.1713 411.467 46.1668 410.663 46.0831C410.199 46.0334 409.722 46.0926 409.252 46.1033C408.885 46.1121 408.703 46.1805 408.793 46.267C408.884 46.3535 408.687 46.422 408.349 46.4351C407.505 46.4664 406.653 46.4991 405.808 46.5274C405.705 46.5308 405.58 46.521 405.484 46.511C404.577 46.4218 404.577 46.4233 404.173 46.4381C403.571 46.4625 402.954 46.4767 402.359 46.507C401.948 46.5277 401.646 46.498 401.38 46.449C401.173 46.4115 400.982 46.4034 400.717 46.4133C397.809 46.5233 394.9 46.6259 391.999 46.7387C391.565 46.7552 391.314 46.7134 391.019 46.6748C390.916 46.662 390.82 46.6344 390.717 46.6348C390.474 46.6357 390.232 46.6499 389.989 46.6597C388.902 46.6993 387.816 46.7462 386.721 46.777C386.258 46.7905 386.135 46.8587 385.938 46.9155C385.785 46.9587 385.609 46.9771 385.337 46.984C385.073 46.991 384.881 46.9843 384.674 46.9469C384.408 46.8978 384.106 46.8681 383.695 46.8903C383.218 46.9157 382.733 46.9279 382.241 46.946C381.991 46.9544 381.8 46.9816 381.721 47.0349C381.706 47.0438 381.861 47.0653 381.95 47.0782C382.245 47.1212 382.526 47.1716 382.858 47.2013C383.197 47.2309 383.563 47.1941 383.916 47.1839C384.041 47.1805 384.158 47.1712 384.276 47.1722C384.386 47.1732 384.519 47.1801 384.6 47.193C384.984 47.2578 385.39 47.3018 385.918 47.26C386.374 47.2774 386.613 47.3986 387.193 47.364C387.545 47.3435 387.912 47.3332 388.28 47.3244C388.375 47.3226 388.479 47.3487 388.582 47.3615C388.877 47.3972 389.114 47.4551 389.554 47.4284C390.024 47.4001 390.524 47.3937 391.001 47.3712C391.266 47.3584 391.457 47.368 391.664 47.4055C391.93 47.453 392.232 47.4886 392.643 47.4635C392.996 47.4415 393.37 47.4356 393.73 47.421C394.2 47.4029 394.2 47.4044 395.041 47.4924C395.137 47.5023 395.262 47.5136 395.365 47.5103C395.975 47.4903 396.577 47.4658 397.187 47.4458C397.422 47.4375 397.65 47.4558 397.813 47.4978C397.88 47.5152 397.858 47.5448 397.881 47.5697C396.669 47.6142 395.457 47.6527 394.253 47.706C393.797 47.7269 393.59 47.6674 393.288 47.6347C393.184 47.6233 393.073 47.5987 392.978 47.602C392.126 47.6304 391.281 47.6602 390.437 47.6958C390.172 47.7072 389.974 47.7021 389.774 47.6601C389.264 47.5488 388.648 47.613 388.075 47.6314C387.634 47.6449 387.496 47.6911 387.55 47.7881C387.619 47.9026 387.884 47.9369 388.56 47.9137C388.803 47.9054 389.045 47.8941 389.287 47.8873C389.522 47.8805 389.736 47.8988 389.928 47.9378C390.113 47.9768 390.334 47.9966 390.562 47.9898C391.047 47.9746 391.539 47.9595 392.009 47.9356C392.398 47.9164 392.722 47.9299 392.996 47.9833C393.299 48.0424 393.651 48.0278 394.004 48.0132C394.826 47.9805 394.834 47.982 395.35 48.0536C395.453 48.0679 395.557 48.0955 395.653 48.0936C396.498 48.0683 397.35 48.0458 398.18 48.0072C398.613 47.9879 398.864 48.034 399.152 48.0712C399.255 48.084 399.359 48.1131 399.454 48.1097C400.064 48.0912 400.674 48.0726 401.268 48.0423C401.547 48.028 401.717 48.0361 401.946 48.0706C402.492 48.1553 402.507 48.1523 403.278 48.1213C403.513 48.1116 403.77 48.0944 403.99 48.1053C404.211 48.1162 404.389 48.1582 404.596 48.1839C404.691 48.1953 404.809 48.2111 404.912 48.2077C405.397 48.1941 405.882 48.1745 406.367 48.1564C406.822 48.1385 406.822 48.1399 407.677 48.2279C408.024 48.2648 408.383 48.231 408.728 48.2179C409.103 48.2032 409.441 48.2019 409.729 48.2582C410.018 48.3145 410.363 48.3102 410.73 48.2969C411.076 48.2838 411.428 48.2501 411.782 48.2885C412.593 48.3766 412.593 48.378 413.092 48.3584C413.819 48.3306 414.539 48.3042 415.274 48.2793C415.369 48.2759 415.495 48.2931 415.59 48.3045C415.797 48.3302 415.975 48.3737 416.195 48.3831C416.416 48.394 416.673 48.3754 416.908 48.3656C417.665 48.3347 417.716 48.3242 418.226 48.4194C418.654 48.4972 419.18 48.3803 419.58 48.4701C419.809 48.5207 420.119 48.5607 420.545 48.534C420.897 48.512 421.264 48.5047 421.632 48.4915C422.212 48.4701 422.212 48.4716 422.949 48.5571C423.045 48.5685 423.171 48.5827 423.266 48.5794C423.751 48.5657 424.244 48.5535 424.713 48.5252C425.264 48.4921 425.618 48.5467 426.031 48.5995C426.356 48.641 426.737 48.6041 427.082 48.5881C427.457 48.5719 427.795 48.575 428.076 48.6313C428.372 48.689 428.717 48.6803 429.084 48.6671C429.43 48.6555 429.781 48.6202 430.135 48.6601C430.895 48.7484 430.895 48.7484 431.446 48.7286C431.931 48.7105 432.415 48.691 432.9 48.6773C432.996 48.674 433.114 48.6926 433.21 48.7055C433.416 48.7312 433.594 48.7747 433.815 48.7841C434.036 48.7936 434.293 48.7735 434.535 48.7651C434.777 48.7568 435.034 48.7338 435.255 48.7417C435.476 48.7497 435.682 48.7857 435.86 48.8174C436.067 48.8549 436.258 48.8585 436.537 48.8427C436.889 48.8222 437.257 48.8164 437.617 48.8047C437.816 48.8319 438.022 48.859 438.214 48.8892C438.414 48.9208 438.627 48.917 438.899 48.9057C439.802 48.8668 439.809 48.8712 440.569 48.9595C440.916 48.9994 441.275 48.9641 441.62 48.9525C441.988 48.9393 442.333 48.932 442.621 48.9898C442.902 49.0447 443.248 49.0507 443.615 49.0316C443.85 49.0189 444.1 49.0106 444.342 49.0052C444.452 49.0033 444.585 49.0087 444.666 49.0201C445.057 49.0804 445.441 49.1349 445.977 49.0931C446.447 49.103 446.686 49.2228 447.251 49.197C447.729 49.1746 448.228 49.1682 448.698 49.1399C449.131 49.1146 449.441 49.1546 449.663 49.2053C450.063 49.295 450.618 49.1692 451.017 49.2574C451.247 49.3081 451.542 49.3481 451.982 49.3243C452.467 49.2989 452.622 49.3292 452.764 49.4214C452.847 49.4741 452.833 49.5168 452.687 49.5586C452.541 49.6019 452.379 49.5952 452.143 49.5475C451.869 49.4941 451.546 49.485 451.156 49.4983C450.774 49.5116 450.537 49.436 450.22 49.4078C449.903 49.3781 449.53 49.4311 449.198 49.3926C448.416 49.3029 448.416 49.3029 447.887 49.3226C447.527 49.3358 447.152 49.3432 446.8 49.3651C446.382 49.3918 446.108 49.3472 445.821 49.3071C445.717 49.2928 445.614 49.2652 445.525 49.267C444.681 49.2924 443.828 49.3164 442.991 49.3564C442.551 49.3773 442.314 49.3252 442.019 49.2895C441.916 49.2767 441.805 49.2506 441.717 49.2539C440.989 49.2774 440.27 49.3067 439.543 49.3345C439.404 49.3748 439.25 49.4137 439.119 49.4569C438.981 49.5016 438.79 49.5215 438.511 49.5211C438.048 49.5229 437.594 49.5865 437.128 49.5103C436.648 49.4326 436.612 49.4372 436.149 49.4581C435.562 49.4855 434.937 49.482 434.387 49.5416C434.291 49.5522 434.189 49.5806 434.19 49.6012C434.183 49.6145 434.338 49.633 434.434 49.6444C434.758 49.6785 435.132 49.6255 435.456 49.6611C435.67 49.6838 435.847 49.7184 436.061 49.7426C436.15 49.7526 436.282 49.7506 436.4 49.7487C436.524 49.7467 436.642 49.7359 436.759 49.737C436.87 49.738 436.988 49.7464 437.076 49.7593C437.482 49.8136 437.91 49.8635 438.272 49.9283C438.627 49.9917 438.956 49.9463 439.309 49.942C440.723 50.0395 440.723 50.041 441.671 50.0049C441.906 49.9966 442.148 49.9868 442.391 49.9874C442.494 49.987 442.59 50.0131 442.693 50.0274C442.989 50.0704 443.269 50.1091 443.68 50.0839C444.032 50.0619 444.407 50.0561 444.767 50.0414C445.252 50.0233 445.252 50.0233 446.078 50.1129C446.284 50.1356 446.505 50.1318 446.769 50.119C446.997 50.1078 447.232 50.129 447.395 50.171C447.462 50.1884 447.441 50.218 447.463 50.2429C446.736 50.2693 446.002 50.2884 445.297 50.3264C444.842 50.3503 444.634 50.2878 444.332 50.2551C444.228 50.2437 444.118 50.2191 444.022 50.2225C443.302 50.2473 442.582 50.2752 441.863 50.3074C441.775 50.3107 441.665 50.345 441.658 50.3656C441.645 50.4039 441.829 50.44 442.094 50.4375C442.447 50.4347 442.792 50.4083 443.11 50.4674C443.376 50.5194 443.707 50.5417 444.096 50.5166C444.331 50.5024 444.581 50.5015 444.816 50.4888C445.44 50.451 446.006 50.4562 446.479 50.5544C446.84 50.5795 447.192 50.5531 447.538 50.5385C447.795 50.5272 448.044 50.5159 448.229 50.5432C448.62 50.6006 449.004 50.6579 449.539 50.6161C450.121 50.6551 450.565 50.7402 451.052 50.809C451.281 50.8419 451.458 50.8604 451.722 50.8373C451.832 50.828 451.964 50.8275 452.082 50.8226C452.324 50.8143 452.581 50.7912 452.801 50.7992C453.022 50.8086 453.207 50.8506 453.406 50.8763C453.502 50.8892 453.613 50.9109 453.709 50.909C454.076 50.9002 454.436 50.8841 454.796 50.8709C455.156 50.8592 455.516 50.8475 455.876 50.8358C456.178 50.8729 456.488 50.91 456.79 50.9471C457.275 50.929 457.76 50.9109 458.237 50.8943C458.774 50.8746 458.773 50.8761 459.548 50.9643C459.895 51.0042 460.261 50.9763 460.592 50.9558C461.142 50.9228 461.511 50.9773 461.903 51.0347C461.984 51.0461 462.131 51.0529 462.226 51.0466C462.608 51.0245 462.939 51.0394 463.22 51.0928C463.42 51.1303 463.619 51.1472 463.861 51.1389C464.706 51.1076 465.55 51.0749 466.395 51.0466C466.498 51.0432 466.616 51.056 466.712 51.0674C467.464 51.1543 467.472 51.1587 468.022 51.133C468.514 51.1105 468.97 51.0999 469.362 51.1793C469.443 51.1967 469.569 51.2212 469.657 51.2194C470.259 51.2023 470.869 51.1837 471.464 51.1564C471.736 51.1436 471.927 51.1472 472.141 51.1803C472.414 51.2219 472.658 51.2725 473.106 51.2516C474.347 51.1923 474.354 51.2011 475.828 51.2969C475.931 51.3039 476.07 51.2916 476.187 51.2852C476.437 51.2695 476.621 51.2894 476.843 51.3224C477.337 51.3971 477.352 51.3926 477.822 51.3746C478.182 51.3599 478.557 51.3555 478.909 51.332C479.452 51.2975 479.814 51.3535 480.22 51.4064C480.544 51.4479 480.918 51.4111 481.263 51.3965C481.638 51.3803 481.976 51.3834 482.257 51.4382C482.449 51.4758 482.656 51.4956 482.898 51.4873C483.743 51.4575 484.588 51.4248 485.432 51.395C485.535 51.3916 485.66 51.4029 485.756 51.4128C486.597 51.5008 486.597 51.5053 487.427 51.4682C487.691 51.4568 487.911 51.453 488.111 51.4832C488.303 51.5119 488.509 51.539 488.709 51.5662C489.069 51.5545 489.436 51.5501 489.788 51.5311C490.06 51.5168 490.251 51.522 490.465 51.552C490.746 51.5907 490.983 51.6589 491.423 51.6234C491.651 51.6063 491.915 51.6097 492.143 51.5941C492.414 51.5739 492.599 51.5849 492.813 51.6224C493.079 51.667 493.352 51.713 493.778 51.6878C494.247 51.6595 494.747 51.6531 495.224 51.6306C495.489 51.6178 495.673 51.6289 495.887 51.6663C496.153 51.7139 496.455 51.7436 496.867 51.7229C497.704 51.6828 497.711 51.6902 498.53 51.7797C498.736 51.8025 498.957 51.7987 499.221 51.7859C499.449 51.7747 499.684 51.7958 499.847 51.8379C500.003 51.8844 499.989 51.9139 500.004 51.9389ZM434.137 38.9179C433.895 38.9262 433.652 38.936 433.296 38.8093C433.273 38.7873 433.287 38.7607 433.235 38.7418C433.117 38.7025 432.932 38.6752 432.711 38.6717C432.314 38.6673 431.838 38.7193 431.846 38.7575C431.854 38.7898 431.98 38.8173 432.223 38.8429C432.326 38.8528 432.408 38.8701 432.504 38.8815C432.784 38.9143 433.006 38.9797 433.41 38.9443C433.372 38.8988 433.334 38.8533 433.41 38.9443C433.375 39.0003 433.486 39.0397 433.751 39.0548C433.825 39.059 433.935 39.0556 433.993 39.0465C434.22 39.0132 434.256 38.9689 434.084 38.8533C434.055 38.8726 434.078 38.9063 434.144 38.9149C434.211 38.9235 434.372 38.9155 434.453 38.9049C434.658 38.8761 434.76 38.8389 434.707 38.8082C434.678 38.7921 434.537 38.772 434.449 38.7724C434.295 38.773 434.156 38.8059 434.137 38.9179ZM494.042 55.7573C493.506 55.7874 492.888 55.7795 492.353 55.839C492.258 55.8497 492.163 55.8765 492.156 55.8972C492.149 55.9105 492.297 55.929 492.385 55.939C492.584 55.9618 492.805 55.9535 493.062 55.9452C493.451 55.9333 493.681 56.0002 493.983 56.0329C494.079 56.0428 494.204 56.0497 494.307 56.0463C494.902 56.0263 495.489 56.0049 496.084 55.982C496.187 55.9772 496.297 55.9664 496.385 55.9528C496.678 55.909 496.648 55.8812 496.36 55.8499C496.043 55.8158 495.792 55.7579 495.468 55.7312C495.003 55.6932 494.534 55.7481 494.042 55.7573ZM452.322 56.9945C451.962 57.0077 451.609 57.0208 451.249 57.034C451.132 57.0389 451.007 57.0408 450.897 57.0472C450.669 57.0583 450.501 57.0899 450.392 57.1389C450.562 57.1765 450.768 57.1978 450.996 57.1925C451.356 57.1823 451.709 57.1618 452.069 57.1559C452.458 57.1485 452.688 57.2139 452.99 57.2466C453.086 57.2565 453.204 57.2575 453.314 57.2586C453.858 57.2623 454.187 57.1845 454.081 57.0774C454.005 56.9938 453.725 56.9449 453.387 56.9565C453.034 56.9682 452.674 56.9814 452.322 56.9945ZM496.497 53.5719C496.585 53.5465 496.68 53.5285 496.724 53.5062C496.854 53.4307 496.801 53.3749 496.557 53.317C496.261 53.246 495.902 53.296 495.571 53.3046C495.49 53.3064 495.403 53.3377 495.359 53.357C495.33 53.3703 495.331 53.3983 495.375 53.4055C495.737 53.463 496.121 53.5159 496.497 53.5719ZM432.606 49.4719C432.253 49.4851 431.893 49.4953 431.541 49.5129C431.453 49.5177 431.373 49.5459 431.322 49.5653C431.227 49.601 431.331 49.6491 431.633 49.6524C431.978 49.6569 432.338 49.6305 432.698 49.6173C433.153 49.6008 433.424 49.5453 433.253 49.4989C433.09 49.4539 432.87 49.4459 432.606 49.4719ZM45.5448 47.8333C45.7799 47.825 46.0223 47.8182 46.2573 47.807C46.4775 47.7958 46.6459 47.7628 46.7548 47.7138C46.57 47.6762 46.3636 47.6564 46.1358 47.6617C45.7758 47.6719 45.4233 47.6851 45.0708 47.7012C44.8505 47.7109 44.6382 47.7441 44.5881 47.7943C44.5377 47.8328 45.0307 47.853 45.5448 47.8333ZM401.425 46.2206C401.521 46.2335 401.617 46.2596 401.713 46.2593C401.948 46.2583 402.191 46.2486 402.411 46.233C402.506 46.2267 402.579 46.1999 402.622 46.1792C402.651 46.1658 402.644 46.1423 402.599 46.1307C402.384 46.0608 401.532 46.0892 401.394 46.1707C401.38 46.1855 401.417 46.2045 401.425 46.2206ZM378.014 38.2502C378.036 38.2737 378.044 38.2972 378.074 38.3206C378.134 38.3646 378.297 38.3963 378.533 38.4175C378.716 38.38 378.81 38.3384 378.802 38.2942C378.794 38.2707 378.771 38.2472 378.741 38.2238C378.681 38.1799 378.518 38.1481 378.282 38.127C378.1 38.163 378.012 38.2046 378.014 38.2502ZM513.581 57.0121C513.516 57.0315 513.45 57.0509 513.377 57.0688C513.576 57.1107 513.761 57.1233 513.9 57.0992C513.988 57.0841 514.039 57.0618 514.104 57.0424C513.905 57.0005 513.728 56.9894 513.581 57.0121ZM509.014 57.2301C509.11 57.243 509.199 57.2603 509.302 57.2687C509.471 57.2828 509.625 57.2571 509.741 57.2037C509.645 57.1908 509.557 57.1735 509.453 57.1651C509.284 57.151 509.13 57.1766 509.014 57.2301ZM511.903 56.9494C511.853 56.985 511.957 57.014 512.229 57.038C512.295 57.0186 512.383 57.0006 512.426 56.9798C512.499 56.9456 512.373 56.9152 512.108 56.8927C512.034 56.9106 511.969 56.93 511.903 56.9494ZM496.341 55.423C496.291 55.4586 496.395 55.4876 496.667 55.5116C496.733 55.4922 496.821 55.4742 496.864 55.4534C496.937 55.4192 496.811 55.3888 496.546 55.3663C496.473 55.3842 496.407 55.4036 496.341 55.423ZM474.917 45.0894C474.852 45.1088 474.786 45.1282 474.713 45.1461C474.913 45.188 475.097 45.2006 475.236 45.1765C475.324 45.1614 475.375 45.1391 475.44 45.1197C475.241 45.0778 475.064 45.0667 474.917 45.0894ZM454.515 39.6423C454.692 39.6519 454.838 39.6308 454.962 39.5758C454.866 39.5629 454.777 39.5456 454.674 39.5372C454.504 39.5231 454.351 39.5487 454.235 39.6022C454.331 39.6165 454.426 39.6294 454.515 39.6423ZM443.75 39.3383C443.685 39.3577 443.619 39.3771 443.546 39.395C443.746 39.4369 443.93 39.4495 444.069 39.4254C444.157 39.4103 444.208 39.388 444.273 39.3686C444.074 39.3267 443.897 39.3171 443.75 39.3383ZM370.78 38.2769C370.714 38.2963 370.649 38.3157 370.575 38.3336C370.775 38.3755 370.959 38.3881 371.098 38.364C371.186 38.3489 371.237 38.3266 371.303 38.3072C371.103 38.2653 370.926 38.2557 370.78 38.2769ZM7.94578 51.6675C7.84986 51.6546 7.75402 51.6418 7.6654 51.6274C7.45328 51.668 7.38813 51.705 7.50651 51.7325C7.5805 51.7499 7.69097 51.7598 7.78689 51.7727C8.00637 51.7321 8.05685 51.6965 7.94578 51.6675Z" fill="#00CA75"/>
<path d="M263.252 8.90728C262.407 8.93851 261.57 8.97705 260.725 8.99798C260.277 9.00854 260.117 9.07243 259.935 9.13199C259.789 9.17964 259.62 9.19501 259.349 9.20489C257.057 9.28586 254.773 9.37123 252.488 9.45511C252.201 9.4371 252.06 9.40675 252.126 9.36971C252.162 9.3475 252.249 9.31626 252.337 9.31298C253.902 9.25248 255.459 9.19053 257.031 9.14177C257.479 9.12826 257.602 9.06305 257.829 9.0092C257.902 8.99126 257.96 8.96455 258.055 8.95388C258.151 8.94174 258.29 8.94268 258.415 8.93925C260.942 8.8456 263.469 8.75342 265.995 8.65976C266.283 8.67778 266.423 8.70813 266.358 8.74516C266.322 8.76738 266.234 8.79861 266.146 8.8019C265.177 8.83655 264.214 8.87118 263.252 8.90728Z" fill="#00CA75"/>
<path d="M726.647 15.9836C726.265 16.0027 725.78 16.0296 725.381 15.9458C725.189 15.9054 724.983 15.8929 724.733 15.9027C724.373 15.9188 724.006 15.932 723.639 15.9423C723.543 15.9441 723.418 15.9284 723.322 15.9155C723.115 15.8898 722.937 15.8464 722.717 15.8355C722.496 15.8246 722.232 15.858 722.004 15.8515C721.702 15.8423 721.576 15.8031 721.656 15.766C721.7 15.7452 721.787 15.7155 721.882 15.7107C723.241 15.651 723.248 15.651 723.632 15.7024C723.927 15.7425 724.201 15.787 724.619 15.7604C724.971 15.7384 725.346 15.7326 725.706 15.7179C726.205 15.6983 726.205 15.6998 727.017 15.7894C727.223 15.8121 727.444 15.8098 727.708 15.7955C727.935 15.7844 728.157 15.807 728.342 15.8461C728.225 15.8965 728.057 15.9296 727.829 15.9393C727.462 15.9554 727.102 15.9671 726.647 15.9836Z" fill="#00CA75"/>
<path d="M713.1 15.5593C714.025 15.5247 714.958 15.4946 715.883 15.4556C716.265 15.4393 716.567 15.4544 716.833 15.5035C717.121 15.5569 717.445 15.5513 717.797 15.5396C718.018 15.5328 718.231 15.5556 718.38 15.5963C718.439 15.6123 718.425 15.6418 718.447 15.6653C717.64 15.695 716.824 15.7262 716.009 15.753C715.914 15.7563 715.795 15.742 715.707 15.7306C715.508 15.7063 715.338 15.6627 715.124 15.6547C714.668 15.6358 714.213 15.6774 713.75 15.6866C713.53 15.6904 713.316 15.6691 713.168 15.6298C713.109 15.6109 713.122 15.5828 713.1 15.5593Z" fill="#00CA75"/>
<path d="M377.916 3.22239C378.878 3.18628 379.84 3.15166 380.802 3.11555C381.09 3.13504 381.223 3.16395 381.165 3.20098C381.129 3.22319 381.041 3.25444 380.953 3.25773C379.029 3.33142 377.105 3.40216 375.188 3.47288C374.9 3.45339 374.767 3.42447 374.825 3.38745C374.861 3.36523 374.949 3.33398 375.037 3.3307C375.992 3.29314 376.954 3.2585 377.916 3.22239Z" fill="#00CA75"/>
<path d="M229.473 11.9832C229.04 11.9879 228.586 12.0449 228.1 12.0051C228.004 11.998 227.871 11.9746 227.878 11.9612C227.892 11.9387 227.98 11.91 228.075 11.9007C228.493 11.8617 229.014 11.8552 229.224 11.7499C229.326 11.6958 229.516 11.6771 229.773 11.6656C230.045 11.6526 230.236 11.6563 230.45 11.6868C230.73 11.726 230.967 11.7997 231.407 11.7591C231.429 11.7829 231.481 11.8096 231.46 11.832C231.438 11.8545 231.344 11.8758 231.256 11.8925C231.176 11.9078 231.066 11.9216 230.963 11.9265C230.479 11.9464 229.994 11.9632 229.473 11.9832Z" fill="#00CA75"/>
<path d="M612.145 10.8525C612.505 10.8392 612.879 10.8318 613.232 10.8098C613.511 10.7924 613.687 10.8021 613.909 10.8367C614.285 10.8973 614.307 10.8913 615.226 10.8966C615.329 10.8977 615.455 10.9193 615.514 10.9383C615.551 10.9485 615.5 10.9768 615.457 10.9918C615.391 11.0113 615.296 11.0368 615.208 11.0371C614.627 11.0438 614.042 11.1333 613.473 11.035C613.185 10.9859 612.868 10.9635 612.479 10.9872C612.244 11.0014 611.995 11.0083 611.752 11.0151C611.517 11.022 611.274 11.0067 611.126 10.9629C610.911 10.8987 611.035 10.8731 611.418 10.876C611.66 10.878 611.903 10.8608 612.145 10.8525Z" fill="#00CA75"/>
<path d="M745.601 21.0316C746.064 21.0148 746.526 20.9951 746.996 20.9813C747.091 20.9779 747.209 20.9939 747.298 21.004C747.651 21.0473 747.602 21.1236 747.618 21.1907C747.628 21.2609 746.814 21.3208 746.467 21.2744C746.084 21.2222 745.737 21.1624 745.209 21.1973C745.004 21.2101 744.76 21.1842 744.627 21.1414C744.427 21.0795 744.537 21.0537 744.911 21.0567C745.132 21.0588 745.366 21.0415 745.601 21.0316Z" fill="#00CA75"/>
<path d="M511.799 0.861679C512.276 0.843516 512.753 0.816477 513.231 0.813128C513.51 0.810555 513.651 0.858887 513.586 0.894699C513.55 0.917064 513.462 0.94852 513.374 0.951827C512.42 0.991116 511.465 1.02448 510.511 1.06081C510.231 1.04116 510.09 1.0106 510.155 0.97479C510.192 0.952425 510.279 0.922451 510.367 0.917662C510.844 0.895055 511.322 0.879842 511.799 0.861679Z" fill="#00CA75"/>
<path d="M736.384 16.1062C736.846 16.0895 737.316 16.0654 737.779 16.0562C738.021 16.0523 738.213 16.0856 738.244 16.1241C738.259 16.1418 738.142 16.1734 738.047 16.1812C737.387 16.2342 736.674 16.2429 735.984 16.2709C735.763 16.2791 735.528 16.2563 735.394 16.2153C735.194 16.1524 735.304 16.1282 735.679 16.1312C735.914 16.1318 736.149 16.1145 736.384 16.1062Z" fill="#00CA75"/>
<path d="M624.301 11.028C624.536 11.0195 624.778 10.9991 625.005 11.0042C625.248 11.0107 625.403 11.0535 625.478 11.0967C625.56 11.1458 625.554 11.1923 625.482 11.2346C625.366 11.307 625.248 11.3045 624.975 11.2576C624.555 11.1843 624.526 11.1934 623.696 11.1997C623.601 11.2001 623.483 11.1781 623.409 11.1589C623.298 11.1294 623.355 11.0827 623.612 11.0547C623.802 11.0345 624.066 11.0364 624.301 11.028Z" fill="#00CA75"/>
<path d="M719.138 15.6448C719.483 15.6315 719.828 15.6108 720.173 15.6094C720.415 15.607 720.607 15.6405 720.63 15.6776C720.638 15.6954 720.529 15.7256 720.441 15.7348C720.023 15.7766 719.553 15.7815 719.098 15.7967C718.885 15.8035 718.649 15.7806 718.516 15.7395C718.316 15.6778 718.432 15.649 718.793 15.6565C718.903 15.6591 719.02 15.6497 719.138 15.6448Z" fill="#00CA75"/>
<path d="M664.691 13.8949C664.177 13.9147 663.691 13.8944 663.727 13.8555C663.777 13.8048 663.989 13.7712 664.21 13.7614C664.562 13.7451 664.914 13.7319 665.274 13.7215C665.502 13.7147 665.708 13.7362 665.893 13.7741C665.784 13.8221 665.616 13.857 665.396 13.8683C665.168 13.8796 664.926 13.8865 664.691 13.8949Z" fill="#00CA75"/>
<path d="M661.312 13.7126C661.657 13.6994 662.001 13.6787 662.347 13.6773C662.589 13.6749 662.781 13.7083 662.804 13.7454C662.812 13.7632 662.703 13.7934 662.615 13.8027C662.197 13.8445 661.727 13.8494 661.272 13.8645C661.059 13.8713 660.823 13.8485 660.689 13.8073C660.489 13.7456 660.606 13.7169 660.967 13.7244C661.077 13.727 661.194 13.7176 661.312 13.7126Z" fill="#00CA75"/>
<path d="M620.129 11.0252C620.474 11.0119 620.819 10.9912 621.164 10.9883C621.407 10.9859 621.599 11.0194 621.622 11.0565C621.629 11.0743 621.52 11.103 621.432 11.1138C621.014 11.1556 620.544 11.1604 620.089 11.1756C619.876 11.1824 619.64 11.1595 619.507 11.1184C619.307 11.0567 619.424 11.028 619.784 11.0355C619.894 11.038 620.012 11.0286 620.129 11.0252Z" fill="#00CA75"/>
<path d="M618.195 10.9399C618.562 10.9265 618.679 10.9186 618.797 10.9182C619.017 10.9173 619.246 10.9342 619.379 10.9769C619.579 11.0386 619.462 11.0569 619.102 11.0613C618.639 11.0661 618.184 11.0991 617.722 11.1069C617.479 11.1108 617.287 11.0759 617.271 11.0387C617.264 11.0209 617.373 10.9892 617.461 10.983C617.769 10.9594 618.107 10.9447 618.195 10.9399Z" fill="#00CA75"/>
<path d="M658.204 1.9117C657.969 1.92009 657.72 1.94197 657.5 1.93538C657.205 1.92611 657.087 1.88631 657.159 1.84872C657.203 1.82767 657.283 1.79751 657.371 1.79269C657.841 1.76994 658.318 1.75461 658.787 1.73783C659.067 1.7591 659.193 1.78992 659.12 1.8275C659.077 1.84856 658.997 1.87722 658.909 1.88354C658.681 1.89936 658.439 1.90331 658.204 1.9117Z" fill="#00CA75"/>
<path d="M372.644 3.41224C372.872 3.40984 373.078 3.42846 373.255 3.46512C373.146 3.51339 372.985 3.54542 372.765 3.55975C372.655 3.56617 372.531 3.57115 372.413 3.57311C372.186 3.577 371.979 3.5569 371.802 3.52023C371.911 3.47196 372.079 3.4399 372.292 3.4256C372.402 3.41918 372.527 3.4172 372.644 3.41224Z" fill="#00CA75"/>
<path d="M733.866 16.1035C733.857 16.0602 734.304 16.0091 734.708 16.009C734.921 16.0096 735.142 16.0297 735.268 16.0695C735.46 16.1301 735.351 16.1544 734.991 16.1513C734.77 16.1492 734.536 16.1756 734.316 16.172C734.066 16.1715 733.918 16.1392 733.866 16.1035Z" fill="#00CA75"/>
<path d="M626.441 11.2061C626.433 11.1897 626.396 11.1703 626.417 11.1553C626.555 11.0723 627.398 11.0434 627.62 11.1145C627.657 11.1278 627.673 11.1502 627.644 11.1638C627.6 11.185 627.52 11.2123 627.432 11.2187C627.205 11.2346 626.97 11.243 626.735 11.2454C626.633 11.2459 626.536 11.2207 626.441 11.2061Z" fill="#00CA75"/>
<path d="M232.086 11.7358C231.221 11.7707 231.206 11.7677 231.358 11.6923C231.496 11.6244 231.752 11.583 232.126 11.5815C232.236 11.581 232.354 11.5776 232.449 11.5832C232.552 11.5903 232.7 11.6046 232.722 11.6225C232.767 11.6567 232.643 11.6947 232.424 11.721C232.329 11.7333 232.204 11.7308 232.086 11.7358Z" fill="#00CA75"/>
<path d="M383.511 3.17123C383.254 3.19774 383.034 3.18963 382.871 3.14231C382.709 3.09498 382.964 3.03698 383.411 3.0217C383.529 3.01823 383.653 3.00575 383.764 3.01131C383.874 3.01536 383.984 3.0329 384.051 3.05062C384.169 3.08013 384.097 3.12091 383.863 3.15633C383.768 3.1702 383.628 3.16776 383.511 3.17123Z" fill="#00CA75"/>
<path d="M732.335 15.9928C732.4 15.9729 732.466 15.9531 732.538 15.9347C732.809 15.9592 732.927 15.9889 732.855 16.0239C732.811 16.0452 732.724 16.0637 732.659 16.0835C732.388 16.059 732.278 16.0278 732.335 15.9928Z" fill="#00CA75"/>
<path d="M243.912 29.0064C243.911 28.9883 244.013 28.9593 244.093 28.953C244.247 28.9419 244.437 28.9621 244.57 29.0037C244.755 29.0631 244.646 29.0952 244.309 29.08C244.074 29.0689 243.912 29.0394 243.912 29.0064Z" fill="#00CA75"/>
<path d="M629.419 9.78476C629.515 9.79789 629.61 9.81103 629.699 9.82569C629.576 9.88175 629.423 9.90638 629.261 9.89201C629.158 9.88341 629.07 9.86574 628.974 9.85261C629.097 9.79655 629.243 9.77495 629.419 9.78476Z" fill="#00CA75"/>
<path d="M626.87 9.72212C627.016 9.69901 627.192 9.71033 627.398 9.75305C627.332 9.77284 627.274 9.7956 627.194 9.81094C627.056 9.83552 626.873 9.82423 626.674 9.77997C626.732 9.76172 626.797 9.74193 626.87 9.72212Z" fill="#00CA75"/>
<path d="M624.92 9.79298C625.015 9.80611 625.111 9.81925 625.199 9.83391C625.076 9.88997 624.93 9.91458 624.761 9.90024C624.659 9.89164 624.57 9.87397 624.475 9.86083C624.598 9.80477 624.744 9.78167 624.92 9.79298Z" fill="#00CA75"/>
<path d="M623.485 9.7148C623.595 9.74453 623.538 9.78098 623.327 9.82257C623.231 9.80937 623.122 9.79927 623.048 9.78146C622.93 9.75327 622.988 9.7153 623.206 9.67367C623.294 9.68841 623.389 9.70161 623.485 9.7148Z" fill="#00CA75"/>
</svg>
