<svg width="133" height="33" viewBox="0 0 133 33" fill="none" xmlns="http://www.w3.org/2000/svg">
<path d="M124.417 17.4389C124.235 17.4665 124.052 17.4855 123.874 17.5269C123.759 17.5528 123.71 17.4769 123.633 17.4372C123.607 17.4234 123.579 17.3957 123.556 17.3992C123.376 17.4268 123.197 17.4579 123.017 17.4889C122.962 17.5562 122.927 17.646 122.843 17.6788C122.761 17.7098 122.663 17.7098 122.572 17.7254C122.451 17.7444 122.33 17.7634 122.209 17.7806C122.149 17.7892 122.099 17.822 122.079 17.8842C122.075 17.8945 122.116 17.9204 122.138 17.9359C122.211 17.9877 122.282 18.0464 122.363 18.0861C122.44 18.1241 122.535 18.0619 122.618 18.1103C122.803 18.219 122.804 18.2173 122.946 18.1966C123.066 18.1776 123.187 18.1569 123.308 18.1431C123.332 18.1396 123.36 18.1655 123.385 18.1793C123.462 18.2173 123.512 18.3036 123.625 18.2708C123.711 18.2449 123.807 18.2397 123.896 18.2259C123.971 18.276 124.041 18.3329 124.122 18.3726C124.197 18.4106 124.219 18.4399 124.179 18.49C124.142 18.5366 124.091 18.5556 124.023 18.559C123.962 18.5607 123.902 18.5763 123.841 18.5849C123.81 18.5901 123.781 18.5935 123.752 18.5987C123.636 18.6177 123.636 18.6177 123.426 18.5072C123.343 18.4641 123.25 18.5245 123.171 18.4831C123.118 18.4554 123.072 18.414 123.021 18.3847C122.999 18.3726 122.964 18.3709 122.936 18.3743C122.845 18.3864 122.753 18.395 122.665 18.4175C122.603 18.433 122.566 18.4813 122.574 18.5297C122.575 18.5487 122.619 18.5763 122.645 18.578C122.704 18.5814 122.766 18.5573 122.823 18.5694C122.878 18.5814 122.935 18.616 122.975 18.6539C123.057 18.7333 123.151 18.6626 123.229 18.6833C123.312 18.7057 123.38 18.7748 123.458 18.8162C123.479 18.8265 123.517 18.8093 123.548 18.8041C123.638 18.792 123.728 18.7817 123.818 18.7696C123.893 18.8196 123.973 18.8645 124.041 18.9215C124.164 19.025 124.296 19.0647 124.455 19.0146C124.545 18.987 124.633 18.9974 124.704 19.0647C124.778 19.1337 124.862 19.1268 124.955 19.113C125.041 19.0992 125.129 19.0613 125.217 19.1096C125.408 19.2166 125.41 19.2218 125.635 19.1803C125.703 19.1683 125.754 19.1648 125.805 19.2045C125.853 19.2408 125.904 19.2718 125.954 19.3063C126.044 19.2943 126.135 19.2822 126.225 19.2684C126.34 19.2494 126.404 19.2735 126.432 19.3702C126.448 19.4289 126.456 19.4824 126.496 19.5221C126.544 19.5704 126.595 19.5687 126.665 19.5549C126.73 19.5428 126.778 19.5238 126.806 19.4617C126.817 19.4358 126.839 19.4116 126.859 19.3909C126.875 19.3754 126.901 19.3512 126.916 19.3547C126.943 19.3616 126.98 19.3805 126.989 19.403C127.079 19.6118 127.079 19.6136 127.17 19.674C127.271 19.7413 127.375 19.8017 127.467 19.8776C127.549 19.9449 127.632 19.9156 127.722 19.9156C127.789 19.9156 127.833 19.9605 127.828 20.0053C127.824 20.0312 127.799 20.0692 127.777 20.0726C127.597 20.1072 127.416 20.1365 127.234 20.1607C127.212 20.1641 127.185 20.133 127.159 20.1175C127.108 20.0864 127.062 20.0381 127.007 20.0278C126.952 20.0174 126.888 20.0433 126.828 20.0519C126.767 20.0606 126.703 20.083 126.648 20.0692C126.593 20.0554 126.549 20.0053 126.498 19.9725C126.474 19.957 126.441 19.9346 126.421 19.9398C126.287 19.9812 126.188 19.9242 126.093 19.8483C126.073 19.8327 126.038 19.8224 126.012 19.8258C125.8 19.8552 125.589 19.8897 125.377 19.9225C125.291 19.9363 125.221 19.8759 125.203 19.7741C125.193 19.7171 125.175 19.6601 125.175 19.6032C125.175 19.4996 125.074 19.4427 125.001 19.4548C124.88 19.472 124.757 19.4858 124.638 19.5117C124.541 19.5324 124.459 19.5117 124.393 19.4496C124.316 19.3788 124.228 19.3926 124.14 19.4116C124.074 19.4254 124.056 19.4824 124.059 19.6256C124.063 19.7413 124.032 19.7775 123.913 19.7965C123.763 19.8207 123.611 19.8448 123.458 19.8638C123.435 19.8673 123.407 19.8379 123.383 19.8224C123.332 19.7913 123.286 19.7413 123.231 19.7309C123.176 19.7188 123.112 19.7447 123.052 19.7551C122.991 19.7637 122.927 19.7879 122.872 19.7758C122.817 19.7637 122.771 19.7119 122.722 19.6791C122.698 19.6636 122.669 19.6412 122.645 19.6446C122.524 19.6584 122.403 19.6791 122.282 19.6981C122.147 19.7188 122.147 19.7188 121.954 19.6118C121.866 19.5635 121.779 19.6015 121.692 19.6153C121.601 19.6291 121.515 19.636 121.443 19.567C121.396 19.5221 121.343 19.4945 121.286 19.5031C121.134 19.5238 120.983 19.5497 120.831 19.5704C120.806 19.5739 120.771 19.5652 120.751 19.5497C120.654 19.4772 120.558 19.4202 120.423 19.4565C120.306 19.4876 120.179 19.4893 120.062 19.5186C119.998 19.5342 119.968 19.5894 119.981 19.6325C119.989 19.655 120.027 19.6809 120.053 19.6809C120.111 19.6826 120.176 19.6567 120.23 19.667C120.344 19.6878 120.401 19.8327 120.549 19.793C120.637 19.7689 120.729 19.7603 120.82 19.7533C120.844 19.7516 120.87 19.7844 120.895 19.8017C120.969 19.8483 121.033 19.9087 121.139 19.8776C121.227 19.8534 121.321 19.8466 121.41 19.8328C121.553 19.8103 121.553 19.812 121.738 19.9173C121.826 19.9674 121.914 19.9277 122 19.9156C122.064 19.907 122.125 19.8897 122.176 19.9139C122.255 19.9501 122.312 20.0329 122.409 20.0278C122.5 20.0226 122.59 19.9984 122.682 19.9898C122.739 19.9846 122.792 20.0122 122.837 20.0588C122.885 20.1054 122.936 20.1261 122.999 20.1158C123.088 20.102 123.18 20.0847 123.272 20.0761C123.297 20.0744 123.327 20.0899 123.35 20.1037C123.402 20.1348 123.451 20.171 123.501 20.2038C123.59 20.1935 123.682 20.19 123.77 20.1693C123.838 20.1538 123.885 20.1607 123.94 20.1952C124.01 20.2418 124.067 20.3246 124.18 20.2849C124.237 20.266 124.303 20.2711 124.36 20.2539C124.43 20.2314 124.477 20.2401 124.527 20.2918C124.62 20.3902 124.737 20.3919 124.858 20.354C124.99 20.3125 125.089 20.3609 125.188 20.4368C125.292 20.5162 125.292 20.5145 125.373 20.7061C125.397 20.7613 125.465 20.7872 125.521 20.7768C125.617 20.7596 125.699 20.7682 125.769 20.8338C125.842 20.9045 125.93 20.8959 126.02 20.8769C126.139 20.851 126.258 20.8286 126.355 20.9287C126.403 20.977 126.454 20.9891 126.518 20.977C126.699 20.946 126.883 20.927 127.06 20.889C127.168 20.8649 127.231 20.9201 127.304 20.9667C127.403 21.0305 127.511 21.0875 127.511 21.2238C127.511 21.2463 127.537 21.2722 127.559 21.2894C127.606 21.3257 127.658 21.3567 127.707 21.3913C127.78 21.443 127.852 21.4862 127.952 21.4586C128.04 21.4361 128.134 21.4292 128.224 21.4137C128.313 21.3982 128.396 21.3895 128.476 21.4551C128.57 21.5293 128.669 21.6001 128.775 21.6553C128.85 21.695 128.949 21.6277 129.03 21.6812C129.079 21.714 129.127 21.752 129.18 21.7796C129.202 21.7917 129.237 21.783 129.266 21.7796C129.327 21.7727 129.389 21.7675 129.447 21.7503C129.515 21.7313 129.566 21.7347 129.618 21.7744C129.665 21.8107 129.713 21.8607 129.768 21.8711C129.85 21.8866 129.942 21.8176 130.025 21.897C130.067 21.9367 130.12 21.9746 130.175 21.9867C130.23 21.9988 130.294 21.9729 130.352 21.9746C130.378 21.9746 130.409 22.0022 130.424 22.0247C130.433 22.0368 130.42 22.0695 130.407 22.0868C130.391 22.1075 130.367 22.1351 130.343 22.1386C130.162 22.1697 129.981 22.1955 129.799 22.2249C129.691 22.2421 129.691 22.2421 129.473 22.1334C129.422 22.1075 129.365 22.1127 129.301 22.1248C129.215 22.1403 129.127 22.1697 129.037 22.1386C128.92 22.0212 128.775 22.0109 128.621 22.0557C128.557 22.0747 128.498 22.0747 128.451 22.0419C128.35 21.9763 128.244 21.916 128.154 21.8383C128.084 21.7779 128.051 21.7727 128.022 21.8555C128.013 21.8814 128.004 21.909 128.006 21.9332C128.017 22.0195 128.037 22.1041 128.048 22.1904C128.051 22.2145 128.037 22.2421 128.028 22.268C127.998 22.3405 127.96 22.3353 127.896 22.2749C127.832 22.2145 127.755 22.1748 127.652 22.2025C127.564 22.2266 127.469 22.2232 127.381 22.2491C127.245 22.287 127.15 22.2318 127.053 22.1576C127.033 22.142 126.998 22.1334 126.972 22.1369C126.699 22.1766 126.428 22.2214 126.155 22.2611C126.097 22.2698 126.044 22.2439 125.998 22.1973C125.95 22.1507 125.897 22.1265 125.838 22.1351C125.596 22.1714 125.355 22.2042 125.113 22.2491C125.014 22.268 124.935 22.2456 124.867 22.1852C124.816 22.1403 124.768 22.1265 124.704 22.1317C124.635 22.1369 124.585 22.1541 124.55 22.2042C124.517 22.2525 124.541 22.2818 124.615 22.3198C124.693 22.3612 124.767 22.4147 124.842 22.4631C124.902 22.4562 124.963 22.4423 125.021 22.4441C125.047 22.4441 125.071 22.4751 125.096 22.4924C125.17 22.5424 125.237 22.5925 125.342 22.5649C125.43 22.5407 125.523 22.5356 125.613 22.52C125.738 22.501 125.738 22.501 125.939 22.6098C125.99 22.6374 126.045 22.6356 126.111 22.6201C126.168 22.608 126.227 22.6322 126.267 22.684C126.284 22.7047 126.278 22.7392 126.243 22.8531C126.243 22.9377 126.282 22.8997 126.294 22.8445C126.315 22.7651 126.276 22.7392 126.203 22.7824C126.152 22.8134 126.126 22.8583 126.139 22.8946C126.146 22.9135 126.181 22.9377 126.243 22.8531C126.404 22.7496 126.527 22.7375 126.644 22.7099C126.714 22.6943 126.758 22.7012 126.813 22.7461C126.879 22.7996 126.945 22.8566 127.053 22.829C127.17 22.7979 127.295 22.7944 127.414 22.7685C127.524 22.7444 127.581 22.8203 127.65 22.8652C127.734 22.9187 127.828 22.8583 127.905 22.8894C127.985 22.9204 128.042 22.9964 128.136 23.0102C128.271 22.9636 128.357 23.0499 128.46 23.1068C128.541 23.15 128.636 23.112 128.722 23.093C128.819 23.0723 128.9 23.0913 128.967 23.1534C129.044 23.2242 129.13 23.2087 129.218 23.1931C129.424 23.1586 129.431 23.1534 129.55 23.2484C129.636 23.3174 129.719 23.2863 129.805 23.2777C129.88 23.3243 129.953 23.3743 130.032 23.4158C130.052 23.4261 130.09 23.4089 130.122 23.4037C130.211 23.3899 130.303 23.3761 130.393 23.3623C130.453 23.3536 130.517 23.3278 130.572 23.3381C130.627 23.3502 130.673 23.4002 130.723 23.433C130.772 23.4658 130.823 23.4986 130.871 23.5331C130.944 23.5849 131.014 23.6281 131.116 23.6022C131.204 23.5797 131.296 23.5728 131.388 23.5573C131.503 23.5383 131.499 23.5435 131.714 23.6471C131.829 23.704 131.948 23.635 132.065 23.6281C132.124 23.6246 132.181 23.6436 132.221 23.6937C132.238 23.7144 132.232 23.7489 132.238 23.7782C131.935 23.8248 131.631 23.8645 131.333 23.9215C131.217 23.9439 131.157 23.8818 131.094 23.83C130.992 23.7471 130.856 23.868 130.759 23.761C130.701 23.6971 130.616 23.6609 130.515 23.6919C130.457 23.7092 130.395 23.7075 130.334 23.723C130.18 23.761 130.039 23.7627 129.916 23.6436C129.874 23.6022 129.814 23.5797 129.77 23.54C129.719 23.4969 129.669 23.4727 129.609 23.4814C129.336 23.5228 129.065 23.5642 128.793 23.6091C128.77 23.6125 128.746 23.6384 128.726 23.6574C128.674 23.7057 128.691 23.7437 128.773 23.7748C128.801 23.7851 128.823 23.8076 128.848 23.8248C128.898 23.8576 128.944 23.9094 128.999 23.9215C129.054 23.9336 129.118 23.9094 129.178 23.9008C129.239 23.8921 129.303 23.8662 129.358 23.8766C129.413 23.8887 129.458 23.9387 129.51 23.9698C129.534 23.9853 129.563 24.0112 129.587 24.0095C129.708 23.9991 129.827 23.9802 129.948 23.9646C130.023 24.0112 130.087 24.0785 130.177 24.0941C130.233 24.1044 130.294 24.0854 130.352 24.0889C130.378 24.0906 130.411 24.1165 130.424 24.1389C130.431 24.1527 130.407 24.1873 130.389 24.2045C130.319 24.2701 130.224 24.258 130.138 24.2787C130.045 24.3012 129.96 24.2943 129.889 24.227C129.841 24.1821 129.788 24.1579 129.73 24.1666C129.577 24.189 129.427 24.2149 129.275 24.2339C129.25 24.2373 129.218 24.2218 129.195 24.2097C129.002 24.1044 129.002 24.101 128.867 24.1234C128.667 24.1562 128.667 24.1562 128.533 24.0647C128.508 24.0475 128.48 24.0147 128.458 24.0164C128.246 24.044 128.035 24.0716 127.824 24.1113C127.755 24.1234 127.707 24.1234 127.656 24.0785C127.612 24.0406 127.56 23.9974 127.505 23.9871C127.449 23.9767 127.386 24.0026 127.326 24.0112C127.265 24.0199 127.201 24.0423 127.148 24.0285C127.093 24.0147 127.046 23.9664 126.998 23.9318C126.949 23.8956 126.895 23.8973 126.828 23.9111C126.619 23.9508 126.617 23.9456 126.41 23.8386C126.386 23.8265 126.355 23.8127 126.329 23.8162C126.177 23.8369 126.027 23.8628 125.875 23.8835C125.816 23.8921 125.76 23.8697 125.719 23.8196C125.703 23.7989 125.708 23.7644 125.697 23.6971C125.684 23.6816 125.699 23.7092 125.703 23.7351C125.73 23.7316 125.763 23.7351 125.783 23.7213C125.835 23.6885 125.86 23.6453 125.847 23.6091C125.84 23.5901 125.805 23.5659 125.783 23.5659C125.743 23.5659 125.708 23.6039 125.697 23.6971C125.582 23.754 125.459 23.7661 125.34 23.7938C125.27 23.811 125.226 23.8024 125.171 23.7575C125.106 23.7023 125.038 23.6488 124.93 23.6764C124.812 23.7074 124.688 23.7126 124.567 23.7368C124.428 23.7644 124.367 23.6091 124.25 23.6125C124.129 23.616 124.008 23.6453 123.887 23.666C123.781 23.6833 123.781 23.6833 123.561 23.5711C123.48 23.5297 123.385 23.5901 123.306 23.5469C123.253 23.5193 123.208 23.4779 123.156 23.4486C123.134 23.4365 123.099 23.4365 123.072 23.4399C122.92 23.4606 122.766 23.4745 122.619 23.5124C122.453 23.5573 122.326 23.509 122.207 23.4071C122.057 23.4261 121.905 23.4365 121.757 23.4693C121.648 23.4934 121.586 23.4365 121.513 23.3899C121.487 23.3744 121.465 23.3485 121.438 23.3416C121.41 23.3347 121.377 23.3485 121.348 23.3536C121.227 23.3726 121.103 23.3813 120.985 23.4123C120.841 23.452 120.786 23.3105 120.674 23.2932C120.599 23.3778 120.558 23.4934 120.41 23.5021C120.289 23.509 120.168 23.5366 120.047 23.5556C119.987 23.5642 119.926 23.5746 119.866 23.5832C119.769 23.5987 119.723 23.666 119.743 23.7696C119.754 23.8265 119.763 23.8835 119.772 23.9405C119.791 24.0423 119.745 24.1286 119.668 24.1407C119.456 24.1735 119.245 24.208 119.032 24.2373C118.976 24.2459 118.921 24.2166 118.875 24.17C118.827 24.1234 118.774 24.1027 118.715 24.1113C118.503 24.1441 118.292 24.1786 118.08 24.208C118.056 24.2114 118.025 24.1942 118.001 24.1804C117.95 24.1493 117.9 24.1131 117.851 24.0803C117.73 24.0958 117.611 24.1061 117.492 24.1268C117.299 24.1579 117.299 24.1596 117.158 24.0647C117.133 24.0475 117.107 24.0147 117.083 24.0164C116.991 24.0233 116.902 24.0406 116.81 24.0561C116.541 24.101 116.541 24.101 116.462 24.0492C116.391 24.0009 116.326 23.9422 116.218 23.9698C116.101 24.0009 115.976 24.0112 115.856 24.0285C115.766 24.0406 115.676 24.0544 115.586 24.0578C115.562 24.0596 115.537 24.0268 115.511 24.0095C115.438 23.956 115.366 23.9128 115.266 23.9422C115.207 23.9594 115.145 23.9629 115.084 23.9715C114.927 23.9957 114.927 23.9957 114.668 23.8921C114.643 23.8818 114.612 23.8697 114.586 23.8749C114.373 23.9059 114.163 23.9405 113.95 23.9698C113.925 23.9733 113.894 23.9629 113.868 23.9543C113.578 23.8542 113.578 23.8542 113.271 23.9025C113.153 23.9197 113.15 23.9267 113.027 23.8352C112.972 23.7955 112.926 23.7765 112.862 23.7886C112.62 23.83 112.377 23.8576 112.137 23.9059C112.029 23.9267 111.966 23.8749 111.893 23.8283C111.867 23.8127 111.84 23.7782 111.818 23.78C111.576 23.8127 111.334 23.8524 111.092 23.8852C111.07 23.8887 111.043 23.8542 111.017 23.8386C110.968 23.8076 110.92 23.761 110.865 23.7506C110.808 23.7403 110.746 23.7661 110.684 23.7748C110.532 23.7972 110.532 23.7955 110.356 23.6937C110.332 23.6799 110.301 23.6609 110.277 23.6643C110.035 23.6988 109.792 23.7282 109.552 23.7782C109.414 23.8058 109.321 23.7558 109.224 23.6833C109.203 23.6678 109.169 23.6609 109.143 23.6643C108.87 23.704 108.599 23.7489 108.326 23.7886C108.269 23.7972 108.214 23.7679 108.168 23.723C108.095 23.6522 108.009 23.6608 107.917 23.6764C107.707 23.7126 107.705 23.7109 107.58 23.6281C107.555 23.6108 107.533 23.5884 107.505 23.5797C107.48 23.5711 107.447 23.5763 107.419 23.5797C107.298 23.597 107.177 23.616 107.056 23.635C106.935 23.6539 106.813 23.6643 106.694 23.6937C106.547 23.7299 106.477 23.6177 106.375 23.5659C106.225 23.5884 106.071 23.6022 105.922 23.6384C105.809 23.666 105.756 23.5901 105.681 23.5504C105.655 23.5366 105.627 23.5072 105.604 23.5107C105.331 23.5487 105.058 23.5901 104.786 23.6367C104.721 23.647 104.677 23.6332 104.622 23.5918C104.499 23.4986 104.493 23.5021 104.288 23.5366C104.198 23.5521 104.112 23.5659 104.035 23.4952C103.968 23.4313 103.885 23.4158 103.788 23.4365C103.669 23.4624 103.546 23.4762 103.425 23.4934C103.304 23.5124 103.183 23.5383 103.063 23.5469C102.965 23.5556 102.907 23.4745 102.83 23.433C102.806 23.421 102.773 23.4192 102.746 23.4227C102.625 23.4382 102.5 23.4503 102.383 23.4796C102.24 23.5159 102.161 23.421 102.06 23.3657C102.038 23.3536 102.002 23.3605 101.974 23.3657C101.762 23.3968 101.551 23.4313 101.339 23.4641C101.263 23.4175 101.187 23.3726 101.111 23.326C100.991 23.3433 100.87 23.3623 100.749 23.3795C100.657 23.3933 100.564 23.3985 100.478 23.4244C100.366 23.4589 100.311 23.3778 100.236 23.3381C100.21 23.3243 100.183 23.295 100.159 23.2984C100.007 23.3174 99.8547 23.3381 99.7044 23.3675C99.5615 23.3968 99.5048 23.2414 99.3875 23.2432C99.2666 23.2449 99.142 23.2673 99.0248 23.2984C98.8892 23.3347 98.7939 23.2794 98.6968 23.2052C98.6767 23.1897 98.6419 23.181 98.6162 23.1845C98.4642 23.2052 98.3139 23.2311 98.1619 23.2518C98.1362 23.2553 98.1051 23.2466 98.0795 23.2363C97.79 23.1345 97.79 23.1327 97.6636 23.1534C97.5738 23.1672 97.4822 23.1845 97.3906 23.1931C97.365 23.1966 97.3338 23.181 97.31 23.1672C97.1194 23.062 97.1194 23.0602 96.982 23.0809C96.8611 23.0999 96.7402 23.1189 96.6193 23.1379C96.5442 23.0913 96.4672 23.0464 96.3921 22.9998C96.2419 23.0223 96.088 23.0395 95.9396 23.0706C95.87 23.0844 95.8242 23.0792 95.7711 23.0361C95.7051 22.9843 95.6392 22.9239 95.5292 22.9532C95.412 22.9843 95.2874 22.9877 95.1683 23.0136C95.0254 23.0447 94.9668 22.8876 94.8514 22.8894C94.7305 22.8911 94.6059 22.9135 94.4887 22.9446C94.3531 22.9808 94.2578 22.9256 94.1607 22.8514C94.1406 22.8359 94.1058 22.8272 94.0801 22.8307C93.7467 22.8807 93.4151 22.9308 93.0817 22.9843C92.8765 23.0171 92.8765 23.0188 92.4863 22.9239C92.4588 22.917 92.4294 22.9101 92.402 22.9135C92.281 22.9291 92.1565 22.9411 92.0392 22.9705C91.8963 23.0067 91.8175 22.9135 91.7168 22.8566C91.6948 22.8445 91.66 22.8514 91.6307 22.8548C91.5391 22.8669 91.4493 22.8825 91.3577 22.8963C91.2368 22.9153 91.1159 22.9342 90.995 22.9532C90.9199 22.9084 90.8429 22.8617 90.7678 22.8169C90.6176 22.8393 90.4637 22.8514 90.3153 22.8876C90.2017 22.9153 90.1486 22.8428 90.0735 22.8013C90.0478 22.7875 90.0203 22.7582 89.9965 22.7599C89.7236 22.7979 89.4506 22.8376 89.1795 22.8859C89.0677 22.9066 89.0164 22.8289 88.9413 22.7893C88.9156 22.7772 88.8863 22.7547 88.8625 22.7582C88.6811 22.7824 88.4998 22.8117 88.3184 22.841C88.2158 22.8583 88.2158 22.8583 87.9923 22.7513C87.9667 22.7392 87.9373 22.7271 87.9117 22.7306C87.3364 22.8169 86.763 22.9084 86.1877 22.9946C86.1291 23.0033 86.076 22.9774 86.0302 22.9308C85.9826 22.8842 85.9294 22.86 85.8708 22.8687C85.629 22.9049 85.3853 22.9377 85.1453 22.9826C85.0464 23.0016 84.9676 22.9791 84.8998 22.9187C84.8485 22.8738 84.8009 22.8566 84.7368 22.8669C84.6159 22.8876 84.495 22.9049 84.374 22.9239C84.2531 22.9429 84.1322 22.9619 84.0113 22.9808C83.8904 22.9998 83.7677 23.0102 83.6486 23.0395C83.502 23.0758 83.4306 22.9688 83.3298 22.9153C83.1484 22.9412 82.967 22.967 82.7875 22.9946C82.5457 23.0309 82.3038 23.0706 82.062 23.1051C82.04 23.1086 82.0126 23.0775 81.9869 23.062C81.9118 23.0188 81.8568 22.9584 81.7451 22.9774C81.2028 23.0689 80.6569 23.1465 80.1127 23.2363C79.9992 23.2553 79.9497 23.181 79.8727 23.1413C79.8471 23.1293 79.8178 23.1051 79.794 23.1086C79.4917 23.1517 79.1894 23.2 78.8871 23.2466C78.7644 23.2656 78.7644 23.2656 78.5592 23.1586C78.5354 23.1465 78.5042 23.131 78.4785 23.1344C78.0847 23.1931 77.6926 23.2553 77.2987 23.3157C77.2401 23.3243 77.187 23.3001 77.1394 23.2535C77.0936 23.2069 77.0386 23.181 76.9818 23.1897C76.6191 23.2449 76.2545 23.2984 75.8936 23.3588C75.7965 23.3761 75.7159 23.3605 75.6462 23.2984C75.5968 23.2535 75.5473 23.2345 75.485 23.2449C74.9409 23.3295 74.3968 23.4106 73.8527 23.5004C73.7483 23.5176 73.675 23.4848 73.609 23.4279C73.5559 23.383 73.5101 23.3744 73.4441 23.3813C73.3745 23.3899 73.3324 23.4089 73.2939 23.4606C73.2445 23.528 73.2133 23.6125 73.0961 23.6177C72.9752 23.6229 72.8524 23.6436 72.7333 23.6729C72.6198 23.7023 72.5666 23.6246 72.4952 23.578C72.442 23.5452 72.3926 23.54 72.3248 23.5556C72.2625 23.5694 72.224 23.5987 72.1874 23.6539C72.1068 23.7713 72.0995 23.7713 72.0005 23.6971C71.9474 23.6574 71.8997 23.6263 71.8411 23.6332C71.5993 23.6678 71.3575 23.7057 71.1156 23.7454C70.9764 23.7679 70.9746 23.7713 70.8702 23.685C70.8189 23.6419 70.7694 23.6212 70.7089 23.6315C70.0439 23.7351 69.3789 23.8352 68.7139 23.9439C68.6113 23.9612 68.5416 23.9249 68.4684 23.8731C68.4445 23.8559 68.4208 23.8317 68.3933 23.8248C68.3658 23.8179 68.3346 23.8248 68.3053 23.8283C67.8217 23.9025 67.3362 23.9733 66.8543 24.0561C66.7444 24.0751 66.6858 24.0199 66.6107 23.975C66.5851 23.9595 66.563 23.9353 66.5356 23.9284C66.5081 23.9232 66.4751 23.9353 66.4458 23.9405C65.9622 24.0147 65.4767 24.0854 64.9949 24.1683C64.8794 24.1873 64.83 24.1148 64.7548 24.0768C64.7292 24.063 64.7017 24.0371 64.6779 24.0406C64.5259 24.0595 64.3756 24.0854 64.2236 24.1079C63.8608 24.1648 63.4981 24.2183 63.1353 24.277C62.9961 24.2995 62.9356 24.1458 62.8184 24.1527C62.6663 24.1614 62.5161 24.1959 62.364 24.2201C62.2431 24.239 62.1222 24.2563 62.0013 24.277C61.8822 24.296 61.8822 24.296 61.5854 24.1959C61.5598 24.1873 61.5286 24.1752 61.503 24.1786C61.0798 24.2425 60.6548 24.3064 60.2334 24.3754C60.1363 24.3909 60.0557 24.3823 59.9861 24.3184C59.9366 24.2736 59.8853 24.2511 59.8249 24.2615C59.1892 24.3599 58.5553 24.4582 57.9195 24.5549C57.8957 24.5583 57.8646 24.5411 57.8408 24.5273C57.7895 24.4962 57.74 24.46 57.6905 24.4272C57.6539 24.4669 57.6063 24.5031 57.5825 24.548C57.5495 24.6084 57.5055 24.6257 57.4359 24.636C57.3663 24.6464 57.3223 24.6429 57.2674 24.598C57.2014 24.5428 57.1336 24.4997 57.0255 24.5169C56.3605 24.6256 55.6955 24.724 55.0304 24.831C54.9205 24.8483 54.8692 24.7723 54.7923 24.7327C54.7667 24.7206 54.7373 24.7016 54.7135 24.7051C54.4405 24.7447 54.1694 24.7879 53.8964 24.8293C53.1398 24.9467 52.3832 25.0589 51.6284 25.1831C51.491 25.2056 51.3975 25.1624 51.3004 25.0882C51.2803 25.0727 51.2455 25.064 51.2198 25.0675C50.1609 25.2297 49.102 25.3937 48.0449 25.5577C47.9881 25.5663 47.9332 25.5387 47.8874 25.4938C47.8397 25.4472 47.7866 25.4248 47.728 25.4334C47.2443 25.5076 46.7607 25.5818 46.277 25.6578C46.1561 25.6768 46.1543 25.6785 46.0297 25.5956C46.004 25.5784 45.9766 25.5456 45.9564 25.549C45.9143 25.5577 45.874 25.6008 45.8447 25.6595C45.8153 25.7216 45.7695 25.7389 45.7018 25.751C45.6321 25.763 45.5864 25.7579 45.5332 25.7164C45.4654 25.6647 45.4031 25.6146 45.2932 25.6319C43.9027 25.8528 42.5122 26.0651 41.1217 26.2843C41.0099 26.3015 40.9586 26.229 40.8817 26.1893C40.856 26.1773 40.8304 26.16 40.8029 26.1565C40.7736 26.1531 40.7425 26.1635 40.7132 26.1686C38.4451 26.519 36.1771 26.8711 33.909 27.2215C33.7734 27.2422 33.7753 27.2422 33.6269 27.401C33.6086 27.4199 33.5847 27.4458 33.5591 27.4493C32.8647 27.5597 32.1686 27.6667 31.4724 27.7737C31.1701 27.8203 30.8679 27.8687 30.5656 27.9136C30.4575 27.9291 30.4575 27.9291 30.1992 28.1155C30.1772 28.131 30.1515 28.1517 30.1259 28.1552C28.9167 28.3433 27.7076 28.5314 26.4966 28.7161C26.4013 28.7299 26.3244 28.761 26.2804 28.8438C26.2493 28.9025 26.209 28.937 26.1485 28.9474C25.3021 29.0786 24.4558 29.2115 23.6075 29.3392C23.5068 29.3547 23.4463 29.403 23.3968 29.4755C23.3803 29.4997 23.3657 29.5273 23.3418 29.5445C23.3199 29.5601 23.2869 29.5653 23.2594 29.5704C22.5339 29.6826 21.8085 29.7983 21.0812 29.9053C20.9731 29.9208 20.9291 29.9847 20.8759 30.052C20.8576 30.0744 20.8448 30.1055 20.821 30.121C20.7972 30.1348 20.7624 30.1348 20.733 30.1383C20.1285 30.2315 19.5239 30.3264 18.9194 30.4196C18.8021 30.411 18.7764 30.5111 18.7196 30.5715C18.6995 30.5922 18.6849 30.6198 18.6611 30.6336C18.6354 30.6474 18.6024 30.6457 18.5712 30.6491C18.0876 30.7234 17.6039 30.8028 17.1185 30.8718C17.0067 30.8873 16.9847 30.9753 16.9243 31.0358C16.9041 31.0547 16.884 31.0841 16.8602 31.0893C16.5579 31.1393 16.2556 31.1859 15.9533 31.2308C15.8526 31.2463 15.8525 31.2446 15.6748 31.4155C15.6547 31.4345 15.6308 31.4552 15.6052 31.4603C15.1527 31.5328 14.6984 31.6019 14.244 31.6726C14.1854 31.6813 14.1451 31.7227 14.1158 31.7814C14.0865 31.84 14.0443 31.878 13.9857 31.8866C13.623 31.9436 13.2602 32.0023 12.8975 32.0541C12.7967 32.0679 12.7308 32.111 12.6868 32.1887C12.6538 32.2474 12.6135 32.2767 12.5494 32.2871C12.1866 32.3423 11.8239 32.4027 11.4593 32.451C11.3531 32.4648 11.2981 32.5235 11.2541 32.596C11.2193 32.6547 11.179 32.6754 11.1112 32.6858C10.4462 32.7859 9.77937 32.8859 9.11617 32.9964C9.00442 33.0154 8.94761 32.955 8.87433 32.9118C8.76991 32.8514 8.67284 32.7858 8.67284 32.6512C8.67284 32.6305 8.64168 32.6063 8.6197 32.5891C8.45665 32.4596 8.45664 32.4597 8.43099 32.3216C8.41634 32.237 8.39985 32.1507 8.38703 32.0644C8.36321 31.9229 8.30457 31.8867 8.13602 31.9125C8.07556 31.9212 8.01511 31.9332 7.95465 31.9401C7.86488 31.9522 7.7971 31.8953 7.78062 31.7917C7.77146 31.7348 7.76048 31.6778 7.75132 31.6208C7.84292 31.607 7.84107 31.6053 8.00229 31.3965C8.07007 31.3085 8.0701 31.3085 7.94002 31.2204C7.89056 31.1876 7.84291 31.1514 7.78979 31.1203C7.76597 31.1065 7.73484 31.0979 7.70919 31.1013C7.55713 31.1221 7.40691 31.1462 7.25668 31.1704C7.01485 31.2084 7.01483 31.2083 6.76933 31.0323C6.74918 31.0185 6.71803 30.9926 6.7217 30.9788C6.74185 30.9149 6.79131 30.8873 6.8536 30.8804C6.9452 30.8701 7.03497 30.8528 7.12474 30.839C7.18519 30.8304 7.24565 30.82 7.30611 30.8114C7.3629 30.7458 7.42155 30.6819 7.47468 30.6146C7.55896 30.5111 7.55893 30.5076 7.44351 30.4351C7.37023 30.3868 7.29145 30.3437 7.21634 30.2988C7.12657 30.3126 7.03497 30.3281 6.9452 30.3402C6.83162 30.3557 6.78581 30.3229 6.7565 30.2108C6.73085 30.1124 6.76199 30.0278 6.84993 30.0071C6.9397 29.9864 7.02401 29.9726 7.06981 29.8846C7.11378 29.8 7.19071 29.7672 7.28598 29.7603C7.34643 29.7551 7.40689 29.743 7.46735 29.7327C7.54612 29.7189 7.58827 29.6309 7.57178 29.5325C7.56262 29.4686 7.5443 29.4151 7.47285 29.4013C7.15591 29.3409 7.15222 29.3426 6.99467 29.2253C6.98001 29.2149 6.96905 29.1838 6.97454 29.1683C6.9837 29.1424 7.00386 29.1044 7.02584 29.0993C7.23653 29.0613 7.4472 29.0268 7.65789 29.0009C7.7275 28.9923 7.77881 28.9802 7.80262 28.9163C7.8356 28.8283 7.82094 28.7472 7.75682 28.6868C7.73667 28.6678 7.70366 28.6436 7.68168 28.6453C7.43985 28.6764 7.19987 28.7161 6.95804 28.7472C6.93605 28.7506 6.89577 28.7213 6.88661 28.6989C6.86829 28.6574 6.89575 28.6022 6.95987 28.5832C7.04414 28.5573 7.13025 28.5556 7.18704 28.4693C7.26582 28.3468 7.36291 28.2346 7.45084 28.1172C7.4655 28.0965 7.48935 28.0568 7.48385 28.0533C7.43805 28.0154 7.38491 27.986 7.33728 27.9498C7.25667 27.8894 7.25665 27.8048 7.27497 27.7237C7.28963 27.6581 7.34459 27.6322 7.41238 27.6322C7.44169 27.6322 7.47833 27.6322 7.50214 27.6167C7.56443 27.5787 7.58459 27.5304 7.55345 27.4941C7.53513 27.4734 7.50217 27.4441 7.48018 27.4476C7.08813 27.5045 6.69421 27.5597 6.30399 27.6305C6.18857 27.6512 6.13548 27.5856 6.06586 27.539C6.01273 27.5028 5.96324 27.489 5.89729 27.5149C5.835 27.539 5.77456 27.5252 5.73609 27.4683C5.70495 27.4217 5.7599 27.382 5.90829 27.3371C5.93577 27.3285 5.9669 27.3233 5.98705 27.306C6.19957 27.1196 6.19956 27.1179 6.34612 27.0937C6.48902 27.0713 6.48906 27.0696 6.56417 26.9695C6.59898 26.9229 6.63742 26.8763 6.6704 26.8279C6.68322 26.8089 6.70523 26.7744 6.6979 26.7641C6.6576 26.7106 6.60262 26.6985 6.5385 26.7106C6.3956 26.7399 6.22708 26.7158 6.15196 26.8797C6.12265 26.9419 6.07685 26.9591 6.01089 26.9695C5.3477 27.0696 4.68448 27.1766 4.01946 27.2732C3.91137 27.2888 3.86193 27.3526 3.8198 27.4234C3.78316 27.4821 3.74284 27.4993 3.67322 27.5097C3.60361 27.52 3.54862 27.5252 3.50832 27.4683C3.4845 27.4338 3.50466 27.3854 3.55962 27.3371C3.63839 27.2681 3.62373 27.1818 3.59808 27.1006C3.57976 27.0471 3.52297 27.0092 3.46251 27.0126C3.37275 27.0195 3.28666 27.0385 3.21155 26.9695C3.16758 26.9298 3.11261 26.9021 3.06314 26.8676C2.96788 26.7969 2.87261 26.7244 2.73887 26.771C2.64727 26.7537 2.58315 26.6916 2.50987 26.6433C2.38712 26.5639 2.37613 26.5518 2.46407 26.4672C2.563 26.3723 2.48604 26.248 2.541 26.1548C2.59962 26.0547 2.68026 25.9667 2.75171 25.8735C2.77003 25.8493 2.78653 25.8269 2.80485 25.8027C2.76271 25.7682 2.72424 25.7251 2.67478 25.7009C2.61066 25.6698 2.57768 25.6319 2.58134 25.5249C2.56852 25.5093 2.57398 25.549 2.58863 25.5594C2.60512 25.5697 2.64546 25.5611 2.66561 25.549C2.71691 25.5162 2.74253 25.4731 2.7297 25.4368C2.72238 25.4179 2.68759 25.3937 2.66561 25.3937C2.6253 25.3937 2.5905 25.4317 2.57951 25.5249C2.37432 25.5956 2.16177 25.6302 1.94926 25.6578C1.92727 25.6612 1.89981 25.6267 1.87416 25.6094C1.78989 25.5508 1.78988 25.5525 1.54255 25.5352C1.5169 25.5335 1.48211 25.5093 1.46929 25.4852C1.41616 25.3799 1.41801 25.2642 1.39236 25.1521C1.43999 25.0796 1.48759 25.0088 1.53705 24.938C1.63598 24.7948 1.76425 24.6688 1.8412 24.5117C1.82471 24.4272 1.80272 24.3426 1.88333 24.2736C2.11233 24.1873 2.11052 24.1873 2.1728 24.1044C2.35051 23.8697 2.52638 23.6332 2.71141 23.402C2.76087 23.3416 2.76088 23.3088 2.67294 23.2829C2.64546 23.276 2.61611 23.2743 2.5868 23.2777C2.4952 23.2898 2.4036 23.3208 2.31383 23.3139C2.22406 23.3088 2.15811 23.2328 2.08483 23.1862C2.00971 23.1379 1.9346 23.0878 1.85949 23.0378C1.77338 23.043 1.6873 23.0913 1.60119 23.0136C1.53524 22.9532 1.4528 22.9101 1.37769 22.86C1.43448 22.7288 1.54076 22.6287 1.6232 22.5131C1.69831 22.4078 1.7001 22.4096 1.90162 22.3284C1.99689 22.2905 2.02987 22.0954 1.94926 22.0385C1.85216 21.9694 1.74959 21.9056 1.65066 21.84C1.56455 21.8452 1.47663 21.8918 1.39419 21.8141C1.33007 21.7554 1.25678 21.7157 1.15052 21.7382C0.97098 21.7761 0.787783 21.7951 0.606412 21.8262C0.544123 21.8365 0.476318 21.8297 0.448838 21.771C0.430518 21.7295 0.48365 21.6726 0.544107 21.6605C0.635708 21.6432 0.718141 21.6225 0.763941 21.5362C0.80791 21.4499 0.88851 21.424 0.983776 21.412C1.00942 21.4085 1.03876 21.3878 1.05158 21.3671C1.11754 21.267 1.19082 21.1807 1.33189 21.1841C1.39051 21.1496 1.42164 21.1065 1.40332 21.065C1.39232 21.0426 1.35387 21.0133 1.33189 21.0167C1.17983 21.034 1.02778 21.0513 0.879382 21.0823C0.809765 21.0961 0.756608 21.0996 0.712639 21.0478C0.681495 21.0133 0.697981 20.9667 0.756606 20.9166C0.807903 20.8735 0.822575 20.8234 0.818911 20.7647C0.809751 20.6284 0.754779 20.5887 0.578905 20.5973C0.452495 20.6042 0.421348 20.5818 0.393868 20.4644C0.38654 20.4368 0.368252 20.3988 0.381076 20.3799C0.459853 20.2625 0.511154 20.1175 0.659548 20.0623C0.718173 20.0416 0.780437 20.0416 0.817077 19.9967C0.853718 19.9518 0.88671 19.9 0.925183 19.8569C0.972816 19.8051 1.00576 19.7568 0.983776 19.724C0.947135 19.6653 0.88853 19.6602 0.820745 19.6809C0.76212 19.6981 0.699833 19.6998 0.639376 19.7102C0.531286 19.7292 0.443369 19.6843 0.430544 19.6084C0.395736 19.4082 0.359085 19.2097 0.32794 19.0095C0.324276 18.9853 0.333411 18.9542 0.348067 18.9335C0.399364 18.861 0.454346 18.792 0.507475 18.7212C0.569764 18.6401 0.66871 18.6557 0.752983 18.6401C0.872065 18.6177 0.872024 18.6194 1.03141 18.4537C1.0937 18.3881 1.20179 18.414 1.26592 18.3553C1.28607 18.3364 1.31721 18.3053 1.31172 18.288C1.30439 18.2656 1.26777 18.2483 1.24029 18.238C1.21464 18.2276 1.1835 18.2225 1.15602 18.2276C0.822591 18.2777 0.491003 18.3312 0.157574 18.3795C0.100781 18.3881 0.0384905 18.3502 0.0183382 18.2967C-0.00181414 18.2466 0.00366406 18.1862 0 18.1292C0.0531288 18.0585 0.113562 17.9929 0.159363 17.917C0.194172 17.8583 0.234483 17.8324 0.304101 17.8289C0.395702 17.8238 0.48548 17.803 0.588074 17.7875C0.778605 17.5355 0.965459 17.2715 1.17065 17.0195C1.25309 16.9176 1.23297 16.8141 1.24946 16.7053C1.26594 16.6052 1.38868 16.6208 1.47112 16.5914C1.53708 16.5673 1.55903 16.512 1.53338 16.4741C1.51873 16.4516 1.48577 16.4257 1.46012 16.4257C1.39966 16.4257 1.33921 16.4413 1.27875 16.4499C1.21829 16.4585 1.14868 16.4534 1.09922 16.4827C1.05158 16.5103 1.02042 16.569 0.989277 16.6191C0.954469 16.6743 0.9087 16.6933 0.839083 16.6967C0.749314 16.7002 0.65955 16.7157 0.56978 16.7278C0.470851 16.6605 0.368236 16.5949 0.27297 16.5241C0.25465 16.5103 0.250966 16.4706 0.252798 16.4447C0.256462 16.3774 0.228989 16.336 0.168532 16.3032C0.117235 16.2756 0.0750952 16.2359 0.0274625 16.2014C0.0641031 16.1548 0.104422 16.1099 0.133734 16.0599C0.197855 15.9546 0.278474 15.8786 0.417708 15.8821C0.472669 15.8148 0.516625 15.7319 0.588074 15.6853C0.655859 15.6405 0.771282 15.6853 0.822579 15.5835C0.848227 15.5334 0.886721 15.4765 0.936186 15.4558C1.01496 15.423 1.11755 15.4403 1.16336 15.3436C1.19084 15.2884 1.23112 15.2383 1.28425 15.2245C1.34471 15.209 1.40698 15.2055 1.45095 15.1727C1.47477 15.1555 1.50042 15.1279 1.50042 15.1037C1.50042 15.0882 1.46381 15.064 1.43816 15.0536C1.41434 15.0416 1.38316 15.0329 1.35568 15.0364C1.26408 15.0467 1.17431 15.0657 1.08271 15.0761C1.05706 15.0795 1.02776 15.0675 1.00028 15.0571C0.919671 15.0295 0.925156 14.995 0.989277 14.9328C1.0534 14.8724 1.09922 14.7947 1.15235 14.724C1.21098 14.7119 1.28425 14.7171 1.32455 14.6843C1.39234 14.6308 1.43996 14.5531 1.49492 14.4858C1.55538 14.4754 1.61766 14.472 1.67445 14.453C1.69827 14.4461 1.70927 14.4081 1.72942 14.3857C1.76606 14.3426 1.79723 14.2804 1.8467 14.2597C1.92731 14.2287 2.02624 14.2407 2.07387 14.1458C2.10135 14.0906 2.14347 14.0319 2.19477 14.0284C2.33766 14.0215 2.39812 13.9266 2.4714 13.8369C2.52636 13.7695 2.64362 13.8041 2.70407 13.7368C2.74438 13.6936 2.77371 13.6401 2.81401 13.5987C2.8305 13.5814 2.8653 13.5728 2.89278 13.5676C3.04301 13.5417 3.19506 13.5227 3.34528 13.4951C3.3691 13.4899 3.3911 13.4641 3.40942 13.4434C3.4479 13.3985 3.47169 13.3363 3.51932 13.307C3.56695 13.2777 3.63473 13.2777 3.69335 13.269C3.88205 13.2431 3.89672 13.25 3.98283 13.1033C4.05244 12.9842 4.22284 13.0688 4.27964 12.9376C4.31261 12.8617 4.37304 12.7996 4.48113 12.7909C4.63319 12.7789 4.78341 12.7461 4.93547 12.7236C5.07104 12.7029 5.06922 12.7029 5.21578 12.5424C5.28173 12.4699 5.37885 12.4803 5.46495 12.4665C5.55655 12.4527 5.64082 12.432 5.68479 12.3457C5.72876 12.2611 5.80935 12.2335 5.90279 12.2214C5.98889 12.2093 6.08601 12.2179 6.1538 12.1489C6.31868 11.9832 6.31685 11.9815 6.43227 11.9642C6.61364 11.9366 6.79501 11.909 6.97638 11.8797C7.09729 11.8607 7.22369 11.8572 7.33728 11.8192C7.41972 11.7916 7.45635 11.695 7.50948 11.6277C7.65971 11.6018 7.80993 11.5759 7.96015 11.5517C8.17083 11.5172 8.38334 11.4861 8.59586 11.4534C8.68746 11.3878 8.70031 11.2428 8.8542 11.2359C8.94581 11.2324 9.03557 11.21 9.12717 11.1962C9.27923 11.172 9.42946 11.141 9.58151 11.1289C9.69693 11.1202 9.71705 11.027 9.77751 10.9684C9.79766 10.9476 9.816 10.9183 9.83981 10.9131C10.078 10.8648 10.3235 10.8545 10.5561 10.7837C10.5799 10.7768 10.6019 10.7405 10.6074 10.7146C10.6111 10.7008 10.5799 10.675 10.5598 10.6629C10.536 10.6491 10.5048 10.6353 10.4792 10.6387C9.72256 10.7544 8.96595 10.8717 8.20933 10.9874C8.10307 11.0046 8.10307 11.0029 7.84476 11.1927C7.82277 11.2083 7.79709 11.2255 7.76961 11.2307C7.6487 11.2514 7.52596 11.2635 7.40688 11.2894C7.30978 11.3101 7.2292 11.2894 7.15958 11.2272C7.11011 11.1824 7.05879 11.1686 6.9965 11.172C6.92689 11.1772 6.88111 11.1962 6.84081 11.2428C6.78768 11.3067 6.76019 11.3895 6.64844 11.4067C6.13364 11.481 5.61881 11.5638 5.10584 11.6432C5.03439 11.619 4.99958 11.5828 5.0179 11.5396C5.0289 11.5138 5.05089 11.4792 5.07287 11.4758C5.28356 11.4395 5.49607 11.4085 5.70675 11.374C5.73606 11.3688 5.77636 11.3722 5.79285 11.355C5.87346 11.2773 5.9028 11.1513 6.05486 11.1427C6.1428 11.1375 6.23255 11.1116 6.31683 11.0875C6.34064 11.0806 6.36263 11.0443 6.36813 11.0184C6.36996 11.0046 6.34065 10.9787 6.31866 10.9666C6.23805 10.9166 6.14464 10.977 6.06403 10.9425C6.03655 10.9304 5.99805 10.9131 5.99256 10.8924C5.98889 10.8734 6.02004 10.8424 6.04202 10.8234C6.06218 10.8061 6.08964 10.7906 6.11712 10.7854C6.35895 10.7457 6.60081 10.7043 6.84264 10.6732C6.94157 10.6611 7.01117 10.618 7.05514 10.5386C7.08812 10.4799 7.12842 10.4489 7.19071 10.4402C7.61391 10.3764 8.0371 10.3056 8.46213 10.2469C8.56838 10.2331 8.62337 10.1762 8.66733 10.102C8.70214 10.0433 8.74245 10.0226 8.81024 10.0122C9.41664 9.92246 10.0194 9.82236 10.6258 9.73606C10.7375 9.72053 10.7705 9.64631 10.8273 9.58245C10.8475 9.56001 10.8602 9.5324 10.8859 9.51859C10.9115 9.50478 10.9445 9.50649 10.9757 9.50304C11.4593 9.42883 11.943 9.34945 12.4285 9.28041C12.5421 9.26488 12.564 9.17857 12.6227 9.11816C12.6428 9.09918 12.6611 9.06812 12.685 9.06294C13.0477 9.00426 13.4104 8.94903 13.7732 8.89208C14.015 8.85411 14.2568 8.81613 14.4986 8.77989C14.6177 8.76263 14.6177 8.76089 14.779 8.59693C14.7973 8.57794 14.8229 8.5555 14.8468 8.55033C15.5429 8.43987 16.2372 8.3346 16.9334 8.22587C16.992 8.21724 17.0342 8.17752 17.0635 8.11884C17.0928 8.06016 17.135 8.02047 17.1918 8.01184C17.7359 7.92554 18.28 7.84098 18.8259 7.75986C18.9248 7.74605 18.9944 7.70462 19.0384 7.62696C19.0714 7.56827 19.1117 7.53722 19.174 7.52859C19.7181 7.44574 20.2622 7.35771 20.8082 7.27832C20.9126 7.26278 20.9639 7.20411 21.0152 7.13507C21.0335 7.11091 21.0482 7.07121 21.0702 7.06776C21.3413 7.01943 21.6106 6.96938 21.8836 6.93658C21.9971 6.92278 22.0356 6.85028 22.0814 6.78125C22.1181 6.72602 22.1602 6.70704 22.2298 6.70013C22.3819 6.6846 22.5321 6.65527 22.6805 6.62593C22.7025 6.62075 22.73 6.58278 22.7318 6.55862C22.7355 6.51374 22.6933 6.48267 22.6237 6.46714C21.8982 6.57932 21.1709 6.6915 20.4454 6.80368C20.3264 6.82267 20.3264 6.82268 20.1651 6.98664C20.1468 7.00563 20.1211 7.02807 20.0955 7.03325C19.3993 7.14198 18.705 7.24899 18.0088 7.35772C17.9502 7.36635 17.9081 7.40605 17.8788 7.46473C17.8495 7.52341 17.8073 7.56311 17.7505 7.57174C17.0855 7.67529 16.4205 7.78058 15.7536 7.87896C15.6547 7.89276 15.5851 7.93244 15.5411 8.01184C15.5081 8.07052 15.4678 8.1016 15.4055 8.11023C14.7698 8.20688 14.1359 8.3087 13.4984 8.4019C13.4342 8.41053 13.3866 8.36047 13.3903 8.31387C13.3921 8.28971 13.4196 8.25003 13.4416 8.24658C13.7732 8.18963 14.103 8.13094 14.4364 8.08779C14.5481 8.07398 14.5811 7.99804 14.6379 7.93418C14.6562 7.91174 14.6709 7.8824 14.6947 7.87032C14.7203 7.85651 14.7533 7.85824 14.7845 7.85479C15.5704 7.73225 16.3564 7.60799 17.1441 7.49235C17.2577 7.47509 17.2797 7.39051 17.3383 7.3301C17.3584 7.30939 17.3768 7.27833 17.4006 7.27488C17.6424 7.23346 17.8842 7.19721 18.1261 7.16096C18.5493 7.09538 18.9725 7.02979 19.3975 6.96421C19.5202 6.94522 19.5202 6.94521 19.6778 6.78297C19.6961 6.76399 19.7218 6.73984 19.7456 6.73639C20.865 6.56207 21.9844 6.38775 23.1037 6.21516C23.1623 6.20653 23.2045 6.16683 23.2338 6.10815C23.2631 6.05119 23.3052 6.00977 23.362 5.99942C24.8753 5.76469 26.3867 5.52995 27.9 5.29868C27.9989 5.28314 28.0685 5.2469 28.1125 5.16578C28.1436 5.1071 28.1857 5.07604 28.248 5.06568C29.9115 4.80852 31.575 4.55136 33.2403 4.29247C34.3597 4.11987 35.4791 3.94383 36.5984 3.77469C36.701 3.75916 36.756 3.70564 36.8073 3.63488C36.8237 3.61072 36.8402 3.57102 36.8622 3.56756C37.1022 3.52442 37.3422 3.48473 37.5822 3.44503C37.6573 3.49163 37.7324 3.53651 37.8075 3.58311C37.8643 3.51753 37.9193 3.45021 37.9761 3.38463C38.3389 3.33457 38.6961 3.25691 39.0625 3.23274C39.0863 3.23102 39.1119 3.26382 39.1376 3.28108C39.308 3.38981 39.4051 3.38118 39.5132 3.2362C39.5516 3.18442 39.5846 3.13782 39.6432 3.12919C39.8246 3.09813 40.0078 3.07741 40.1874 3.04117C40.2845 3.02218 40.3651 3.03944 40.4347 3.10157C40.4841 3.14645 40.5355 3.16544 40.5959 3.15509C40.9293 3.10331 41.2609 3.05325 41.5944 2.99802C41.6182 2.99457 41.6401 2.96522 41.6585 2.94451C41.6969 2.89963 41.7299 2.85132 41.7666 2.80472C41.816 2.83406 41.871 2.8565 41.9113 2.89447C41.9626 2.93934 42.0102 2.93933 42.0798 2.92725C43.4099 2.71841 44.7418 2.51476 46.0718 2.30419C46.1854 2.28693 46.2349 2.35943 46.3118 2.3974C46.3375 2.41121 46.3631 2.42846 46.3906 2.43191C46.4199 2.43536 46.4511 2.42502 46.4804 2.41984C47.4788 2.2645 48.4773 2.11089 49.4757 1.95555C49.6077 1.93484 49.6077 1.93484 49.8037 2.04185C49.8275 2.05566 49.8586 2.07119 49.8843 2.06601C50.3386 1.9987 50.793 1.92622 51.2455 1.85718C51.3041 1.84855 51.3536 1.87616 51.4067 1.91586C51.5111 1.99353 51.5184 1.99353 51.5954 1.87962C51.632 1.82612 51.6705 1.79331 51.7309 1.77778C51.7969 1.76052 51.8501 1.76571 51.9014 1.79678C51.9746 1.83993 52.0278 1.91241 52.1395 1.89342C52.6232 1.8123 53.1087 1.745 53.5905 1.66215C53.7004 1.64317 53.759 1.70184 53.8323 1.74499C53.858 1.76053 53.8818 1.78469 53.9092 1.78987C53.9367 1.79505 53.9697 1.78295 53.999 1.77778C54.6036 1.68458 55.21 1.59312 55.8127 1.49301C55.9263 1.47403 55.9758 1.54823 56.0527 1.5862C56.0784 1.60001 56.1077 1.62418 56.1315 1.62073C56.4942 1.56723 56.8588 1.51026 57.2216 1.4533C57.3516 1.43259 57.3516 1.43431 57.5495 1.5396C57.5733 1.5534 57.6045 1.56721 57.6301 1.56376C58.0533 1.4999 58.4783 1.43432 58.9015 1.36873C59.0316 1.34802 59.0316 1.34802 59.4072 1.43777C59.4346 1.44468 59.464 1.45504 59.4914 1.45159C59.9751 1.37738 60.4606 1.30488 60.9442 1.22549C61.0413 1.20995 61.1219 1.22376 61.1916 1.28589C61.241 1.33076 61.2923 1.34976 61.3528 1.3394C61.8969 1.25483 62.4428 1.17372 62.9851 1.08397C63.0895 1.06671 63.1573 1.10467 63.2306 1.15472C63.2544 1.17198 63.2782 1.19614 63.3057 1.20305C63.3332 1.20995 63.3643 1.20304 63.3937 1.19787C63.9378 1.11329 64.4837 1.03391 65.026 0.942431C65.1359 0.923446 65.1945 0.982124 65.2678 1.02527C65.2935 1.04081 65.3209 1.07187 65.3429 1.07015C65.5554 1.04081 65.7679 1.01493 65.9786 0.971779C66.0922 0.947616 66.1417 1.02699 66.2186 1.06497C66.2443 1.07705 66.2736 1.10295 66.2974 1.0995C66.7517 1.03219 67.2061 0.961427 67.6586 0.888938C67.7227 0.878583 67.7704 0.894102 67.8217 0.938976C67.8894 0.999383 67.9682 1.02355 68.0672 1.00456C68.2778 0.964866 68.4904 0.937258 68.7029 0.904466C68.8275 0.88548 68.8275 0.885486 69.2085 0.975235C69.236 0.982138 69.2653 0.992486 69.2928 0.989035C69.6555 0.933805 70.0201 0.880304 70.381 0.819897C70.4781 0.802637 70.5587 0.818167 70.6283 0.8803C70.6778 0.925174 70.7272 0.94417 70.7895 0.933814C71.123 0.882036 71.4546 0.830254 71.788 0.778476C71.9089 0.759491 72.0298 0.72669 72.1508 0.72669C72.2387 0.728416 72.3028 0.811257 72.3816 0.852679C72.4036 0.864761 72.4402 0.850969 72.4695 0.847517C72.8927 0.781932 73.3177 0.721519 73.7391 0.647304C73.849 0.628318 73.9077 0.686997 73.981 0.730145C74.0066 0.745678 74.0341 0.776747 74.0561 0.775021C74.2081 0.756036 74.3583 0.730144 74.5104 0.707707C74.6918 0.680092 74.875 0.659381 75.0545 0.62141C75.2011 0.590344 75.256 0.740495 75.3733 0.745672C75.463 0.75085 75.5546 0.721514 75.6444 0.707707C75.8258 0.680092 76.0071 0.649029 76.1885 0.624866C76.2526 0.616236 76.3021 0.588609 76.3223 0.526476C76.326 0.514394 76.2948 0.488516 76.2747 0.472983C76.031 0.296938 76.031 0.29693 75.7855 0.3349C75.6334 0.359063 75.4832 0.38323 75.3311 0.403941C75.3055 0.407393 75.2762 0.393587 75.2505 0.383231C75.1773 0.35389 75.1846 0.319375 75.2469 0.257242C75.3092 0.195108 75.3568 0.119174 75.4099 0.0484107C75.485 0.0932849 75.5583 0.138143 75.6334 0.183017C75.6939 0.174388 75.7544 0.164047 75.8148 0.155418C76.1171 0.110543 76.4194 0.0639399 76.7217 0.0225176C76.7436 0.0190657 76.7711 0.0535894 76.7968 0.0708487C76.87 0.120901 76.936 0.164037 77.0423 0.145052C77.3134 0.0949999 77.5864 0.0587554 77.8575 0.0156071C77.9766 -0.00337813 77.9766 -0.00337644 78.1854 0.103631C78.2093 0.115713 78.2404 0.129521 78.2661 0.126069C78.539 0.0863728 78.8102 0.0432296 79.0831 0.00180725C79.1418 -0.00682241 79.1986 0.0156138 79.2407 0.0656658C79.2572 0.086377 79.2535 0.120889 79.3231 0.403941C79.5393 0.63349 79.6877 0.609339 79.8379 0.588628C79.9021 0.579998 79.9588 0.57136 80.001 0.536842C80.023 0.517856 80.0504 0.490237 80.0504 0.4678C80.0504 0.450541 80.0102 0.422921 79.9845 0.419469C79.8031 0.38495 79.6309 0.45745 79.4532 0.472983C79.3708 0.479887 79.2993 0.419478 79.2847 0.3211C79.281 0.293485 79.2755 0.264146 79.27 0.236531C79.2645 0.208916 79.2609 0.179577 79.2554 0.151962C79.1839 0.143333 79.1418 0.174394 79.1106 0.233076C79.085 0.281402 79.0483 0.336632 78.9989 0.362521C78.9494 0.390136 78.8816 0.384967 78.8212 0.393597C78.7625 0.402227 78.6984 0.424661 78.6435 0.41258C78.5885 0.398772 78.5445 0.348712 78.4932 0.317645C78.4694 0.302112 78.4401 0.279683 78.4163 0.283135C78.2056 0.312476 77.9968 0.341805 77.7879 0.379776C77.678 0.400487 77.623 0.328009 77.5534 0.283135C77.4985 0.248616 77.4435 0.257235 77.4343 0.336628C77.4105 0.52648 77.4948 0.605869 77.6816 0.569624C77.8355 0.538557 77.9748 0.533396 78.0957 0.650759C78.1122 0.666292 78.1506 0.673193 78.1744 0.669742C78.3247 0.64903 78.4731 0.623139 78.6233 0.602428C78.6508 0.598976 78.6801 0.605869 78.7058 0.612772C79.0795 0.705973 79.0795 0.707708 79.2059 0.686997C79.2664 0.676641 79.325 0.668011 79.3195 0.405669C79.4349 0.124342 79.6181 0.105361 79.7958 0.0639382C79.9112 0.0380493 79.9607 0.113994 80.0358 0.15369C80.0614 0.167497 80.0889 0.195107 80.1127 0.191655C80.5066 0.1347 80.8987 0.0742837 81.2907 0.0104243C81.3567 6.86745e-05 81.4043 0.0104259 81.4556 0.0553001C81.5215 0.112256 81.5948 0.148508 81.6993 0.127797C81.9081 0.0863745 82.1206 0.0604914 82.3331 0.0259728C82.4412 0.0087135 82.4412 0.0086958 82.6592 0.115704C82.6831 0.127785 82.7142 0.141593 82.7398 0.138141C82.9524 0.108801 83.1631 0.072567 83.3738 0.0415003C83.4324 0.0328706 83.4855 0.0570311 83.5313 0.103631C83.5771 0.150231 83.6321 0.174392 83.6889 0.165762C83.9014 0.134695 84.1121 0.100188 84.3227 0.0691211C84.3484 0.0656692 84.3795 0.0777499 84.4033 0.0898314C84.6268 0.196839 84.6269 0.196821 84.7294 0.179562C84.8797 0.153673 85.0336 0.141605 85.182 0.107086C85.3267 0.0725679 85.4018 0.172663 85.5007 0.227893C85.7719 0.188197 86.0448 0.155413 86.3141 0.107086C86.4241 0.0863753 86.4827 0.143326 86.556 0.1882C86.5816 0.203734 86.6073 0.23653 86.6311 0.234804C86.7227 0.2279 86.8125 0.208918 86.9023 0.195111C86.992 0.181303 87.0836 0.167497 87.1734 0.15369C87.276 0.203742 87.3438 0.321104 87.4903 0.281407C87.5783 0.257244 87.6717 0.252066 87.7615 0.238259C87.8512 0.224451 87.9428 0.210646 88.0326 0.196838C88.0931 0.188209 88.1553 0.183023 88.214 0.16749C88.3221 0.141601 88.3752 0.226182 88.4521 0.264152C88.4778 0.276234 88.5071 0.296931 88.5309 0.293479C88.7123 0.269316 88.8955 0.248607 89.0732 0.20891C89.2106 0.177844 89.304 0.229628 89.4011 0.302117C89.4213 0.317651 89.4561 0.32628 89.4817 0.322828C89.6942 0.293487 89.9049 0.257232 90.1156 0.226166C90.1724 0.217536 90.2274 0.24515 90.2732 0.290024C90.3208 0.336624 90.3739 0.359078 90.4325 0.350449C90.6432 0.319382 90.8558 0.284853 91.0665 0.253786C91.0921 0.250335 91.1232 0.264144 91.147 0.277952C91.3522 0.38496 91.3522 0.386687 91.4732 0.365976C91.5025 0.360798 91.5336 0.357333 91.5629 0.352155C91.7132 0.327992 91.8689 0.319374 92.0154 0.277952C92.184 0.231352 92.3067 0.290036 92.4258 0.388414C92.576 0.367703 92.7299 0.355619 92.8765 0.3211C92.9864 0.295211 93.045 0.360793 93.1183 0.403941C93.144 0.419475 93.1714 0.450542 93.1934 0.44709C93.4059 0.417749 93.6184 0.391869 93.8273 0.348721C93.9409 0.324558 93.9903 0.402211 94.0673 0.441907C94.0929 0.455714 94.1204 0.47989 94.1442 0.476438C94.2651 0.462631 94.3861 0.441909 94.507 0.422924C94.6481 0.400487 94.648 0.402211 94.8349 0.507493C94.9228 0.557545 95.0108 0.517847 95.0969 0.505765C95.1885 0.491958 95.2746 0.481606 95.3479 0.552369C95.3937 0.597243 95.4487 0.624859 95.5054 0.617955C95.6264 0.602422 95.7491 0.586896 95.8682 0.561007C95.9635 0.540296 96.0459 0.554096 96.1155 0.617955C96.1649 0.662829 96.2163 0.68528 96.2767 0.674924C96.5479 0.633502 96.8208 0.590338 97.092 0.550641C97.1158 0.547189 97.1488 0.562729 97.1707 0.578262C97.222 0.609329 97.2715 0.64384 97.321 0.678359C97.4401 0.662825 97.5628 0.655939 97.68 0.631776C97.8046 0.607613 97.9182 0.598981 98.0153 0.693907C98.0355 0.714618 98.0648 0.743943 98.0886 0.742217C98.1802 0.735313 98.27 0.718059 98.3597 0.704252C98.4495 0.690444 98.5411 0.676638 98.6309 0.662831C98.7353 0.705979 98.8013 0.830245 98.9478 0.790548C99.0358 0.766385 99.1292 0.761207 99.219 0.7474C99.3087 0.733593 99.4003 0.718061 99.4901 0.705979C99.5194 0.702528 99.5524 0.693893 99.578 0.700797C99.6055 0.7077 99.6293 0.731868 99.6531 0.749128C99.7264 0.79918 99.7942 0.849238 99.8987 0.819897C99.9866 0.795734 100.08 0.790554 100.17 0.775021C100.293 0.756036 100.293 0.756039 100.496 0.864773C100.578 0.909647 100.672 0.850968 100.751 0.888938C100.804 0.914827 100.849 0.957966 100.901 0.987307C100.923 0.999388 100.958 1.00456 100.983 1.00111C101.104 0.985573 101.227 0.970048 101.346 0.944159C101.443 0.923447 101.524 0.944156 101.591 1.00629C101.641 1.05116 101.69 1.07016 101.753 1.0598C102.055 1.01148 102.357 0.970042 102.658 0.916538C102.76 0.897553 102.843 0.926901 102.899 0.989035C102.997 1.09604 103.134 0.970052 103.235 1.05635C103.297 1.10985 103.359 1.17199 103.473 1.1461C103.682 1.10123 103.894 1.07705 104.105 1.04598C104.18 1.09258 104.255 1.13919 104.332 1.18579C104.453 1.16681 104.574 1.14781 104.695 1.13055C104.785 1.11674 104.876 1.10121 104.966 1.08913C104.995 1.08568 105.026 1.07877 105.054 1.0874C105.081 1.09603 105.103 1.11848 105.129 1.13573C105.256 1.2203 105.255 1.22204 105.464 1.18752C105.554 1.17199 105.64 1.16163 105.715 1.23067C105.785 1.29453 105.867 1.3066 105.963 1.28762C106.142 1.2531 106.324 1.22721 106.507 1.20305C106.564 1.19442 106.617 1.22376 106.664 1.26863C106.736 1.3394 106.824 1.3325 106.913 1.31351C107.033 1.28935 107.15 1.26519 107.251 1.36184C107.271 1.38255 107.302 1.41188 107.324 1.41015C107.474 1.39634 107.626 1.386 107.773 1.3532C107.919 1.32041 107.991 1.42742 108.091 1.47919C108.242 1.45676 108.394 1.43432 108.544 1.41188C108.573 1.4067 108.608 1.39118 108.634 1.39981C108.742 1.43605 108.804 1.56549 108.953 1.5258C109.039 1.50336 109.132 1.49646 109.222 1.49129C109.246 1.48956 109.277 1.51889 109.293 1.54132C109.302 1.55341 109.293 1.5862 109.282 1.60345C109.249 1.65178 109.209 1.69667 109.18 1.74672C109.176 1.75362 109.211 1.78468 109.231 1.79849C109.28 1.82955 109.337 1.82439 109.403 1.81058C109.46 1.7985 109.519 1.82266 109.559 1.87444C109.575 1.89515 109.57 1.92966 109.535 2.04358C109.535 2.12815 109.574 2.09017 109.586 2.03494C109.607 1.95554 109.568 1.92966 109.495 1.97281C109.443 2.00387 109.418 2.04875 109.431 2.085C109.438 2.10398 109.473 2.12815 109.535 2.04358C109.696 1.94002 109.817 1.92104 109.938 1.90206C109.969 1.89688 110.006 1.87961 110.028 1.88997C110.107 1.93139 110.18 1.98145 110.257 2.02805C110.345 2.01769 110.427 1.99179 110.513 2.0591C110.634 2.15403 110.64 2.1454 110.757 2.12642C110.818 2.11606 110.878 2.10745 110.938 2.09882C110.999 2.09019 111.047 2.11607 111.1 2.15577C111.208 2.23688 111.217 2.23688 111.288 2.12642C111.33 2.05911 111.36 2.03667 111.413 2.06774C111.589 2.17302 111.591 2.17992 111.741 2.14885C111.865 2.12297 111.983 2.11606 112.074 2.21444C112.137 2.28348 112.157 2.26795 112.206 2.19546C112.338 2.00388 112.399 2.00733 112.646 2.1454C112.761 2.21098 112.88 2.14023 112.998 2.1316C113.097 2.1247 113.166 2.16611 113.174 2.27484C113.179 2.34216 113.195 2.39049 113.261 2.41293C113.287 2.42156 113.318 2.43363 113.344 2.43018C113.496 2.40947 113.646 2.3853 113.798 2.36114C113.875 2.34906 113.917 2.26796 113.903 2.16095C113.886 2.04704 113.915 2.0056 114.025 1.97281C114.091 1.95382 114.145 1.95729 114.198 1.98836C114.256 2.02287 114.24 2.05394 114.188 2.11607C114.066 2.26795 114.08 2.36114 114.238 2.46642C114.293 2.50266 114.337 2.53547 114.35 2.58898C114.357 2.61659 114.35 2.65283 114.366 2.67354C114.456 2.78918 114.58 2.8634 114.72 2.91863C114.853 2.87203 114.945 2.94969 115.048 3.01182C115.128 3.06015 115.224 3.01873 115.31 3.00148C115.407 2.98249 115.487 2.99629 115.557 3.06015C115.606 3.10503 115.658 3.12573 115.718 3.1171C115.839 3.09811 115.962 3.08604 116.081 3.05842C116.184 3.03426 116.26 3.06878 116.325 3.12747C116.405 3.20168 116.495 3.15162 116.579 3.16198C116.693 3.17406 116.75 3.32766 116.898 3.28624C116.986 3.26207 117.078 3.25345 117.169 3.24654C117.193 3.24482 117.222 3.27416 117.242 3.29488C117.34 3.3898 117.453 3.38462 117.578 3.35701C117.664 3.33802 117.748 3.32077 117.832 3.38635C117.972 3.49681 118.125 3.59347 118.272 3.6953C118.292 3.7747 118.278 3.86788 118.382 3.91448C118.437 3.93864 118.488 3.9749 118.53 4.0146C118.582 4.0612 118.629 4.07328 118.695 4.0612C118.814 4.03704 118.939 4.03184 119.056 4.00077C119.164 3.97316 119.232 4.03013 119.298 4.08364C119.351 4.12679 119.401 4.14749 119.465 4.11642C119.531 4.08708 119.578 4.10606 119.631 4.15266C119.707 4.21652 119.712 4.20962 119.961 4.22861C119.987 4.23034 120.018 4.25621 120.033 4.27865C120.04 4.29073 120.023 4.32527 120.011 4.34253C119.994 4.36324 119.968 4.38739 119.945 4.39256C119.674 4.43744 119.401 4.47714 119.129 4.52201C119.102 4.52719 119.073 4.53928 119.053 4.55654C119.031 4.57553 119.003 4.6014 119.003 4.62556C119.003 4.64282 119.04 4.66354 119.065 4.67562C119.146 4.71532 119.241 4.65491 119.32 4.69979C119.373 4.72913 119.417 4.77054 119.47 4.79815C119.492 4.81024 119.527 4.80852 119.554 4.80506C119.646 4.79298 119.736 4.77573 119.827 4.76537C119.853 4.76365 119.882 4.78091 119.906 4.79472C120.082 4.89828 120.082 4.89827 120.234 4.87583C120.295 4.8672 120.359 4.84131 120.416 4.85167C120.47 4.86202 120.518 4.90862 120.568 4.93796C120.67 5.0001 120.767 5.0605 120.775 5.19513C120.778 5.2469 120.839 5.29177 120.899 5.29522C120.958 5.29867 121.02 5.27971 121.081 5.26935C121.223 5.24864 121.223 5.24864 121.408 5.35392C121.46 5.38326 121.515 5.38671 121.581 5.36945C121.606 5.36254 121.637 5.36946 121.665 5.37809C121.755 5.40397 121.755 5.43676 121.696 5.49889C121.614 5.59037 121.621 5.599 121.852 5.67667C121.94 5.70601 122.008 5.76124 122.081 5.80957C122.2 5.88723 122.198 5.88722 122.119 5.98905C122.101 6.01149 122.085 6.03566 122.066 6.05982C122.013 6.12713 121.971 6.19962 121.861 6.20652C121.74 6.21342 121.619 6.24105 121.498 6.26003C121.381 6.27902 121.35 6.32042 121.361 6.43779C121.374 6.57931 121.397 6.59485 121.608 6.59313C121.669 6.59313 121.722 6.60693 121.768 6.65353C121.746 6.70876 121.705 6.75191 121.647 6.76226C121.496 6.78815 121.344 6.8106 121.194 6.83303C121.073 6.85202 120.952 6.871 120.831 6.88998C120.756 6.90206 120.709 6.99182 120.729 7.09192C120.74 7.14888 120.749 7.20583 120.758 7.26279C120.778 7.3767 120.817 7.40605 120.939 7.40087C120.971 7.39914 121 7.38533 121.029 7.38878C121.148 7.40086 121.205 7.54411 121.348 7.51477C121.467 7.4906 121.592 7.48543 121.709 7.45436C121.817 7.42675 121.877 7.4889 121.953 7.5355C121.978 7.55103 122.006 7.58381 122.028 7.58208C122.18 7.5631 122.332 7.54413 122.48 7.51133C122.55 7.49753 122.592 7.50788 122.647 7.5493C122.779 7.6494 122.783 7.64422 122.979 7.61316C123.121 7.58899 123.123 7.59244 123.306 7.69773C123.358 7.72707 123.413 7.72706 123.479 7.71325C123.565 7.69599 123.655 7.66838 123.744 7.69427C123.772 7.70117 123.807 7.72189 123.816 7.74433C123.821 7.75986 123.796 7.79783 123.774 7.80992C123.612 7.89966 123.424 7.88413 123.248 7.92038C123.193 7.93073 123.138 7.89794 123.092 7.85134C123.044 7.80474 122.993 7.78576 122.931 7.79439C122.81 7.81337 122.687 7.82545 122.568 7.85306C122.466 7.87723 122.394 7.83753 122.323 7.78402C122.299 7.76676 122.271 7.73397 122.248 7.73569C121.976 7.77021 121.703 7.80474 121.434 7.85306C121.326 7.87378 121.264 7.81855 121.19 7.77195C121.165 7.75642 121.139 7.72362 121.115 7.72535C121.024 7.73225 120.934 7.75123 120.842 7.76504C120.509 7.81682 120.177 7.8686 119.844 7.91692C119.822 7.92037 119.794 7.88412 119.769 7.86859C119.719 7.83752 119.668 7.80818 119.617 7.77884C119.525 7.79265 119.435 7.8099 119.344 7.82026C119.278 7.82716 119.219 7.85134 119.21 7.91692C119.205 7.96007 119.265 7.99976 119.329 7.99631C119.391 7.99286 119.454 7.97214 119.505 7.99458C119.76 8.10504 119.76 8.10677 119.919 8.08433C120.058 8.06362 120.044 8.04635 120.166 8.14128C120.219 8.1827 120.267 8.20688 120.328 8.19652C120.478 8.17236 120.63 8.14819 120.782 8.12748C120.806 8.12403 120.837 8.14129 120.861 8.1551C121.04 8.25866 121.04 8.2621 121.189 8.23622C121.383 8.20515 121.39 8.19652 121.52 8.3018C121.61 8.37429 121.692 8.32424 121.779 8.32078C121.877 8.3881 121.986 8.44851 122.075 8.52445C122.182 8.6142 122.293 8.59865 122.414 8.57276C122.504 8.55378 122.592 8.54688 122.665 8.61764C122.735 8.68322 122.819 8.69014 122.914 8.67288C123 8.65735 123.088 8.62454 123.178 8.66251C123.202 8.67287 123.239 8.69877 123.237 8.7143C123.235 8.73846 123.211 8.77299 123.187 8.78334C123.019 8.85411 122.834 8.85237 122.656 8.88517C122.632 8.89034 122.601 8.87135 122.577 8.85755C122.526 8.82648 122.477 8.79024 122.427 8.75745C122.337 8.76781 122.246 8.77125 122.158 8.79196C122.09 8.80749 122.039 8.80578 121.989 8.76436C121.943 8.72639 121.894 8.67978 121.839 8.6677C121.784 8.65562 121.72 8.68151 121.659 8.69186C121.599 8.70222 121.529 8.69703 121.482 8.72465C121.434 8.75226 121.405 8.81268 121.374 8.861C121.339 8.91451 121.291 8.93178 121.222 8.93695C121.157 8.94213 121.106 8.93522 121.059 8.88689C121.038 8.86618 121.011 8.85064 120.983 8.83684C120.958 8.82475 120.928 8.80576 120.905 8.80921C120.632 8.84891 120.361 8.89208 120.088 8.9335C119.952 8.95421 119.954 8.95419 119.672 8.85236C119.646 8.84373 119.615 8.83166 119.589 8.83511C119.437 8.85582 119.287 8.87999 119.135 8.90415C118.981 8.92831 118.983 8.92486 118.721 8.81613C118.673 8.79541 118.604 8.82303 118.547 8.81958C118.428 8.81095 118.369 8.66598 118.23 8.69359C118.111 8.71775 117.986 8.72293 117.867 8.75399C117.759 8.78161 117.697 8.72121 117.624 8.67461C117.598 8.65907 117.57 8.62455 117.548 8.62801C117.275 8.66598 117.004 8.70912 116.642 8.7143C116.552 8.7143 116.592 8.75055 116.651 8.76263C116.735 8.78162 116.762 8.74537 116.717 8.67634C116.684 8.62801 116.636 8.60383 116.598 8.61591C116.577 8.62282 116.552 8.65562 116.642 8.7143C116.737 8.77989 116.731 8.81612 116.748 8.83684C116.788 8.88689 116.845 8.9076 116.904 8.90069C116.995 8.88861 117.085 8.87136 117.177 8.861C117.202 8.85755 117.233 8.86963 117.257 8.88344C117.459 8.99045 117.46 8.99736 117.675 8.95594C117.743 8.94385 117.792 8.94385 117.845 8.97665C117.918 9.02152 117.972 9.09745 118.083 9.07329C118.232 9.04049 118.384 9.02152 118.536 9.00254C118.56 8.99909 118.585 9.03015 118.613 9.04396C118.688 9.08538 118.743 9.16305 118.855 9.13026C118.941 9.10437 119.034 9.09745 119.126 9.09227C119.15 9.09054 119.186 9.11816 119.197 9.1406C119.219 9.1803 119.192 9.22691 119.129 9.2597C119.104 9.27351 119.069 9.27005 119.04 9.27523C118.919 9.29421 118.798 9.31492 118.677 9.33045C118.613 9.33908 118.552 9.36498 118.545 9.42884C118.54 9.47199 118.605 9.50995 118.668 9.5065C118.759 9.50132 118.851 9.48751 118.939 9.46508C119.095 9.42711 119.23 9.43746 119.357 9.54619C119.446 9.62213 119.441 9.59453 119.536 9.8189C119.56 9.87586 119.631 9.88103 119.694 9.87758C119.844 9.86895 119.914 9.89484 119.901 9.94835C119.884 10.0139 119.831 10.0346 119.763 10.0433C119.642 10.0571 119.521 10.0795 119.401 10.0985C119.371 10.1037 119.338 10.114 119.311 10.1106C119.283 10.1071 119.258 10.0864 119.234 10.0709C119.183 10.0381 119.139 9.98803 119.084 9.97595C119.029 9.96386 118.965 9.98976 118.904 10.0001C118.844 10.0087 118.78 10.0346 118.725 10.0225C118.67 10.0105 118.624 9.9587 118.574 9.92764C118.551 9.9121 118.521 9.88792 118.497 9.88965C118.376 9.90346 118.256 9.9259 118.135 9.94316C117.986 9.9656 117.986 9.9656 117.807 9.85859C117.755 9.82753 117.702 9.82926 117.635 9.84307C117.488 9.87068 117.486 9.86549 117.219 9.76539C117.193 9.75503 117.162 9.74295 117.136 9.74813C116.863 9.78783 116.592 9.83097 116.321 9.87239C116.088 9.90864 116.088 9.90865 115.96 10.0812C115.865 10.209 115.863 10.209 115.956 10.2676C116.031 10.316 116.099 10.3867 116.182 10.4126C116.259 10.4368 116.354 10.3591 116.438 10.4385C116.48 10.4782 116.535 10.5214 116.588 10.5283C116.673 10.5369 116.762 10.4868 116.843 10.5628C116.883 10.6007 116.944 10.6404 116.995 10.6422C117.085 10.6456 117.177 10.618 117.266 10.6059C117.294 10.6025 117.325 10.6025 117.351 10.6111C117.378 10.6215 117.402 10.6422 117.426 10.6594C117.499 10.7181 117.578 10.7457 117.673 10.7164C117.829 10.6681 117.968 10.6922 118.089 10.8027C118.105 10.8182 118.146 10.8199 118.171 10.813C118.237 10.7958 118.294 10.794 118.343 10.8268C118.364 10.8406 118.393 10.8648 118.389 10.8803C118.384 10.9062 118.362 10.9407 118.338 10.9494C118.166 11.0081 117.981 11.015 117.803 11.046C117.779 11.0495 117.75 11.027 117.726 11.0115C117.675 10.9804 117.631 10.9287 117.576 10.9166C117.521 10.9045 117.457 10.9269 117.396 10.9356C117.336 10.9442 117.272 10.9701 117.217 10.9597C117.162 10.9477 117.111 10.9045 117.067 10.8665C117.015 10.8234 116.966 10.8182 116.898 10.8355C116.81 10.8579 116.719 10.8614 116.629 10.8734C116.579 10.8406 116.53 10.8044 116.479 10.7733C116.455 10.7578 116.425 10.7388 116.4 10.7405C116.279 10.7543 116.158 10.7751 116.037 10.794C115.916 10.813 115.916 10.813 115.711 10.706C115.687 10.694 115.656 10.6801 115.63 10.6836C115.478 10.7043 115.328 10.7302 115.176 10.7509C115.117 10.7595 115.064 10.7354 115.017 10.6888C114.971 10.6422 114.916 10.6163 114.859 10.6249C114.617 10.6611 114.375 10.6957 114.133 10.7388C114.036 10.7561 113.954 10.7405 113.888 10.6784C113.811 10.6076 113.725 10.6249 113.635 10.6387C113.432 10.6732 113.43 10.6715 113.3 10.5835C113.274 10.5662 113.249 10.5334 113.225 10.5351C113.014 10.561 112.802 10.5852 112.593 10.6266C112.483 10.6491 112.424 10.5887 112.351 10.5438C112.325 10.5283 112.298 10.4955 112.276 10.4989C112.124 10.5179 111.972 10.5352 111.823 10.5697C111.675 10.6042 111.618 10.4437 111.506 10.4454C111.354 10.4471 111.204 10.4868 111.054 10.511C110.933 10.53 110.812 10.549 110.691 10.5679C110.57 10.5869 110.449 10.6025 110.328 10.6249C110.264 10.637 110.217 10.6214 110.164 10.5783C110.096 10.5213 110.015 10.4765 109.942 10.4247C109.83 10.3505 109.83 10.3505 109.694 10.3712C109.665 10.3764 109.634 10.3798 109.605 10.385C109.383 10.423 109.383 10.4195 109.101 10.3108C109.088 10.3056 109.055 10.3246 109.042 10.3384C109.004 10.3833 108.969 10.4316 108.934 10.4782C108.885 10.4506 108.824 10.4351 108.791 10.3954C108.698 10.2832 108.551 10.4368 108.456 10.3263C108.421 10.2849 108.361 10.2486 108.306 10.2383C108.249 10.2279 108.185 10.2521 108.126 10.2625C107.974 10.2883 107.974 10.2866 107.844 10.4402C107.778 10.5162 107.683 10.5024 107.597 10.5196C107.507 10.5386 107.421 10.549 107.346 10.4782C107.278 10.4143 107.196 10.3988 107.099 10.4195C106.979 10.4454 106.857 10.4609 106.736 10.4765C106.71 10.4799 106.679 10.4713 106.653 10.4609C106.373 10.3591 106.373 10.3574 106.237 10.3798C106.177 10.3902 106.115 10.3936 106.056 10.4092C105.957 10.4368 105.882 10.4005 105.811 10.3453C105.787 10.328 105.759 10.2953 105.735 10.297C105.615 10.3056 105.495 10.3211 105.376 10.3367C105.285 10.3488 105.193 10.3557 105.105 10.3798C104.959 10.4195 104.887 10.3073 104.786 10.2555C104.636 10.278 104.484 10.2935 104.334 10.3246C104.264 10.3384 104.219 10.3332 104.165 10.2918C104.098 10.24 104.035 10.1813 103.925 10.2072C103.779 10.2418 103.625 10.2538 103.475 10.2745C103.374 10.221 103.301 10.1123 103.156 10.152C103.068 10.1762 102.975 10.1813 102.885 10.1951C102.764 10.2141 102.643 10.2314 102.522 10.2521C102.392 10.2728 102.394 10.2676 102.194 10.1658C102.079 10.1054 101.96 10.1727 101.842 10.1831C101.751 10.1917 101.705 10.2711 101.727 10.3729C101.749 10.4747 101.7 10.5541 101.615 10.5679C101.405 10.6007 101.192 10.6352 100.981 10.6646C100.956 10.668 100.925 10.656 100.901 10.6439C100.675 10.5351 100.675 10.5369 100.575 10.5524C100.424 10.5783 100.271 10.5921 100.122 10.6249C100.02 10.6473 99.9444 10.6111 99.8785 10.5524C99.8272 10.5075 99.7796 10.4972 99.7136 10.5075C98.9881 10.6232 98.2626 10.7302 97.539 10.8493C97.4309 10.8665 97.3686 10.8165 97.2953 10.7699C97.2697 10.7544 97.2458 10.7216 97.2202 10.7216C97.1597 10.7216 97.0993 10.7371 97.0388 10.7475C96.7677 10.7889 96.4966 10.8389 96.2236 10.87C96.1082 10.8838 96.077 10.9632 96.0275 11.0288C95.9891 11.0788 95.9451 11.0995 95.8774 11.1064C95.8114 11.1133 95.7637 11.1047 95.7124 11.0598C95.6465 11.0012 95.5714 10.9649 95.4688 10.9891C95.3497 11.0167 95.2288 11.0288 95.106 11.0478C95.0437 11.0564 94.9961 11.0875 94.976 11.1496C94.9723 11.1599 95.0108 11.1858 95.0328 11.2014C95.106 11.2532 95.1757 11.3136 95.2581 11.3498C95.3424 11.386 95.434 11.3446 95.5219 11.3343C95.5531 11.3308 95.5824 11.3205 95.6117 11.3222C95.6392 11.3239 95.6722 11.3325 95.6923 11.3481C95.7876 11.4257 95.8883 11.4792 96.0202 11.4326C96.1338 11.4551 96.1925 11.5983 96.3372 11.5604C96.4251 11.5379 96.5167 11.5276 96.6083 11.5189C96.6321 11.5172 96.6578 11.5483 96.6834 11.5638C96.7567 11.607 96.8153 11.676 96.9253 11.6467C97.0425 11.6156 97.1671 11.6104 97.2862 11.5863C97.3521 11.5724 97.3997 11.5845 97.451 11.6294C97.517 11.6864 97.5921 11.7295 97.6947 11.7019C97.7827 11.6777 97.8761 11.6725 97.9659 11.657C98.0831 11.638 98.0831 11.6397 98.292 11.7468C98.3158 11.7588 98.3469 11.7726 98.3726 11.7692C98.5246 11.7485 98.6748 11.7226 98.8269 11.7019C98.8855 11.6932 98.9423 11.7157 98.9826 11.7657C98.9991 11.7864 98.9936 11.821 98.9991 11.8503C98.6968 11.8969 98.3945 11.9366 98.0941 11.9936C97.9805 12.016 97.9292 11.9452 97.8541 11.9055C97.8284 11.8917 97.801 11.8624 97.7771 11.8659C97.5646 11.8952 97.354 11.9263 97.1433 11.9642C97.0773 11.9763 97.0279 11.9694 96.9784 11.9193C96.852 11.7864 96.6981 11.8589 96.5552 11.8779C96.4453 11.8917 96.4105 11.9452 96.4233 12.0592C96.4398 12.1938 96.5057 12.2352 96.6743 12.211C96.7347 12.2024 96.7952 12.1903 96.8556 12.1834C96.9143 12.1765 96.9674 12.1989 97.015 12.2455C97.0608 12.2921 97.1158 12.3163 97.1726 12.3094C97.2935 12.2939 97.4162 12.2783 97.5335 12.2525C97.6306 12.2317 97.7112 12.249 97.779 12.3129C97.8541 12.3836 97.942 12.3681 98.03 12.3526C98.2352 12.318 98.237 12.3198 98.3652 12.4061C98.3909 12.4233 98.4165 12.4561 98.4404 12.4544C98.651 12.4285 98.8635 12.4061 99.0706 12.3646C99.1787 12.3439 99.241 12.3992 99.3124 12.444C99.3381 12.4596 99.3637 12.4941 99.3875 12.4906C99.5396 12.4717 99.6916 12.4527 99.84 12.4199C99.9096 12.4043 99.9518 12.4147 100.009 12.4561C100.144 12.5579 100.148 12.5545 100.34 12.5217C100.399 12.5113 100.463 12.4924 100.518 12.5062C100.573 12.52 100.617 12.57 100.668 12.6011C100.692 12.6149 100.721 12.6339 100.747 12.6304C100.868 12.6166 100.989 12.5959 101.11 12.5769C101.223 12.5579 101.223 12.5597 101.436 12.6667C101.522 12.7116 101.612 12.6736 101.698 12.6598C101.791 12.6442 101.875 12.6443 101.947 12.7116C102.018 12.7789 102.104 12.7754 102.196 12.7616C102.282 12.7478 102.37 12.7098 102.458 12.7564C102.66 12.8634 102.66 12.8652 102.784 12.8444C102.965 12.8151 103.145 12.7875 103.328 12.7616C103.352 12.7581 103.383 12.7789 103.407 12.7927C103.458 12.8237 103.502 12.8755 103.557 12.8876C103.612 12.9014 103.676 12.8807 103.735 12.8703C103.924 12.8375 103.936 12.8255 104.063 12.9394C104.169 13.0326 104.301 12.898 104.4 13.005C104.457 13.0654 104.534 13.1137 104.64 13.0843C104.728 13.0602 104.819 13.0533 104.911 13.0395C105.056 13.017 105.056 13.0188 105.239 13.1223C105.263 13.1361 105.294 13.1534 105.318 13.1499C105.439 13.1361 105.561 13.1241 105.679 13.093C105.816 13.0567 105.904 13.1223 106.007 13.1862C106.087 13.2362 106.183 13.1948 106.269 13.1776C106.362 13.1603 106.446 13.1655 106.516 13.2328C106.589 13.3018 106.675 13.2932 106.767 13.2794C106.853 13.2673 106.941 13.2276 107.029 13.2759C107.218 13.3829 107.218 13.3829 107.355 13.3622C107.476 13.3432 107.597 13.3225 107.718 13.3087C107.742 13.3053 107.771 13.3277 107.795 13.3432C107.846 13.3743 107.89 13.4261 107.945 13.4382C108 13.4503 108.064 13.4278 108.124 13.4192C108.185 13.4106 108.249 13.3847 108.304 13.395C108.359 13.4054 108.41 13.4485 108.454 13.4865C108.506 13.5314 108.553 13.5365 108.623 13.5193C108.711 13.4968 108.802 13.4917 108.892 13.4796C108.942 13.5124 108.993 13.5452 109.04 13.5814C109.09 13.6194 109.143 13.6159 109.211 13.6039C109.436 13.5624 109.438 13.5676 109.627 13.6746C109.713 13.7229 109.803 13.6832 109.889 13.6712C109.98 13.6574 110.066 13.6505 110.138 13.7195C110.207 13.7851 110.294 13.7937 110.385 13.773C110.444 13.7592 110.506 13.7506 110.567 13.7454C110.594 13.7437 110.627 13.7506 110.647 13.7644C110.744 13.8369 110.84 13.9025 110.973 13.8559C111.09 13.8697 111.149 14.0112 111.29 13.9836C111.409 13.9594 111.534 13.9542 111.651 13.9231C111.759 13.8955 111.836 13.9439 111.891 14.0043C111.99 14.1113 112.129 13.9663 112.228 14.0716C112.285 14.132 112.358 14.1803 112.468 14.1544C112.589 14.1268 112.628 14.1631 112.662 14.2718C112.683 14.3339 112.679 14.384 112.642 14.4323C112.606 14.4824 112.565 14.4737 112.507 14.4168C112.439 14.3529 112.358 14.3408 112.261 14.3546C112.166 14.3684 112.107 14.2787 112.028 14.2442C111.95 14.2079 111.856 14.2684 111.774 14.2218C111.58 14.113 111.58 14.113 111.448 14.1337C111.358 14.1475 111.265 14.1544 111.177 14.1786C111.072 14.2079 111.004 14.1544 110.933 14.1061C110.907 14.0888 110.882 14.056 110.86 14.0578C110.649 14.0837 110.436 14.1078 110.228 14.151C110.118 14.1734 110.059 14.1113 109.986 14.0681C109.96 14.0526 109.933 14.0215 109.911 14.025C109.729 14.0492 109.55 14.0802 109.368 14.1096C109.334 14.1562 109.295 14.201 109.262 14.2511C109.227 14.3029 109.18 14.3253 109.11 14.3236C108.995 14.3236 108.881 14.3961 108.766 14.3046C108.647 14.2114 108.637 14.2166 108.522 14.239C108.375 14.2683 108.22 14.2614 108.082 14.3288C108.058 14.3408 108.033 14.3736 108.033 14.3978C108.031 14.4133 108.069 14.4358 108.093 14.4496C108.174 14.491 108.267 14.4306 108.348 14.4737C108.401 14.5013 108.445 14.5428 108.498 14.5721C108.52 14.5842 108.553 14.5825 108.582 14.5807C108.614 14.579 108.643 14.5669 108.672 14.5687C108.7 14.5704 108.729 14.5807 108.751 14.5963C108.852 14.6618 108.958 14.7223 109.048 14.7999C109.136 14.8759 109.218 14.8241 109.306 14.8206C109.658 14.9415 109.658 14.9432 109.894 14.9052C109.953 14.8966 110.013 14.8862 110.074 14.888C110.099 14.888 110.123 14.919 110.149 14.9363C110.222 14.988 110.292 15.0347 110.394 15.007C110.482 14.9829 110.576 14.9777 110.665 14.9622C110.786 14.9432 110.786 14.9432 110.992 15.0519C111.043 15.0795 111.098 15.0761 111.164 15.0623C111.221 15.0502 111.279 15.0761 111.319 15.1261C111.336 15.1468 111.33 15.1814 111.336 15.2107C111.155 15.2383 110.971 15.2573 110.796 15.2987C110.682 15.3246 110.631 15.2504 110.556 15.2107C110.53 15.1969 110.502 15.1676 110.479 15.171C110.299 15.1969 110.12 15.2262 109.94 15.2607C109.918 15.2642 109.891 15.3039 109.889 15.3281C109.885 15.3729 109.931 15.4161 109.997 15.4144C110.085 15.4126 110.171 15.3833 110.25 15.454C110.316 15.5162 110.398 15.5438 110.495 15.5162C110.554 15.5007 110.616 15.5007 110.675 15.4869C110.83 15.4454 110.971 15.4541 111.089 15.5714C111.178 15.6025 111.266 15.5732 111.352 15.5576C111.417 15.5455 111.479 15.5334 111.525 15.5662C111.622 15.6353 111.717 15.7043 111.851 15.6577C111.996 15.706 112.105 15.8079 112.226 15.8907C112.283 15.9304 112.327 15.9529 112.393 15.927C112.421 15.9166 112.454 15.9166 112.483 15.9114C112.543 15.9028 112.607 15.8769 112.662 15.8873C112.717 15.8993 112.763 15.9494 112.813 15.9805C112.836 15.996 112.864 16.0219 112.888 16.0202C112.979 16.0115 113.069 15.9943 113.159 15.9805C113.249 15.9684 113.338 15.9563 113.428 15.9442C113.503 15.9891 113.58 16.034 113.655 16.0789C113.776 16.0599 113.897 16.0409 114.016 16.0236C114.15 16.0029 114.15 16.0046 114.342 16.1116C114.428 16.16 114.52 16.1289 114.603 16.1065C114.74 16.0702 114.832 16.1358 114.929 16.2048C114.949 16.2187 114.985 16.2273 115.009 16.2204C115.104 16.1962 115.187 16.2152 115.257 16.279C115.306 16.3239 115.355 16.3446 115.416 16.336C115.627 16.3032 115.837 16.2687 116.048 16.2394C116.074 16.2359 116.103 16.2514 116.127 16.2652C116.314 16.3705 116.315 16.3757 116.453 16.3481C116.576 16.3239 116.689 16.3136 116.786 16.4085C116.806 16.4292 116.838 16.4585 116.86 16.4568C117.01 16.4396 117.162 16.4206 117.31 16.3912C117.378 16.3774 117.426 16.3826 117.479 16.4223C117.547 16.4724 117.607 16.5328 117.719 16.5103C118.028 16.4465 118.03 16.4568 118.397 16.5759C118.422 16.5845 118.457 16.5707 118.486 16.5638C118.549 16.5466 118.594 16.5707 118.649 16.6104C118.772 16.7002 118.776 16.695 118.893 16.676C118.983 16.6605 119.076 16.657 119.164 16.6311C119.3 16.5932 119.39 16.6605 119.49 16.7243C119.571 16.7744 119.664 16.733 119.75 16.7174C119.844 16.7002 119.928 16.7053 119.998 16.7709C120.045 16.8158 120.097 16.84 120.157 16.8314C120.368 16.8003 120.579 16.7658 120.789 16.7347C120.815 16.7312 120.846 16.7451 120.87 16.7571C121.079 16.8641 121.079 16.8693 121.286 16.8296C121.352 16.8175 121.407 16.8141 121.456 16.8503C121.504 16.8849 121.555 16.9176 121.605 16.9504C121.694 16.9384 121.786 16.9349 121.874 16.9142C121.942 16.8987 121.989 16.9056 122.042 16.9418C122.112 16.9884 122.171 17.0695 122.281 17.0298C122.337 17.0108 122.403 17.016 122.46 16.9988C122.528 16.9763 122.574 16.9901 122.627 17.035C122.693 17.0885 122.76 17.1437 122.867 17.1161C122.984 17.0851 123.109 17.0799 123.228 17.0557C123.294 17.0419 123.339 17.0557 123.393 17.1006C123.459 17.1575 123.534 17.1938 123.636 17.1714C123.845 17.1282 123.847 17.1368 124.05 17.2456C124.102 17.2732 124.157 17.2697 124.222 17.2559C124.279 17.2438 124.338 17.2697 124.378 17.3198C124.417 17.375 124.413 17.4095 124.417 17.4389ZM108.091 1.87271C108.031 1.88134 107.971 1.89169 107.883 1.74154C107.877 1.71565 107.881 1.68459 107.868 1.66215C107.839 1.61555 107.793 1.58276 107.738 1.57758C107.639 1.57068 107.52 1.62935 107.522 1.67422C107.524 1.71219 107.555 1.74498 107.615 1.77605C107.641 1.78813 107.661 1.80884 107.685 1.82265C107.754 1.86235 107.809 1.94003 107.91 1.90033C107.901 1.84683 107.892 1.79332 107.91 1.90033C107.901 1.96592 107.928 2.01252 107.994 2.0315C108.013 2.03668 108.04 2.03322 108.055 2.02287C108.112 1.98489 108.121 1.93313 108.079 1.79678C108.071 1.81922 108.077 1.8589 108.093 1.86925C108.11 1.87961 108.15 1.87099 108.17 1.85891C108.222 1.82612 108.247 1.78297 108.234 1.74672C108.227 1.72774 108.192 1.70357 108.17 1.70357C108.132 1.70357 108.097 1.74154 108.091 1.87271ZM122.905 21.8883C122.771 21.9211 122.618 21.909 122.484 21.9763C122.46 21.9884 122.436 22.0195 122.434 22.0437C122.433 22.0592 122.469 22.0816 122.491 22.0937C122.541 22.1213 122.596 22.1127 122.66 22.1041C122.757 22.092 122.814 22.1714 122.889 22.2111C122.913 22.2232 122.944 22.2318 122.969 22.2283C123.118 22.2076 123.264 22.1852 123.413 22.161C123.438 22.1559 123.466 22.1438 123.488 22.1282C123.561 22.0782 123.554 22.0454 123.482 22.0074C123.404 21.966 123.341 21.8969 123.261 21.8642C123.145 21.8176 123.028 21.8797 122.905 21.8883ZM112.501 23.1483C112.411 23.1621 112.323 23.1759 112.234 23.1897C112.204 23.1949 112.173 23.1966 112.146 23.2035C112.089 23.2156 112.047 23.2518 112.019 23.3088C112.061 23.3536 112.113 23.3795 112.17 23.3743C112.259 23.364 112.347 23.3416 112.437 23.3364C112.534 23.3295 112.591 23.4071 112.666 23.4468C112.69 23.4589 112.719 23.4606 112.747 23.4624C112.882 23.4693 112.965 23.3795 112.939 23.2535C112.921 23.1552 112.851 23.0965 112.767 23.1086C112.679 23.1206 112.589 23.1345 112.501 23.1483ZM123.532 19.3374C123.554 19.3081 123.578 19.2873 123.589 19.2615C123.622 19.1734 123.609 19.1078 123.548 19.0388C123.475 18.9542 123.385 19.0112 123.303 19.0198C123.283 19.0216 123.261 19.0578 123.25 19.0802C123.242 19.0958 123.242 19.1286 123.253 19.1372C123.343 19.2062 123.438 19.2701 123.532 19.3374ZM107.639 14.239C107.551 14.2528 107.461 14.2632 107.373 14.2822C107.351 14.2873 107.331 14.3201 107.318 14.3426C107.295 14.384 107.32 14.4409 107.395 14.4461C107.481 14.453 107.571 14.4237 107.661 14.4099C107.775 14.3926 107.842 14.3287 107.8 14.2735C107.76 14.22 107.705 14.2097 107.639 14.239ZM11.2028 10.5507C11.2615 10.5421 11.3219 10.5352 11.3805 10.5231C11.4355 10.511 11.4777 10.473 11.5051 10.4161C11.4593 10.3712 11.408 10.347 11.3512 10.3522C11.2615 10.3626 11.1735 10.3764 11.0856 10.3936C11.0306 10.404 10.9775 10.442 10.9647 10.5006C10.9519 10.5455 11.0746 10.5714 11.2028 10.5507ZM99.8913 10.2849C99.9151 10.3004 99.9389 10.3315 99.9627 10.3315C100.021 10.3315 100.082 10.3211 100.137 10.3039C100.161 10.297 100.179 10.2659 100.19 10.2417C100.197 10.2262 100.195 10.1986 100.184 10.1848C100.131 10.102 99.9188 10.1313 99.884 10.2262C99.8803 10.2435 99.8895 10.2659 99.8913 10.2849ZM94.1113 0.833697C94.1168 0.861311 94.1186 0.888923 94.1259 0.916538C94.1406 0.968316 94.1809 1.00629 94.2395 1.03218C94.2853 0.989035 94.3091 0.940716 94.3073 0.888938C94.3055 0.861323 94.2999 0.833691 94.2926 0.806076C94.278 0.754298 94.2377 0.716341 94.1791 0.690452C94.1333 0.731874 94.1113 0.780193 94.1113 0.833697ZM127.766 23.4486C127.749 23.471 127.733 23.4934 127.714 23.5142C127.764 23.5642 127.81 23.5797 127.844 23.5521C127.866 23.5349 127.879 23.509 127.896 23.4865C127.846 23.4365 127.802 23.4227 127.766 23.4486ZM126.626 23.6833C126.65 23.6988 126.672 23.7195 126.698 23.7299C126.74 23.7472 126.778 23.7178 126.807 23.6557C126.784 23.6401 126.762 23.6194 126.736 23.6091C126.694 23.5918 126.655 23.6212 126.626 23.6833ZM127.348 23.3675C127.335 23.4089 127.361 23.4434 127.429 23.4727C127.445 23.4503 127.467 23.4296 127.478 23.4054C127.496 23.3657 127.465 23.3295 127.399 23.3019C127.381 23.3226 127.364 23.345 127.348 23.3675ZM123.48 21.5069C123.468 21.5483 123.493 21.5828 123.561 21.6122C123.578 21.5897 123.6 21.569 123.611 21.5449C123.629 21.5052 123.598 21.4689 123.532 21.4413C123.513 21.462 123.497 21.4845 123.48 21.5069ZM118.212 9.29421C118.195 9.31665 118.179 9.33909 118.16 9.3598C118.21 9.40985 118.256 9.42538 118.29 9.39776C118.312 9.3805 118.325 9.35461 118.342 9.33218C118.292 9.28213 118.248 9.26832 118.212 9.29421ZM113.164 2.81506C113.208 2.82714 113.245 2.80299 113.276 2.73913C113.252 2.7236 113.23 2.70288 113.205 2.69253C113.163 2.67527 113.124 2.70462 113.095 2.76675C113.119 2.78401 113.142 2.79953 113.164 2.81506ZM110.484 2.40947C110.468 2.43191 110.451 2.45435 110.433 2.47506C110.482 2.52511 110.528 2.54064 110.563 2.51302C110.585 2.49576 110.598 2.46987 110.614 2.44744C110.565 2.39739 110.521 2.38531 110.484 2.40947ZM92.3086 0.831969C92.2921 0.854406 92.2756 0.876844 92.2573 0.897555C92.3067 0.947607 92.3525 0.963135 92.3873 0.935521C92.4093 0.918261 92.4221 0.892371 92.4386 0.869934C92.3892 0.819882 92.3452 0.807806 92.3086 0.831969ZM1.80819 14.8741C1.78437 14.8586 1.76058 14.8431 1.73859 14.8258C1.68546 14.8724 1.66898 14.9156 1.69829 14.9484C1.71661 14.9691 1.74407 14.9812 1.76789 14.9967C1.82285 14.9501 1.83567 14.9087 1.80819 14.8741Z" fill="#0EBF6C"/>
<path d="M12.4338 8.77958C12.2232 8.81237 12.0143 8.85378 11.8036 8.87449C11.6919 8.88485 11.6516 8.95907 11.6058 9.02811C11.5692 9.08333 11.527 9.10059 11.4592 9.11095C10.8876 9.19552 10.3179 9.28527 9.7481 9.37329C9.67665 9.35085 9.64185 9.31462 9.65833 9.27147C9.6675 9.24558 9.68949 9.20933 9.71147 9.20588C10.1017 9.14202 10.4901 9.07643 10.8821 9.02638C10.9939 9.01257 11.025 8.93663 11.0818 8.87449C11.1001 8.85378 11.1148 8.82272 11.1386 8.81064C11.1624 8.79683 11.1973 8.79856 11.2284 8.79511C11.8586 8.69673 12.4888 8.60009 13.1191 8.50171C13.1905 8.52415 13.2253 8.56038 13.2088 8.60353C13.1997 8.62942 13.1777 8.66567 13.1557 8.66912C12.9139 8.70536 12.6738 8.74161 12.4338 8.77958Z" fill="#0EBF6C"/>
<path d="M127.79 17.9705C127.694 17.9912 127.573 18.0206 127.475 17.9205C127.427 17.8721 127.376 17.8566 127.313 17.867C127.224 17.8842 127.132 17.898 127.04 17.9084C127.016 17.9101 126.985 17.8911 126.962 17.8756C126.91 17.8445 126.866 17.7928 126.811 17.779C126.756 17.7651 126.69 17.8031 126.634 17.7945C126.558 17.7824 126.527 17.7358 126.547 17.6927C126.558 17.6685 126.58 17.634 126.604 17.6288C126.943 17.5649 126.945 17.5649 127.04 17.6271C127.114 17.6754 127.181 17.7289 127.286 17.6995C127.374 17.6754 127.467 17.6702 127.557 17.6547C127.682 17.634 127.682 17.6357 127.883 17.7444C127.934 17.772 127.989 17.7703 128.055 17.7548C128.112 17.7427 128.167 17.7703 128.213 17.8169C128.184 17.8756 128.141 17.9136 128.085 17.9239C127.993 17.9412 127.903 17.9533 127.79 17.9705Z" fill="#0EBF6C"/>
<path d="M124.416 17.4387C124.647 17.4025 124.88 17.3715 125.11 17.33C125.206 17.3128 125.281 17.3318 125.347 17.3904C125.418 17.4543 125.499 17.4491 125.587 17.437C125.642 17.4301 125.695 17.4577 125.731 17.5061C125.746 17.525 125.742 17.5596 125.748 17.5872C125.546 17.6183 125.343 17.651 125.14 17.6787C125.116 17.6821 125.087 17.6649 125.065 17.6511C125.015 17.6217 124.973 17.5699 124.92 17.5596C124.806 17.5354 124.693 17.582 124.577 17.5906C124.522 17.5941 124.469 17.5682 124.433 17.5216C124.418 17.4992 124.422 17.4664 124.416 17.4387Z" fill="#0EBF6C"/>
<path d="M40.9949 2.59911C41.2349 2.56114 41.4749 2.52491 41.7149 2.48694C41.7863 2.5111 41.8193 2.54561 41.8046 2.58876C41.7955 2.61465 41.7735 2.6509 41.7515 2.65435C41.2715 2.73202 40.7916 2.80622 40.3134 2.88043C40.2419 2.85627 40.209 2.82176 40.2236 2.77861C40.2328 2.75272 40.2548 2.71648 40.2768 2.71302C40.5149 2.67333 40.7549 2.63708 40.9949 2.59911Z" fill="#0EBF6C"/>
<path d="M4.01284 12.1907C3.90475 12.1942 3.79119 12.2581 3.67028 12.2097C3.64646 12.2011 3.61348 12.1735 3.61531 12.1579C3.61897 12.1321 3.64096 12.0993 3.66478 12.0889C3.7692 12.0457 3.89929 12.0406 3.95242 11.9198C3.97807 11.8576 4.0257 11.8369 4.08982 11.8248C4.1576 11.811 4.20522 11.8162 4.25835 11.8524C4.32797 11.899 4.3866 11.9853 4.49652 11.9405C4.50202 11.9681 4.51481 11.9992 4.50932 12.025C4.50382 12.0509 4.48004 12.0751 4.45806 12.0941C4.43791 12.1113 4.4104 12.1269 4.38475 12.132C4.26384 12.1528 4.14292 12.17 4.01284 12.1907Z" fill="#0EBF6C"/>
<path d="M99.2951 11.8435C99.3848 11.8297 99.4783 11.8228 99.5662 11.7987C99.6358 11.7797 99.6798 11.7918 99.7347 11.8332C99.8282 11.9057 99.8337 11.8988 100.063 11.9091C100.088 11.9109 100.12 11.9367 100.134 11.9592C100.143 11.9713 100.13 12.0041 100.119 12.0213C100.103 12.0438 100.079 12.0731 100.057 12.0731C99.9125 12.0783 99.7659 12.1801 99.6248 12.0627C99.5534 12.0041 99.4746 11.9764 99.3775 12.0023C99.3189 12.0179 99.2566 12.0248 99.1961 12.0317C99.1375 12.0386 99.0771 12.0196 99.0404 11.9678C98.9873 11.8919 99.0184 11.8625 99.1137 11.8677C99.1742 11.8712 99.2346 11.8522 99.2951 11.8435Z" fill="#0EBF6C"/>
<path d="M132.498 23.7406C132.613 23.7233 132.729 23.7026 132.846 23.6888C132.87 23.6854 132.899 23.7044 132.921 23.7164C133.009 23.7682 132.996 23.8562 133 23.9339C133.002 24.015 132.798 24.0806 132.712 24.0254C132.617 23.9632 132.531 23.8925 132.399 23.9305C132.348 23.9443 132.287 23.9132 132.254 23.8631C132.205 23.7907 132.232 23.7613 132.326 23.7665C132.381 23.7699 132.439 23.7509 132.498 23.7406Z" fill="#0EBF6C"/>
<path d="M74.3339 0.248684C74.4529 0.229699 74.572 0.200373 74.6911 0.198647C74.7607 0.196921 74.7955 0.253866 74.779 0.295288C74.7699 0.321177 74.7479 0.357422 74.7259 0.360874C74.4877 0.402296 74.2496 0.436821 74.0114 0.474791C73.9418 0.450628 73.907 0.41439 73.9235 0.372967C73.9326 0.347078 73.9546 0.312559 73.9766 0.307381C74.0957 0.283218 74.2148 0.26767 74.3339 0.248684Z" fill="#0EBF6C"/>
<path d="M130.213 18.1225C130.329 18.1052 130.446 18.0793 130.562 18.0707C130.622 18.0673 130.67 18.1069 130.677 18.1518C130.681 18.1725 130.651 18.2088 130.627 18.2174C130.463 18.2761 130.285 18.283 130.113 18.3123C130.058 18.321 129.999 18.2934 129.966 18.245C129.917 18.1708 129.944 18.1432 130.038 18.1484C130.096 18.1501 130.155 18.1311 130.213 18.1225Z" fill="#0EBF6C"/>
<path d="M102.321 12.0764C102.38 12.0678 102.44 12.0454 102.497 12.0523C102.557 12.0609 102.596 12.1109 102.614 12.161C102.634 12.218 102.633 12.2715 102.614 12.3198C102.585 12.4026 102.556 12.3992 102.488 12.344C102.383 12.2577 102.376 12.268 102.169 12.2715C102.145 12.2715 102.116 12.2456 102.098 12.2231C102.07 12.1886 102.085 12.1351 102.149 12.1041C102.197 12.0816 102.263 12.0851 102.321 12.0764Z" fill="#0EBF6C"/>
<path d="M125.921 17.5566C126.007 17.5427 126.093 17.5203 126.179 17.5203C126.24 17.5186 126.287 17.5583 126.293 17.6014C126.295 17.6221 126.267 17.6567 126.245 17.667C126.141 17.7136 126.023 17.7171 125.91 17.7326C125.857 17.7395 125.798 17.7119 125.765 17.6636C125.716 17.5911 125.745 17.5583 125.835 17.5686C125.862 17.5721 125.892 17.5617 125.921 17.5566Z" fill="#0EBF6C"/>
<path d="M112.368 15.4387C112.24 15.4594 112.119 15.4336 112.128 15.3887C112.141 15.33 112.194 15.292 112.249 15.2817C112.337 15.2644 112.425 15.2506 112.515 15.2402C112.572 15.2333 112.623 15.2592 112.669 15.3041C112.641 15.3593 112.599 15.399 112.544 15.4111C112.487 15.4232 112.427 15.4301 112.368 15.4387Z" fill="#0EBF6C"/>
<path d="M111.53 15.2177C111.616 15.2039 111.702 15.1815 111.788 15.1815C111.848 15.1798 111.896 15.2195 111.902 15.2626C111.903 15.2833 111.876 15.3179 111.854 15.3282C111.75 15.3748 111.632 15.3783 111.519 15.3938C111.466 15.4007 111.407 15.3731 111.374 15.3248C111.325 15.2523 111.354 15.2195 111.444 15.2298C111.471 15.2333 111.5 15.2229 111.53 15.2177Z" fill="#0EBF6C"/>
<path d="M101.281 12.0628C101.367 12.049 101.453 12.0265 101.54 12.0248C101.6 12.023 101.648 12.0628 101.653 12.1059C101.655 12.1266 101.627 12.1594 101.605 12.1715C101.501 12.2181 101.384 12.2215 101.27 12.2371C101.217 12.244 101.158 12.2164 101.125 12.168C101.076 12.0956 101.105 12.0627 101.195 12.0731C101.223 12.0766 101.252 12.0662 101.281 12.0628Z" fill="#0EBF6C"/>
<path d="M100.801 11.961C100.892 11.9472 100.922 11.9385 100.951 11.9385C101.006 11.9385 101.063 11.9593 101.096 12.0093C101.145 12.0818 101.116 12.1025 101.026 12.106C100.911 12.1094 100.797 12.1457 100.682 12.1526C100.621 12.156 100.574 12.1146 100.57 12.0714C100.568 12.0507 100.596 12.0145 100.618 12.0076C100.694 11.9817 100.779 11.9662 100.801 11.961Z" fill="#0EBF6C"/>
<path d="M110.781 1.80701C110.722 1.81564 110.66 1.8398 110.605 1.83117C110.532 1.81909 110.503 1.7725 110.521 1.72935C110.532 1.70519 110.552 1.67067 110.574 1.66549C110.691 1.64133 110.81 1.62578 110.928 1.60852C110.997 1.63441 111.028 1.67065 111.01 1.7138C110.999 1.73796 110.979 1.77075 110.957 1.77766C110.9 1.79492 110.84 1.79838 110.781 1.80701Z" fill="#0EBF6C"/>
<path d="M39.6804 2.80264C39.7372 2.80092 39.7885 2.82335 39.8325 2.8665C39.805 2.92173 39.7647 2.95798 39.7097 2.97351C39.6823 2.98041 39.6511 2.98558 39.6218 2.98731C39.565 2.99076 39.5137 2.9666 39.4697 2.92345C39.4972 2.86822 39.5393 2.83198 39.5925 2.81644C39.6199 2.80954 39.6511 2.80782 39.6804 2.80264Z" fill="#0EBF6C"/>
<path d="M129.587 18.1158C129.586 18.0658 129.697 18.0088 129.798 18.0105C129.851 18.0123 129.906 18.0364 129.937 18.083C129.985 18.1538 129.957 18.1814 129.868 18.1762C129.813 18.1728 129.754 18.2021 129.699 18.1969C129.637 18.1952 129.6 18.1572 129.587 18.1158Z" fill="#0EBF6C"/>
<path d="M102.851 12.2854C102.85 12.2664 102.84 12.244 102.846 12.2268C102.881 12.1318 103.091 12.1025 103.146 12.1853C103.156 12.2009 103.159 12.2267 103.152 12.2423C103.141 12.2664 103.121 12.2975 103.099 12.3044C103.042 12.3217 102.983 12.3303 102.925 12.332C102.899 12.332 102.875 12.3027 102.851 12.2854Z" fill="#0EBF6C"/>
<path d="M4.66539 11.9144C4.44921 11.9507 4.44555 11.9472 4.48402 11.8609C4.51883 11.7832 4.58296 11.7366 4.67639 11.7366C4.70387 11.7366 4.73317 11.7332 4.75699 11.7401C4.78264 11.7487 4.8193 11.766 4.82479 11.7867C4.83579 11.8264 4.80461 11.8695 4.74965 11.8989C4.72584 11.9127 4.6947 11.9092 4.66539 11.9144Z" fill="#0EBF6C"/>
<path d="M42.3883 2.55972C42.3242 2.58906 42.2692 2.57872 42.2289 2.52349C42.1886 2.46826 42.2527 2.40266 42.3645 2.38713C42.3938 2.38368 42.4249 2.36988 42.4524 2.37679C42.4799 2.38196 42.5074 2.40266 42.5239 2.42337C42.5532 2.45789 42.5349 2.5045 42.4762 2.5442C42.4524 2.55973 42.4176 2.55627 42.3883 2.55972Z" fill="#0EBF6C"/>
<path d="M129.206 17.9859C129.223 17.9635 129.239 17.9411 129.258 17.9203C129.326 17.9497 129.355 17.9842 129.337 18.0239C129.326 18.0481 129.304 18.0688 129.287 18.0912C129.219 18.0619 129.192 18.0256 129.206 17.9859Z" fill="#0EBF6C"/>
<path d="M7.56738 31.562C7.56738 31.5413 7.59303 31.5085 7.61318 31.5016C7.65166 31.4895 7.69927 31.5137 7.73225 31.562C7.77805 31.6311 7.75059 31.6673 7.66632 31.6483C7.60769 31.6345 7.56738 31.6 7.56738 31.562Z" fill="#0EBF6C"/>
<path d="M103.599 10.6785C103.622 10.6941 103.646 10.7096 103.668 10.7269C103.637 10.7907 103.599 10.8183 103.558 10.8011C103.533 10.7907 103.511 10.77 103.487 10.7545C103.518 10.6906 103.555 10.6665 103.599 10.6785Z" fill="#0EBF6C"/>
<path d="M102.964 10.6004C103.001 10.5745 103.045 10.5884 103.096 10.6384C103.079 10.6609 103.065 10.6867 103.045 10.704C103.01 10.7316 102.964 10.7178 102.915 10.666C102.929 10.6453 102.946 10.6229 102.964 10.6004Z" fill="#0EBF6C"/>
<path d="M102.477 10.6765C102.501 10.6921 102.525 10.7076 102.547 10.7249C102.515 10.7887 102.479 10.8163 102.437 10.7991C102.411 10.7887 102.389 10.768 102.365 10.7525C102.396 10.6886 102.433 10.6627 102.477 10.6765Z" fill="#0EBF6C"/>
<path d="M102.121 10.5853C102.149 10.6198 102.134 10.6612 102.081 10.7078C102.057 10.6923 102.03 10.6802 102.011 10.6595C101.982 10.6267 101.997 10.5835 102.052 10.5369C102.074 10.5542 102.097 10.5697 102.121 10.5853Z" fill="#0EBF6C"/>
</svg>
